<svg id="レイヤー_1" data-name="レイヤー 1" xmlns="http://www.w3.org/2000/svg" viewBox="0 0 106.27 150"><defs><style>.cls-1{fill:#264de4;}.cls-2{fill:#2965f1;}.cls-3{fill:#ebebeb;}.cls-4{fill:#fff;}</style></defs><path class="cls-1" d="M53.07,155.86,9.67,143.81,0,35.34H106.27L96.59,143.79,53.07,155.86Z" transform="translate(0 -5.86)"/><path class="cls-2" d="M88.3,136.89l8.27-92.68H53.13V146.64l35.17-9.75Z" transform="translate(0 -5.86)"/><path class="cls-3" d="M22.17,84.44l1.19,13.3H53.13V84.44Z" transform="translate(0 -5.86)"/><path class="cls-3" d="M19.78,57.51,21,70.82H53.13V57.51Z" transform="translate(0 -5.86)"/><path class="cls-3" d="M53.13,119l-.05,0-14.82-4-.95-10.61H24l1.86,20.89,27.25,7.57.06,0V119Z" transform="translate(0 -5.86)"/><path d="M25,5.86H41.12V12.6H31.75v6.74h9.37v6.73H25V5.86Z" transform="translate(0 -5.86)"/><path d="M44.35,5.86H60.46v5.86H51.08v1.17h9.38V26.37H44.35V20.21h9.37V19H44.35V5.86Z" transform="translate(0 -5.86)"/><path d="M63.68,5.86H79.8v5.86H70.42v1.17H79.8V26.37H63.68V20.21h9.38V19H63.68V5.86Z" transform="translate(0 -5.86)"/><path class="cls-4" d="M84,84.44l2.41-26.93H53.09V70.82H71.84L70.62,84.44H53.09v13.3H69.47L67.93,115l-14.84,4v13.84l27.27-7.56.2-2.24,3.13-35L84,84.44Z" transform="translate(0 -5.86)"/></svg>