<svg id="レイヤー_1" data-name="レイヤー 1" xmlns="http://www.w3.org/2000/svg" viewBox="0 0 106.27 150"><defs><style>.cls-1{fill:#e44d26;}.cls-2{fill:#f16529;}.cls-3{fill:#ebebeb;}.cls-4{fill:#fff;}</style></defs><path class="cls-1" d="M106.27,36.52,96.59,145,53.07,157,9.67,145,0,36.52Z" transform="translate(0 -7.04)"/><path class="cls-2" d="M53.13,147.82l35.17-9.75,8.27-92.68H53.13V147.82Z" transform="translate(0 -7.04)"/><path class="cls-3" d="M34.31,72H53.13V58.7H19.78l.31,3.57,3.27,36.66H53.13V85.62H35.53L34.31,72Z" transform="translate(0 -7.04)"/><path class="cls-3" d="M37.31,105.58H24l1.86,20.89L53.07,134h.06V120.17l-.05,0-14.82-4-.95-10.61Z" transform="translate(0 -7.04)"/><path d="M9.89,7h6.76v6.68h6.18V7h6.76V27.27H22.83V20.5H16.65v6.77H9.89V7Z" transform="translate(0 -7.04)"/><path d="M38.48,13.75H32.53V7H51.2v6.71h-6V27.27H38.48V13.75Z" transform="translate(0 -7.04)"/><path d="M54.16,7h7.05l4.34,7.11L69.88,7h7.05V27.27H70.2v-10l-4.65,7.19h-.12l-4.65-7.19v10H54.16V7Z" transform="translate(0 -7.04)"/><path d="M80.3,7h6.76V20.59h9.51v6.68H80.3V7Z" transform="translate(0 -7.04)"/><path class="cls-4" d="M53.09,98.93H69.47l-1.54,17.25-14.84,4V134l27.27-7.56.2-2.25,3.13-35L84,85.62H53.09V98.93Z" transform="translate(0 -7.04)"/><path class="cls-4" d="M53.09,72v0H85.22l.27-3,.61-6.74.32-3.57H53.09V72Z" transform="translate(0 -7.04)"/></svg>