<svg id="Layer_1" data-name="Layer 1" xmlns="http://www.w3.org/2000/svg" viewBox="0 0 590.1 150"><defs><style>.cls-1{fill:#0060a9;}.cls-2{fill:#353332;}</style></defs><path class="cls-1" d="M232.18,132.86a34.4,34.4,0,0,1-.3,4.07l5.28-9.58-.53-3.2,5.3-.81,1.93,13.25,2.44-8.31a10,10,0,0,0,.31-2.12,7.6,7.6,0,0,0-.25-2.12l5.55-1.06a13.76,13.76,0,0,1,.3,3.14,13.47,13.47,0,0,1-1.31,5l-4.48,12.13h-6.59l-1.4-9-5.17,9H226.9a130.69,130.69,0,0,0-.64-19.08l5.51-.85A55.56,55.56,0,0,1,232.18,132.86Z" transform="translate(-4.93 0.67)"/><path class="cls-1" d="M266.65,128.39c-2.57,1.38-3.5,1.91-5.83,3.33l-2.48,11.51h-5.7l4-19.25,5.07-.87-.21,2.69a41.09,41.09,0,0,1,5.24-2.69Z" transform="translate(-4.93 0.67)"/><path class="cls-1" d="M270,124l5.92-.83-4.24,20.12H266Zm1.85-8.74,5.91-.8-1.31,6.08-5.85.81Z" transform="translate(-4.93 0.67)"/><path class="cls-1" d="M286.47,128.09l-2.12,9.84a4.68,4.68,0,0,0,0,.53c0,.29.15.4.55.4a9.11,9.11,0,0,0,3.12-.81l1,4a14.14,14.14,0,0,1-6.36,1.61c-2.89,0-4.37-1.38-4.24-3.73a6,6,0,0,1,0-.85l2.33-11h-2.93l1-4.58h2.92l1-4.75,5.89-.8-1.16,5.55h4.7l-1.29,4.58Z" transform="translate(-4.93 0.67)"/><path class="cls-1" d="M293.28,130.51c1-4.54,3.09-7.47,9.35-7.47,3.73,0,6.51,1.64,6.36,5-.13,3.83-2.12,5.63-7.08,7.08-2.42.74-2.46.74-4.24,1.18l-.3,1.38c-.15.72,0,1.38.95,1.38a23.12,23.12,0,0,0,7.83-2.12l1,4.05a20,20,0,0,1-9.73,2.71c-4.09,0-5.79-1.78-5.66-5.15a12.72,12.72,0,0,1,.32-2.39Zm10.41-1.91c0-.68-.57-1.12-1.63-1.12-2.12,0-2.72,1.16-3.06,2.79l-.27,1.38c1-.25,1.42-.32,2.61-.7,1.54-.44,2.31-1.12,2.35-2.31Z" transform="translate(-4.93 0.67)"/><path class="cls-1" d="M323.77,115.43l5.91-.8-6,28.6h-5.7Z" transform="translate(-4.93 0.67)"/><path class="cls-1" d="M330.4,130.51c1-4.54,3.12-7.47,9.35-7.47,3.73,0,6.51,1.64,6.36,5-.15,3.83-2.12,5.63-7.1,7.08-2.42.74-2.46.74-4.24,1.18l-.3,1.38c-.15.72,0,1.38,1,1.38a23.08,23.08,0,0,0,7.8-2.12l.95,4.05a19.9,19.9,0,0,1-9.73,2.71c-4.09,0-5.79-1.78-5.66-5.15a12.72,12.72,0,0,1,.32-2.39Zm10.41-1.91c0-.68-.57-1.12-1.61-1.12-2.12,0-2.73,1.16-3.07,2.79l-.28,1.38c1-.25,1.42-.32,2.61-.7,1.57-.44,2.31-1.12,2.35-2.31Z" transform="translate(-4.93 0.67)"/><path class="cls-1" d="M346.66,142.36l1.23-4.24a15.37,15.37,0,0,0,5.32,1c1.91,0,2.13-.58,2.25-1.51s-.36-1.38-2.54-2.56c-4.07-2.12-4.24-3.65-3.54-6.6.91-4.24,2.12-5.4,7.67-5.4a21.41,21.41,0,0,1,5.85.93l-1.08,4.24a21.3,21.3,0,0,0-5-.72c-1.69,0-1.95.19-2.12,1.25s0,1.14,1.87,2.12c4.45,2.44,5.11,3.28,4.43,6.36-1,4.47-2.31,6.25-8.25,6.25A16.71,16.71,0,0,1,346.66,142.36Z" transform="translate(-4.93 0.67)"/><path class="cls-1" d="M363,142.36l1.25-4.24a15.37,15.37,0,0,0,5.32,1c1.89,0,2.12-.58,2.23-1.51s-.36-1.38-2.55-2.56c-4.05-2.12-4.24-3.65-3.54-6.6.94-4.24,2.12-5.4,7.7-5.4a21.53,21.53,0,0,1,5.85.93l-1.1,4.24a21.2,21.2,0,0,0-4.94-.72c-1.72,0-2,.19-2.12,1.25s0,1.14,1.86,2.12c4.46,2.44,5.13,3.28,4.46,6.36-1,4.47-2.34,6.25-8.25,6.25A16.91,16.91,0,0,1,363,142.36Z" transform="translate(-4.93 0.67)"/><path class="cls-1" d="M378.66,147.66l3.28-4.41h-2.12l1.42-6.74H387l-1.55,7.23-4.81,5.59Z" transform="translate(-4.93 0.67)"/><path class="cls-1" d="M409.91,143.23l-.11-1.7a9.85,9.85,0,0,1-6.36,2.12c-4.24,0-5.26-2.58-4.24-7l1.1-5.3c1-4.7,2.31-8.24,10.6-8.24a13.73,13.73,0,0,1,2.4.21l1.65-7.87,5.86-.8-6.09,28.6Zm-5.24-5.92c-.23,1,0,1.53,1,1.53a7.08,7.08,0,0,0,4.66-2l1.85-8.8a11.12,11.12,0,0,0-2.23-.17c-3,0-3.62,1.59-4.05,3.5Z" transform="translate(-4.93 0.67)"/><path class="cls-1" d="M420,137a10.41,10.41,0,0,1,.17-1.38l1-4.58c1.06-5.07,3.64-8,10.6-8,5.3,0,7.59,3,7.46,6.57a6.8,6.8,0,0,1-.17,1.42l-.95,4.58c-1,4.75-3.42,8-10.6,8C422.46,143.65,419.91,140.64,420,137Zm13.42-6.94c0-1.46-.8-2.22-2.67-2.22a3.54,3.54,0,0,0-3.84,3.05l-1,4.9a5.34,5.34,0,0,0-.13.8c0,1.42.83,2.23,2.69,2.23a3.52,3.52,0,0,0,3.84-3l1-4.9a5.7,5.7,0,0,0,.1-.83Z" transform="translate(-4.93 0.67)"/><path class="cls-1" d="M474.08,129.83a3.21,3.21,0,0,0,0-.62c0-.4-.19-.57-.74-.57a17.27,17.27,0,0,0-5.21,1.91l-2.67,12.72h-5.58l2.82-13.42c0-.2,0-.41,0-.61,0-.41-.19-.58-.76-.58a17.4,17.4,0,0,0-5,1.85l-2.67,12.72h-5.81l4-19.25,5.07-.87-.13,2.12a19,19,0,0,1,8-2.14,3,3,0,0,1,3.33,2.31,16.13,16.13,0,0,1,8.06-2.31c2.63,0,3.56,1.5,3.47,4a13.17,13.17,0,0,1-.29,2.27l-3,13.85h-5.73Z" transform="translate(-4.93 0.67)"/><path class="cls-1" d="M482.1,137a9,9,0,0,1,.17-1.38l1-4.58c1.06-5.07,3.65-8,10.6-8,5.3,0,7.59,3,7.47,6.57a7.55,7.55,0,0,1-.17,1.42l-1,4.58c-1,4.75-3.41,8-10.6,8C484.47,143.65,482,140.64,482.1,137Zm13.42-6.94c0-1.46-.81-2.22-2.67-2.22a3.54,3.54,0,0,0-3.84,3.05l-1,4.9a5.32,5.32,0,0,0-.12.8c0,1.42.82,2.23,2.69,2.23a3.53,3.53,0,0,0,3.84-3l1-4.9A5.71,5.71,0,0,0,495.52,130.1Z" transform="translate(-4.93 0.67)"/><path class="cls-1" d="M516.42,128.39c-2.56,1.38-3.52,1.91-5.83,3.33l-2.48,11.51h-5.72L506.44,124l5-.87-.21,2.69a45.43,45.43,0,0,1,5.24-2.69Z" transform="translate(-4.93 0.67)"/><path class="cls-1" d="M517.72,130.51c1-4.54,3.09-7.47,9.33-7.47,3.73,0,6.53,1.64,6.36,5-.13,3.83-2.12,5.63-7.11,7.08-2.41.74-2.46.74-4.24,1.18l-.27,1.38c-.15.72,0,1.38,1,1.38a23.13,23.13,0,0,0,7.82-2.12l1,4.05a20,20,0,0,1-9.75,2.71c-4.1,0-5.77-1.78-5.66-5.15a14.63,14.63,0,0,1,.33-2.39Zm10.41-1.91c0-.68-.58-1.12-1.64-1.12-2.12,0-2.71,1.16-3,2.79l-.3,1.38c1-.25,1.45-.32,2.63-.7,1.55-.44,2.31-1.12,2.36-2.31Z" transform="translate(-4.93 0.67)"/><path class="cls-1" d="M535.78,136.51h5.72l-1.42,6.74h-5.7Z" transform="translate(-4.93 0.67)"/><path class="cls-1" d="M11.87,27.83c-9.67,13.89-8.48,32-1.08,46.64.17.36.36.7.55,1.06s.22.46.34.68l.21.36.39.7L13,78.48a5.74,5.74,0,0,0,.43.66c.23.42.53.84.8,1.27l.34.55c.39.57.77,1.14,1.19,1.7h0l.19.27c.36.49.7,1,1.08,1.44l.41.51,1,1.23.38.45c.44.55.91,1.08,1.4,1.59h0c.45.51.91,1,1.4,1.5l.47.45c.36.36.72.74,1.12,1.1l.47.45c.49.46,1,.95,1.53,1.39h0l.27.24,1.4,1.18.57.47,1.19.91c.21.15.4.32.64.47l1.29,1,.49.32.12.11,1.28.85.55.36,2,1.23.55.31,1.51.83.82.42,1.06.58h.26l.44.21,1.7.8.36.15,2,.83.47.19,1.87.68h.23c.7.25,1.4.47,2.12.68l.51.17a19,19,0,0,0,2.12.59c46.64,8.48,60.29-28.07,60.29-28.07C99.86,93.34,79.61,97.26,60.38,92.9c-.7-.15-1.4-.39-2.12-.6l-.53-.15-2.12-.67-.3-.11-1.8-.68L53,90.5c-.68-.25-1.33-.53-2-.83l-.4-.15L49,88.74l-.49-.23-1.27-.64-.85-.44c-.53-.28-1-.58-1.55-.87l-.51-.3c-.68-.38-1.33-.81-2-1.21l-.55-.36-1.42-1-.47-.32-1.34-1L38,82l-1.21-1-.53-.42c-.53-.42-1-.85-1.5-1.27l-.19-.15L33,77.76l-.47-.43-1.12-1.12-.45-.44c-.49-.49-.95-1-1.4-1.49h0l-1.4-1.61-.38-.45-1-1.27-.36-.46c-.4-.51-.78-1-1.16-1.57-10.6-14.5-14.48-34.54-6-50.89" transform="translate(-4.93 0.67)"/><path class="cls-1" d="M41.87,16.13c-7,10-6.63,23.51-1.16,34.15a42.4,42.4,0,0,0,3.07,5.15,24.44,24.44,0,0,0,3.6,4.5c.49.55,1,1.08,1.57,1.63l.41.4L51,63.45h0c.61.53,1.23,1,1.88,1.54l.43.34c.63.49,1.29,1,1.95,1.42h0a9.23,9.23,0,0,0,.89.6l.4.27c.49.32,1,.6,1.47.89l.21.11c.4.25.85.51,1.27.72l.47.26.89.44H61c.62.32,1.23.59,1.85.87l.42.17,1.53.64.66.23,1.4.49.65.21a13,13,0,0,0,2.12.57c36.05,6,44.4-21.77,44.4-21.77-7.51,10.81-22,16-37.57,11.93l-2.12-.59-.61-.19-1.42-.49-.66-.25-1.53-.62-.4-.17L67.8,60.2l-1-.48-.53-.28c-.43-.21-.81-.45-1.21-.68l-.28-.17c-.49-.27-1-.57-1.44-.89L63,57.43l-1-.64c-.65-.45-1.29-.93-1.93-1.42-.17,0-.29-.23-.44-.34A43.33,43.33,0,0,1,44.88,34,32.56,32.56,0,0,1,47.43,7.9" transform="translate(-4.93 0.67)"/><path class="cls-1" d="M67.08,7.39a21,21,0,0,0-1.67,20.29A28.5,28.5,0,0,0,81.79,43l.89.32.41.12a12.08,12.08,0,0,0,1.27.36c19.93,3.86,25.31-10.22,26.78-12.27-4.75,6.8-12.72,8.48-22.46,6.06a17.69,17.69,0,0,1-2.35-.72,28.87,28.87,0,0,1-2.82-1.17,30.9,30.9,0,0,1-4.92-3c-8.73-6.63-14.14-19.27-8.48-29.55" transform="translate(-4.93 0.67)"/><path class="cls-2" d="M528.59,35.78l.79,3.31a1.31,1.31,0,0,1-.85,1.65,1.35,1.35,0,0,1-.49.06" transform="translate(-4.93 0.67)"/><path class="cls-2" d="M465.77,30.12c-.21.91-.44,2.12-.59,2.84l-6.89,32.25,7.25-33.93Z" transform="translate(-4.93 0.67)"/><polygon class="cls-2" points="254.34 52.37 250.54 65.85 254.34 52.39 254.34 52.37"/><path class="cls-2" d="M529.38,39.09l-2-8.48c-1.57-6.09-6-8.95-16-8.95h-42A2,2,0,0,0,467.32,23L451.4,98.7a5.28,5.28,0,0,0-.17,2.13c.13.48,2,.38,2.95.38h14.54a15.27,15.27,0,0,0,3.24-.13c.53-.23.79-1.65,1-2.61l5.17-26.56,6.36-29.37a2.29,2.29,0,0,1,2.12-1.71h41.58a1.34,1.34,0,0,0,1.39-1.28,1.09,1.09,0,0,0-.06-.44" transform="translate(-4.93 0.67)"/><path class="cls-2" d="M588.51,8.47H570.08a4.23,4.23,0,0,0-2.75,1.85L535,57.91c-.55.81-1.16.79-1.37-.17l-2.48-10.43A2.32,2.32,0,0,0,529,45.6H508.2a1.28,1.28,0,0,0-1.35,1.23,1.22,1.22,0,0,0,.08.5L516.25,80a7.76,7.76,0,0,1,0,3.39L512,100c-.23.93.36,1.21,1.36,1.21h20.52c1,0,2-.28,2.12-1.21l4.35-16.79a10.19,10.19,0,0,1,1.48-3l52.82-70c.59-.78.51-1.69-.45-1.69Z" transform="translate(-4.93 0.67)"/><path class="cls-2" d="M372,21.81H353.21c-1,0-1.95.34-2.12,1.27l-6.21,29-6.19,27.8c-.19.93-1.14.87-2.12.87H324.23c-12.19,0-10.79-7.72-8.29-19.28,0-.1,7.85-38.43,7.85-38.43.17-.94-.47-1.28-1.42-1.28h-17.9c-1,0-1.93.34-2.12,1.28l-7.21,38.41c-3.58,20.76-3.68,39,20.4,39.65h38c1,0,1.93-.34,2.12-1.27l8.17-38.5,8.27-38.61S372.3,21.81,372,21.81Z" transform="translate(-4.93 0.67)"/><path class="cls-2" d="M185,21.74H164.88c-.95,0-1.93.24-2.12,1.17l-3.62,15.71a1.32,1.32,0,0,0,.89,1.63,1.6,1.6,0,0,0,.49,0h19.27a2.41,2.41,0,0,0,2.12-1.81l3.5-15.83S185.68,21.74,185,21.74Z" transform="translate(-4.93 0.67)"/><path class="cls-2" d="M159.18,45.7a2.32,2.32,0,0,0-2.12,1.72l-2.71,12-6,27.69s-3.22,14.69-3.54,15.62c0,0-2.71,10.6-9.18,10.2a56,56,0,0,1-6.46-.89h0c-1.81-.55-1.93,1.34-2.12,2.27l-4,17.23a1.43,1.43,0,0,0,1,1.77,1.34,1.34,0,0,0,.4.06,133.91,133.91,0,0,0,14.84,1.21h1c15.12,0,23.11-8.89,28.2-33l6-27.95,5.6-26a1.38,1.38,0,0,0-1.32-1.82" transform="translate(-4.93 0.67)"/><path class="cls-2" d="M419.47,21.62c-33.92,0-41.94,20.92-46.43,41.66-4.5,21.2-4.11,37.86,30.91,37.86H436a2.38,2.38,0,0,0,2.12-1.82l3.45-13.42c.19-1-.44-1.23-1.4-1.23H408.64c-11.41,0-15.5-3.52-15.1-11.41,0-.89,1-3.18,2-3.18H444c2.12,0,2.12-1.27,2.12-1.27,4.94-22.28,5.26-47.19-26.78-47.19m8.93,33.22c0,1.06-3.31.85-3.31.85l-26.39-.19c-.91,0-1.17-1.28-1.23-2.12a8.36,8.36,0,0,1,.17-1.32c2.12-7.08,8.12-11.13,17.76-11.13,10.86,0,13.17,5.39,13.17,11.37" transform="translate(-4.93 0.67)"/><path class="cls-2" d="M273.18,79.33s9.48-23,11.62-36.36c2.94-17.81-6-43.64-40.41-43.64S195.26,24,189.58,50.81s1.76,50.52,35.81,50.33h52a2.44,2.44,0,0,0,2.12-1.69l4.39-16.69a1.31,1.31,0,0,0-.85-1.65,1.17,1.17,0,0,0-.49-.07h-8.48a1.07,1.07,0,0,1-1.19-1,1,1,0,0,1,0-.3,1.27,1.27,0,0,1,.11-.38m-17.9-14.14-3.9,13.34a2.5,2.5,0,0,1-2.33,1.57H228.74c-15.28,0-19.08-11.81-15.28-29.43,3.73-18,11.1-29.13,26.14-30.26,20.52-1.54,24.74,13,19.76,29.68Z" transform="translate(-4.93 0.67)"/></svg>