<svg id="svg2" xmlns="http://www.w3.org/2000/svg" xmlns:xlink="http://www.w3.org/1999/xlink" viewBox="0 0 516.82 150"><defs><style>.cls-1{fill:#646464;}.cls-2{fill:url(#名称未設定グラデーション);}.cls-3{fill:url(#名称未設定グラデーション_2);}.cls-4{opacity:0.44;isolation:isolate;fill:url(#名称未設定グラデーション_3);}</style><linearGradient id="名称未設定グラデーション" x1="85.76" y1="-151.99" x2="204.43" y2="-254.09" gradientTransform="matrix(0.56, 0, 0, -0.57, -51.21, -79.43)" gradientUnits="userSpaceOnUse"><stop offset="0" stop-color="#5a9fd4"/><stop offset="1" stop-color="#306998"/></linearGradient><linearGradient id="名称未設定グラデーション_2" x1="250.3" y1="-315.88" x2="207.93" y2="-255.93" gradientTransform="matrix(0.56, 0, 0, -0.57, -51.21, -79.43)" gradientUnits="userSpaceOnUse"><stop offset="0" stop-color="#ffd43b"/><stop offset="1" stop-color="#ffe873"/></linearGradient><radialGradient id="名称未設定グラデーション_3" cx="-1461.38" cy="235.54" r="31.61" gradientTransform="matrix(0, -0.24, -1.05, 0, 309.18, -208.24)" gradientUnits="userSpaceOnUse"><stop offset="0" stop-color="#b8b8b8" stop-opacity="0.5"/><stop offset="1" stop-color="#7f7f7f" stop-opacity="0"/></radialGradient></defs><g id="g2303"><path id="path46" class="cls-1" d="M194.87,63.86q0-23.78-13.56-24.43a25.43,25.43,0,0,0-10.53,1.73,15.58,15.58,0,0,0-5.53,2.91V81.91q8.69,5.45,15.4,5Q194.86,86,194.87,63.86Zm11.15.66q0,12.08-5.69,20a21,21,0,0,1-17.6,9.28q-8.49.27-17.48-5.3v34.39l-9.69-3.46V43.15a21.68,21.68,0,0,1,6.12-5q8.65-5,21-5.18l.14.14a19.3,19.3,0,0,1,17.44,9.28Q206,51,206,64.52Z"/><path id="path48" class="cls-1" d="M265.28,87.08q0,16.22-3.24,22.44t-12.43,10a47.57,47.57,0,0,1-16.06,3.19l-1.6-6.11a77.32,77.32,0,0,0,12.35-2.39c4.7-1.59,7.92-4,9.69-7.3,1.43-2.66,2.13-7.74,2.13-15.27V89.08a49.87,49.87,0,0,1-20.85,4.51,19.19,19.19,0,0,1-12.62-4.51,15.36,15.36,0,0,1-6.11-12.48V36.24l9.7-3.32V73.55q0,6.51,4.2,10c2.8,2.35,6.43,3.47,10.88,3.39s9.21-1.82,14.27-5.18V34.39h9.69Z"/><path id="path50" class="cls-1" d="M303.14,93.32c-1.16.1-2.22.14-3.19.14q-8.24,0-12.82-3.92t-4.57-10.86V40.49h-6.65v-6.1h6.65V18.19l9.68-3.45V34.39h10.9v6.1h-10.9V78.42q0,5.46,2.93,7.72,2.52,1.86,8,2.13Z"/><path id="path52" class="cls-1" d="M361.85,92.53h-9.69V55.1a17.65,17.65,0,0,0-2.67-9.83A9.68,9.68,0,0,0,341,40.62q-6.66,0-16.68,7V92.53h-9.69V3.06L324.27,0V40.75A33.81,33.81,0,0,1,344.59,34a16.18,16.18,0,0,1,12.48,5.18A18.26,18.26,0,0,1,361.85,52V92.53Z"/><path id="path54" class="cls-1" d="M413.4,62.33q0-9.13-3.46-15.1-4.11-7.26-12.75-7.67-15.94.93-15.93,22.84,0,10,3.33,16.77,4.26,8.58,12.8,8.45Q413.4,87.49,413.4,62.33ZM424,62.4q0,13-6.65,21.64-7.31,9.67-20.18,9.69T377.27,84q-6.51-8.64-6.5-21.64,0-12.23,7-20.59,7.44-8.88,19.52-8.89A24.63,24.63,0,0,1,417,41.81Q424,50.18,424,62.4Z"/><path id="path56" class="cls-1" d="M479.61,92.53h-9.7V53q0-6.49-3.91-10.16c-2.61-2.43-6.09-3.61-10.43-3.51a23.28,23.28,0,0,0-13.15,4.51V92.53h-9.69V42.61q8.37-6.09,15.4-8a47.35,47.35,0,0,1,11.69-1.73,30.11,30.11,0,0,1,6.51.67,18.72,18.72,0,0,1,9.29,4.91,13,13,0,0,1,4,9.56Z"/><path id="path1948" class="cls-2" d="M59.78,3.41a84.37,84.37,0,0,0-14,1.19C33.48,6.79,31.24,11.35,31.24,19.78V30.9H60.43v3.71H20.29C11.8,34.61,4.38,39.7,2.05,49.4c-2.68,11.12-2.79,18.06,0,29.67,2.08,8.64,7,14.79,15.52,14.79h10V80.53A18.54,18.54,0,0,1,45.83,62.4H75a14.71,14.71,0,0,0,14.6-14.83V19.78C89.58,11.87,82.9,5.92,75,4.6A91.76,91.76,0,0,0,59.78,3.41ZM44,12.36a5.56,5.56,0,1,1-5.48,5.58A5.53,5.53,0,0,1,44,12.36Z"/><path id="path1950" class="cls-3" d="M93.22,34.61v13c0,10-8.52,18.5-18.24,18.5H45.83A14.89,14.89,0,0,0,31.24,80.9v27.79c0,7.91,6.88,12.56,14.59,14.83a48.78,48.78,0,0,0,29.15,0c7.35-2.12,14.6-6.4,14.6-14.83V97.57H60.43V93.86h43.74c8.48,0,11.64-5.91,14.59-14.79,3-9.15,2.92-17.94,0-29.67-2.09-8.44-6.1-14.79-14.59-14.79ZM76.82,105a5.56,5.56,0,1,1-5.48,5.54A5.5,5.5,0,0,1,76.82,105Z"/><path id="text3004" class="cls-1" d="M498.5,25.74h1.7V15.08h4V13.81h-9.75v1.27h4V25.74m7.23,0h1.45V16l3.16,9.74H512L515.24,16v9.71h1.58V13.81h-2.09L511.14,24l-3.07-10.22h-2.34V25.74"/><path id="path1894" class="cls-4" d="M99.87,142.42c0,4.18-17.51,7.58-39.11,7.58s-39.11-3.4-39.11-7.58,17.51-7.59,39.11-7.59S99.87,138.23,99.87,142.42Z"/></g></svg>