<?xml version="1.0" encoding="utf-8"?>
<!-- Generator: Adobe Illustrator 24.1.1, SVG Export Plug-In . SVG Version: 6.00 Build 0)  -->
<svg version="1.1" id="レイヤー_1" xmlns="http://www.w3.org/2000/svg" xmlns:xlink="http://www.w3.org/1999/xlink" x="0px"
	 y="0px" viewBox="0 0 525.3 242.1" style="enable-background:new 0 0 525.3 242.1;" xml:space="preserve">
<style type="text/css">
	.st0{fill:#FFFFFF;}
</style>
<g id="base">
	<path class="st0" d="M66.4,66.9c-0.3-0.8-0.5-0.8-1-0.6c-1.2,0-2.4,0.3-3.4,1c0.1,0.2,0.3,0.3,0.5,0.4C63.7,67.4,65,67.3,66.4,66.9
		z"/>
	<path class="st0" d="M58.1,68.4c0.8,0,1.6,0,2.4-0.1c0.6-0.3,1-0.6,0.8-1s-0.5-0.5-1.1-0.3c-0.3-0.1-0.7-0.1-1,0
		c-0.9,0.3-1.7,0.3-2.2,1.3C57.4,68.4,57.8,68.5,58.1,68.4z"/>
	<path class="st0" d="M63.5,70.2c0.8,0.7,2,0.9,3,0.4c1-0.1,1.7-0.9,2.7-1.4c-0.8-1.5-0.9-1.5-2.4-1.7c-1.3,0.1-2.5,1-3.8,1.1
		C63.1,69.1,63.3,69.7,63.5,70.2z"/>
	<path class="st0" d="M173.1,60.7c-0.3-1.1-0.4-2.4-1.3-3.2c-0.5-0.1-0.8-0.6-1-1c-0.8-1-2-1.5-3.2-1.4c0.3,0.2,0.5,0.5,0.5,0.8
		c0.8,0.9,0.5,1.1-0.4,1.7c-0.4,0.1-0.9,0.1-1.1,0.8c0.4,0.3,0.9,0.6,1.3,0.9c-0.1,0-0.1,0.1-0.1,0.3h-1.1c-0.3,0.1-0.6,0.1-0.9,0.1
		c-1.4-0.1-2.5,0.1-3.7,0.1c-0.6,0-1.2,0-1.8,0.1c-0.9,0.3-1.3,0.3-1.7-0.3c-0.4-0.4-0.8-0.9-1.1-0.4c-0.6,0.6-1.8,0.6-2.9,1.1
		c-1,0.3-1.3,0.3-1-0.9c0-0.8-0.5-1.1-1-1.4c-0.5-0.4-1.1-0.6-1.7-0.6c-1,0.8-1.1,0.8-2.7,0.4c0.5-0.5,0.9-1,1.3-1.5
		c-0.6,0-1.3,0.1-1.9,0.3c-0.2,0.2-0.4,0.6-0.4,0.9c0,0.5,0.6,1.1,1.3,1.3h1.9c0.3,0,0.6,0.3,0.9,0.3c0.3,0.1,0.5,0.3,0.6,0.6
		c-0.5,0.8-1.9,1.7-2.7,1.4c-0.8-0.1-1.5-0.3-2.2-0.6c-0.2,0.2-0.4,0.4-0.6,0.5c-0.5,0.3-1.1,0.1-1.4-0.4c0,0,0-0.1,0-0.1
		c-0.4-0.8-1-0.6-1.7-0.4c-0.8,0.4-1.4,0.5-0.4-0.1c-0.5,0-1,0.2-1.4,0.5c-0.5,0.2-1,0.3-1.5,0.4c-1.1,0.1-2.5,0-3.3,0.9
		c-0.1,0-0.3,0.1-0.4,0h-1.8c0.3,0,0.5,0,0.8-0.1c-3.6-0.1-2.9-0.1-2.2,0.1h1.3c-1.3,0-2.4,0-3.8,0.1c-0.1,0.9-0.3,1.5-1,1.4
		s-0.6-0.8-0.9-1.1c-0.4,0.3-0.5,0.4-0.6,0.6c-0.5,0.5-1.2,0.6-1.8,0.5c-0.6-0.1-1.1-0.1-1.7,0c-1.9,0.4,0.8,1.1-1.1,0.6
		c-0.3-0.1-0.6,0-0.9-0.1c-0.5,0-0.8,0.1-1.1,0.1c-0.7-0.1-1.3,0-1.9,0.4c-0.6,0.2-1.3,0.3-1.9,0.3c-1-0.2-1.9-0.2-2.9,0
		c-0.5,0.3-1-0.1-1.4-0.6c1.1-1.4,1.9-2.8,3.6-3.3c-0.4-0.4-0.5-0.8-0.9-1c0.4-0.5,0.4-0.5,0.9-0.6c0.8-0.1,0.8-0.4,0.5-1
		c0-0.3-0.3-0.4-0.5-0.6c0.2-0.2,0.3-0.5,0.4-0.7c-0.9-0.1-1.7-0.4-2.4-1c-0.4,0.5-0.9,0.9-1.4,1.2v0.1c-0.4,0.7-0.9,1.3-1.4,1.9
		c-0.1,0-0.4,0-0.4,0.1c-0.1,0.8-0.4,1.6-0.9,2.3c-0.5,1.4-0.5,1.4-2,1.5c-0.4,0-0.6-0.3-1,0.4c0.7,0.1,1.5,0.1,2.2,0.1
		c0,1-0.6,1.8-1.5,2.2c-0.6,0-1.2,0.1-1.8,0.3c-0.5,0.1-1,0.5-1.5,0.5c-0.7,0-1.5,0-2.2-0.1c-0.8,0-1.7,0.1-2.4,0.5
		c-0.5,0.5-1.2,0.9-1.9,0.9C96.9,68,94.9,68,93,67.8c-1,0-2,0.2-3,0.4c-1.4,0.5-3,1.3-4.6,0.5c-0.8-0.4-1.5,0.1-2,0.8
		c-0.6,0.8-1.5,1.1-2.5,1c-0.3,0-0.5,0-0.8,0.1c-0.8,0.3-1.6,0.4-2.4,0.1c-1-0.1-1.9-0.1-2.9,0c-1.9,0.3-3.8,0.7-5.6,1.3
		c-2,0.5-4,0.8-6.1,1c-0.5,0-0.9,0-1.4,0.1c-1.7,0.3-3,0.8-4.6,1.1c-0.5,0.1-1.3,0-1.8,0.1c-0.8,0.3-1.6,0.5-2.4,0.4
		c-0.3-0.2-0.8-0.2-1.1,0c-1.1,0.6-2.4,1.1-3.6,1.4c-0.8,0.1,4.4-1.5,3.8-1.9c-0.2-0.3-0.3-0.7-0.3-1.1l-3,0.9
		c0.1-0.1,0.1-0.3,0.1-0.5c0-0.1,0.3-0.3,0.3-0.3c2.3-0.3,2.3-0.3,2.5-0.8c-0.4-0.1-0.9-0.1-1.1-0.3c-0.1-0.3-0.3-0.5-0.6-0.6
		c0.8-0.1,1.4-0.3,1.8-0.3c-0.1-0.1-0.1-0.3-0.3-0.3l0.3-0.6c0.4,0.1,0.5,0.5,0.8,0.9c0.8,1.4,1.8,1.7,3.2,0.8
		c-0.1-0.5-0.5-1.3-0.9-1.3c-0.8,0.1-1.6-0.5-1.8-1.3c-0.2-0.6-0.9-0.9-1.5-0.6c-0.2,0.1-0.4,0.2-0.5,0.4c-0.2,0.3-0.2,0.7,0.1,1
		h-1.3c-1.4,0.3-2.8,0-4.4,0.6c-0.9,0.9-2.3,0.9-3.4,1.3c-0.1,1.1,1.4,0,1.4,1.1C42.8,73.5,42,73.6,41,74c0.1-0.2,0.1-0.3,0-0.5
		c-0.1-0.5-0.1-0.8-0.6-0.8c-0.3,0.1-0.6,0.3-0.8,0.6c-0.3,0.5-0.9,0.8-1.5,0.8c-0.5,0-1.1-0.1-1.7-0.1c-0.2,0-0.4,0-0.6-0.1
		c-3,1-5.8,2.3-8.6,3.7c-0.1,0.1-0.3,0.5-0.5,0.8c-1.2,1.1-2.4,2.1-3.7,3c-0.5,0.5-0.9,1.2-1.1,1.9c-0.7,3.5-0.3,7.2,1,10.5
		c0.6,1.9,1.9,3.8,2.7,5.7c1.3,2.9,3.3,5.6,5.7,7.7c0.2,0.2,0.4,0.4,0.5,0.6c0.5,0.5,1.1,0.9,1.8,1.3l4.3,1.8
		c1.4,0.4,1.8,0.3,2.7-1.3c0.7-0.8,0.6-2-0.2-2.6c-0.1-0.1-0.3-0.2-0.4-0.3c-1.7-0.6-2.9-2-4.1-3c-2.2-2.4-4.3-4.9-6.2-7.6
		c-0.5-0.8-1.1-1.9-1.8-3c-0.6-0.6-0.6-1.5,0-2.1c0,0,0.1-0.1,0.1-0.1c0.9-0.6,1.7-1.8,3-1.9l0.8-0.5c1.3-1.8,3.2-2.3,4.6-3.3
		c1.1-0.6,2.3-1.1,3.6-1.4c0.5-0.3,1.1-0.4,1.8-0.8c0.6-0.2,1.3-0.4,1.9-0.6c0.6-0.3,1-0.4,1.4-0.6c1.7-0.7,3.5-1.3,5.3-1.8
		c1.3-0.4,2.3-0.6-2.3,0.4c1.1-0.4,2.3-0.9,3.8-1.3c0,0,0.3,0,0.3-0.1c1.1-0.1,2.1-0.3,3.2-0.5c2-0.6,4.2-1.3,6.4-1.8
		c1.7-0.4,3.2-0.6,5.1-1c0.4,0,0.9,0,1.1-0.3c1.1-1,2.7-1,4.2-1.1l3.4-0.4c0.8-0.1,1.4-0.4,2-0.5c1.8,0,3.7-0.4,5.3-1.3
		c0.3,0,0.5,0,0.8-0.1c0.3,0,0.6,0,0.9,0c1.7-0.1,3.4-0.8,5.1-1c0.6,0,1.2-0.1,1.7-0.3l1-0.3c0.8,0,1.6-0.1,2.4-0.3
		c1.3-0.3,2.7-0.3,3.8-0.6c1.2-0.3,2.5-0.5,3.8-0.5c1.1,0,2-0.3,3-0.3c0.9-0.3,1.8-0.2,2.7,0.1c-0.1,0-0.1,0-0.1,0.1
		c0.5-0.2,1.1-0.2,1.6-0.2c0.2,0,0.5,0,0.7,0.1c0.2-0.1,0.5-0.3,0.7-0.4c0.6-0.7,1.5-1.1,2.5-1.2c1-0.1,1.9-0.1,2.9-0.1
		c2.5-0.4,12.4-2,13.8-2c0.8-0.1,2-0.5,3-0.6c1.9-0.1-0.8,0,1-0.3c0.8-0.2,1.7-0.3,2.5-0.3c0.7-0.1,1.3-0.2,2-0.3
		c0.3,0,0.5,0.1,0.9,0.1c1.9,0,3.8-0.1,5.6-0.5c1.3,0,2.6-0.1,3.8-0.4h0.4c1.5,0.1,2.9,0,4.4-0.1c0.8,0.2,1.6,0.2,2.4,0.1
		c1.7,0,3.3-0.1,5.1-0.1c2.4,0.1,4.6,0.4,6.7,0.4l3.2,0.5c1.5,0.4,2.3,0.3,2.5-1.1C173.6,61.8,173.1,61.3,173.1,60.7z M45.2,73
		c-0.1-0.2-0.1-0.3-0.1-0.5c0-0.1,0.1-0.1,0.3-0.3c0,0.1,0.1,0.3,0.1,0.4S45.4,72.8,45.2,73z M47.1,72.3c0.4-0.9,0.5-1.1,2-0.6
		c-0.3,0.1-0.6,0.2-0.9,0.3c-0.3,0.1,0.4,0,1-0.3l0.3,0.1C48.9,72.4,47.9,72.6,47.1,72.3z"/>
	<path class="st0" d="M58.5,71.6c0.3-0.4,0.7-0.7,1.1-1c0.1-0.2,0.1-0.4,0.1-0.6c-0.6-0.5-1,0.1-1.5,0.3s-1.3,0-1.9,0
		c-0.2,0.6-0.1,1.2,0.3,1.7C57.3,72.1,58,72,58.5,71.6z"/>
	<path class="st0" d="M138.4,55.7c2.5-0.3,3.4-0.6,6.2-0.8c0.1,0,0.3-0.1,0.4-0.1c0-0.1,0-0.2,0.1-0.3c-0.3-0.1-0.6-0.2-0.9-0.3
		c-2.5,0.3-3.7,0.1-6.5,1C138.1,55.6,138.3,55.7,138.4,55.7z"/>
	<path class="st0" d="M146.8,55.1c1,0.1,1.9,0,2.8-0.5c-0.8-0.2-1.7-0.3-2.5-0.3H147l-0.6,0.4c0,0.1,0,0.1,0.1,0.1l0,0
		C147.4,54.9,145.8,55.2,146.8,55.1z"/>
	<path class="st0" d="M408.5,111.3c-1,1.1-1.6,2.5-1.7,3.9C407.9,114.2,408.5,112.8,408.5,111.3z"/>
	<path class="st0" d="M152.7,54.9c1.9-0.2,3.9-0.2,5.8,0.1c0.3,0,0.5,0,0.8-0.1l1.5-0.4l-0.3-0.3c-0.4-0.1-0.7-0.1-1.1-0.1
		c-2.5-0.1-5.3-0.1-8,0c-0.2,0.1-0.4,0.3-0.5,0.5C151.6,54.9,152.4,55.1,152.7,54.9z"/>
	<path class="st0" d="M89.8,63.4c-0.1,0-0.1,0.4-0.3,0.8c1.5-0.3,3,0.3,4.2-0.8C92.2,62.9,91,63.3,89.8,63.4z"/>
	<path class="st0" d="M76.3,67.6c0.4,0.1,0.6,0.6,0.8,0.6c0.6,0,1.4,0,1.5-0.5c0.6-0.7,1.4-1.1,2.3-1c-0.6-0.6-1.1-1.3-1.4-2
		c0.5-0.4,1.2-0.6,1.8-0.6c0.8,0,1.6-0.1,2.3-0.4c0.1-0.1,0.1-0.6,0.3-0.6c-0.3-0.1-0.4-0.3-0.6-0.3s-0.3,0.1-0.4,0.1
		c-1.8,0.7-3.8,1-5.7,1c-0.3,0-0.5,0.3-0.8,0.3c0.1,1.3,1.3,0.5,1.9,0.5C77.6,65.7,77.4,66.9,76.3,67.6z"/>
	<path class="st0" d="M101.3,60.9c0.6-0.3,1.2-0.5,1.9-0.4c0.4,0,0.8-0.1,1.1-0.3c0,0,0-0.3-0.1-0.4c-0.4,0-0.8-0.3-1.1-0.3
		c-1.4,0.4-2.9,0.5-4.3,0.8c-0.6,0.1-1.1,0.4-1.5,0.8c0.4,0.4,0.6,0.5,0.9,0.5C99.2,61.3,100.3,61,101.3,60.9z"/>
	<path class="st0" d="M94.5,61.7c-1.4-0.6-2.9-0.1-4.4,0.5C91.7,62.8,92.9,62.2,94.5,61.7z"/>
	<path class="st0" d="M389.7,139.3c-0.1-0.3,0.3-0.5,0.5-0.5c1-0.1,1.1-1.1,1.9-1.4c0.3,0,0.1-0.3,0-0.4s-0.3,0.3-0.3,0.1
		c-0.3-0.5,0.4-1.3,1.1-1.4c0.4,0.1,0.6-0.1,0.8-0.6c0.1-0.3,0.3-0.5,0.6-0.6c0.3-0.1,0.1-0.4-0.5-0.6c1.9-2.3,3.5-4.8,4.8-7.5
		c-1-0.1-0.8,0.8-1.1,0.9c-1.1,0.9-1.4,2.3-2.4,3.3c-0.4,0.1-0.6,0.3-1,0.1c0,0.4,0.4,0.6,0.1,0.9c-0.3-0.4-0.4-0.5-0.8-0.3
		s-0.4,0.4-0.3,0.5c0.5,0.4,0.6,0.1,0.9-0.1h0.1c-0.1,0.4-0.4,0.8-0.8,1c-0.3,0.5-0.3,1.3-0.8,1.7c-0.8,0.8-1.6,1.8-2.2,2.8
		c-0.3,0.7-0.8,1.3-1.4,1.7c-0.6,0.4-0.6-0.6-1.1-0.4c0.4,0.4,0.5,1,0.1,1.4c-0.1,0.1-0.3,0.2-0.4,0.3c0-0.4-0.3-0.6-0.3-1
		c-1,0.8-1.8,1.8-2.5,2.9c-0.9,0.5-1.5,1.7-2.4,2.2c-0.3,0.3-0.3,0.5,0,0.9c0.1,0.5-0.6,1.3-1.1,1c-0.4-0.1-0.5-0.3-0.8,0
		c-1.5,1.8-3.4,3-5,4.8c-0.1,0-0.2,0.1-0.3,0.1c-1.8,0.8-3.2,1.9-5,2.7s-3.3,1.9-5.3,2c-2.3,0.3-4.7,0.8-7.1,0.4
		c-1.6-0.1-2.9-1.4-3-3c-0.1-1-0.4-1.9-0.8-2.8c-0.4-0.6-0.2-1.3,0.3-1.7c0.4-0.4,0.5-0.8,0.3-1.1c0-0.5-0.1-0.8-0.1-1.1
		c-0.1-2.4,0.8-4.4,1.3-6.6c0.1-0.6,0-1.3,0.4-1.8c1-1.1,1.1-2.8,1.7-4.2c1.1-2.4,2.4-4.8,3.4-7.1c0.1-0.1,0.1-0.5,0.5-0.5
		s0.1,0.3,0.3,0.5c0.5,1.6,2,2.6,3.7,2.5c3.4,0.1,6.1-1.3,8.6-3.3c1.3-1,2.4-2.4,3.9-3.4c1-0.9,1.9-2,2.7-3.2c1-1.1,1.9-2.5,2.8-3.6
		c1-1.3,1.9-2.7,2.7-4.1c0.3-0.4-0.1-0.8,0.3-1.1c1.5-1.5,2.2-3.6,2.9-5.6c0.5-1.4,0.4-2.5,1.1-3.8c0.4-0.6,0-1.3-0.5-1.8
		c-1.3-1-2.8-1.8-4.4-2.3c-2.4-1-5.1-1.8-7.7-1.1c-2.8,0.4-5.4,1.6-7.5,3.4c-0.4,0.3-0.8,0.8-1.1,1c-2,1.7-3.8,3.6-5.5,5.7
		c-1.5,2.2-3.2,4.3-4.8,6.4c-1.1,1.4-2,2.8-2.9,4.3c-1.3,3-3.2,6-4.2,9.1c-1.3,3.7-3,7.2-3.7,11c-0.5,2.2-0.7,4.5-0.6,6.7
		c0.3,3.3,1.2,6.5,2.7,9.4c0.9,1.9,2,3.7,4.2,4.3c1.4,0.6,2.5,1.8,3.8,2.3c1.3,0.6,2.7,0.8,4.1,0.8c1.3-0.1,2.3-0.6,3.6-0.3
		c0.3,0.1,0.7,0,0.8-0.3c0.6-0.1,1.1-0.8,1.8-0.5c0.5,0.1,1.1,0,1.5-0.3c1.8-0.4,2.9-1.8,4.7-2.2c0.1,0,0.3-0.3,0.4-0.3
		c0.6-0.6,1.7-0.6,2-1.4c1.1,0.6,1.1-0.5,1.4-1c0.1-0.5,0.4-1,0.8-1.3c0.5-0.4,1.1-0.6,1.7-1c0.5-1,1.1-2,1.8-2.9
		c0.3-0.3,0.5-0.6-0.1-0.8c0-0.6,0.1-1.3,0.3-1.9c0.1,0,0.4-0.3,0.6,0.1c0.1,0.6,0.4,0.1,0.6-0.1c0.6-0.6,0.8-1.9,1.7-2.2
		s1.3-1.3,1.7-1.9c0-0.2,0.1-0.4,0.3-0.5C388.8,141.3,390,140.8,389.7,139.3z M365.9,119.3c0.5-0.6,0.8-1.3,1.3-1.9
		c0.9-1.3,2.2-2.5,3-3.9s2.4-2.3,3.2-3.9c1-1.5,2.3-2.8,3.9-3.7c2.2-1.4,4.6-2.5,7.2-3.2c0.8-0.3,0.9-0.1,0.8,0.8
		c-1,3.1-2.4,6-4.1,8.8c-1.6,2.7-3.4,5.2-5.5,7.5c-1.3,1-2.4,2.2-3.7,3.3c-1.3,1-2.7,1.9-4.1,2.7c-0.7,0.4-1.5,0.6-2.3,0.6
		c-0.9,0-2.3-1-2.3-1.7C363.6,122.6,364.5,120.7,365.9,119.3z M384.5,143.2c-0.1-0.1-0.1-0.2-0.1-0.3c0.1-0.2,0.3-0.3,0.5-0.3
		C384.9,143.1,384.8,143.2,384.5,143.2z"/>
	<path class="st0" d="M126.2,142.2c-0.5,0.8-1.3,1.5-2.2,1.8c-1.3,0.6-2.5,1.3-3.6,2.2c-0.4,0.5-0.9,0.8-1.4,1
		c-0.2,0-0.4,0.3-0.3,0.5c0,0,0,0.1,0,0.1c1-0.4,1.9-0.9,2.7-1.5c1.3-0.8,2.5-1.5,3.7-2.4c0.9-0.6,1.7-1.2,2.4-2
		c-0.6-0.1-0.1-0.4-0.1-0.6C126.8,141,126.3,141.7,126.2,142.2z"/>
	<path class="st0" d="M345.9,96.3c0.2-0.5,0.5-1,0.9-1.4c0.1-1.4,0.5-1.7,1.8-1.8c-0.3-0.4-0.6-0.5-0.6-0.8c0.3-1-0.4-1.1-1.5-0.8
		c0.1-0.4,0.3-0.7,0.6-0.9c0.4,0.1,0.9,0.1,1.3,0.1c0.4-0.3,0.5-0.9,0.8-1.4c0.7-0.4,1.4-0.8,2.2-1.1c-0.6-0.8-0.4-1.4,0.9-2
		c-0.4-0.1-0.5-0.3-0.5-0.5h0.3c0.3-0.1,0.3-0.6,0.5-0.8c0-0.4,0.2-0.7,0.5-0.9c0.4,0.1,0.8,0.2,1.1,0.5c0.8,0.6,1.3,0.6,1.9-0.3
		c0.5-1.1,0.8-2,1.3-3c0.4-0.5,0.9-1,1.4-1.4h-0.5c-0.2-0.8-0.5-1.6-0.8-2.4c0.2,0,0.3-0.1,0.4-0.3c-0.4-0.6-0.3-0.9,1.7-1.4
		c-0.1,0.4-0.1,0.9-0.1,1.3l-0.1,1.3c1.9-1.1,2-2.2,1.7-3.2c0.4,0.1,0.7,0.1,1.1,0.1c1.3-1.3,1.3-1.4,0.9-1.9
		c-0.3,0-0.6,0.1-0.9,0.3c-1.1-0.9-1-1.3-0.9-1.8c1-1.5,2.6-2.5,4.3-3c-0.7,1.5-1.6,2.8-2.7,4.1L363,73c4.6-4.3,9-8.6,13.5-13v-0.1
		c-1.3,0.9-2.4,1.5-3.4,2.3c-0.3-0.5-0.6-1-0.4-1.4c0.6-0.5,1.3-0.9,1.8-1.3c1.5-1,3.6-2,5.1-3.2c1.7-1.3,2.9-2.5,6-2
		c-0.8-1-1-1.9-2-2.3c-1.6-0.8-3.5-1-5.2-0.5c-1.6,0.2-3.1,0.5-4.6,1.1c-1.1,0.2-2.2,0.6-3.2,1.1c-3,1.8-5.8,4-8.3,6.5
		c-3.2,3.1-6,6.6-8.4,10.3c-0.9,1.6-1.9,3.1-3,4.6c-1.2,1.4-2.2,2.9-3,4.6c-0.6,1.1-1,2.2-1.4,3.3c-0.5,1-1.4,1.9-1.9,2.9l-3.9,7.5
		c-1.5,3.4-3.4,6.6-5.1,10.2c-0.6,1.4-1.4,3-2.3,4.7c-1,2.3-1.9,4.7-2.7,7.1c-1.3,2.9-2.2,5.7-3.2,8.6l-0.8,1.1
		c-0.4,1.5-0.1,3-1.9,4.3h0.3c0,0.5-0.1,1-0.3,1.5c-0.4-0.1-0.5-0.1-0.5-0.3c-0.5-1.4-0.9-2.9-1.1-4.4c-0.3-1-0.4-2-0.3-3
		c0-0.4,0.1-0.8-0.1-0.9c-1.5-1.4-1.3-3.4-1.9-5.1c-0.1-0.4-0.5-1-0.6-1.5c0.6-0.5-0.1-1-0.4-1.8c-0.5-1.7-0.6-3.4-1.4-5
		c-0.1-1.3-0.5-2.3-0.6-3.6c-0.2-0.6-0.4-1.3-0.6-1.9c-0.3-1-0.9-1.9-1.3-3.3c-0.4-1,0.1-2.2-0.8-3.2c0,0-0.4-0.4,0-0.4
		c0.1-1.7-0.8-3.2-1.3-4.6c-0.5-0.9,0-2-1.3-2.9l0.3-0.4c-0.3-0.1-0.3-0.5-0.4-0.6c-0.2-0.3-0.5-0.6-0.8-0.8c0.5-0.4,1-0.6,1-0.9
		c0.1-0.5-0.3-1.1-0.5-1.7c-0.5-1-1-2.1-1.3-3.2c-0.4-0.9-0.6-1.9-0.8-2.9v-1.3c-1-0.5-0.4-1.5-0.9-2.4c-0.4-1.9-0.5-3.8-0.9-5.8
		s-1.1-3.8-1.7-5.8c-0.2-1.9-1.5-3.5-3.3-4.1c-1.9-1-4.2-0.9-6.1,0.1c-0.9,0.9-2.3,1.3-3.6,1.1c-0.4-0.4-0.8,0.1-1,0.3
		c-0.7,0.5-1.4,1-2.2,1.3c-0.8,0.1-1.3,6.1,1.4,5.7c1.1-0.1,1.7,0.3,1.8,1.3c0.4,1.5,1,3,1.7,4.4c0.6,1.7,1,3.3,1.7,5.1
		c0.7,1.6,1.3,3.2,1.8,4.8c0.1,0.9,0.5,1.7,1,2.4c0.5,1.1,0.6,2.7,1.3,3.7c0.9,1,0.4,2.3,0.5,3.3c0,0.3,0.1,0.7,0.3,0.9
		c-1.9,0.5-1.4,2-1.9,3c0.5,0,0.9,0.3,1.7,0.3c-0.2-0.4-0.3-0.9-0.3-1.4c-0.1-1,0.5-1.4,1.7-0.9c0.1,1.3,0.8,1.5,1.8,1.4
		c0.1,0.4,0.3,0.5,0.3,0.9c-0.4,0-0.8-0.1-1.1-0.3c0.3,0.3,0.4,0.7,0.5,1.1c-0.7,0.5-0.8,1.5-0.3,2.2c0.2,0.2,0.4,0.4,0.7,0.5
		c0.3,0.3,0.3,0.6,0.5,0.8l-0.1,1c0.6,0.1,0.5,0.5,0.5,1c-0.1,0.9,0.5,1.7,1.3,1.9c-0.1-0.3-0.1-0.6-0.5-0.8
		c0.4-0.3,0.4-0.3,0.5-0.3c0.3,1,0.6,2.3,1,3.3h-0.5c-0.1-0.4-0.6-0.6-0.8-1c-0.2,0-0.4,0-0.6,0.1c-0.4-0.1-0.4-0.6-0.5-1
		c0,1.9-0.3,3.7,2.2,4.8c0.3-0.6,0.1-1.3-0.5-1.6c-0.3-0.1-0.6-0.2-0.9-0.1c0-0.5,0-0.9-0.1-1.4c0.6,0.3,1.1,0.3,1.7,0.6
		c0.1,0.3,0.6,0.4,0.6,0.8c0.2,0.6,0.3,1.1,0.4,1.7c0,0.8,1.3,1.7-0.5,2.2c-0.3,0-0.3,0.1-0.3,0.4c0.5,1.1,0.6,2.2,1,3.3
		c1.9,0,1.3-0.3,1.7,1.8c-0.4-0.1-0.5-0.5-0.8-0.6c-0.3-0.5-0.4-0.5-0.6-0.6l-0.3,0.1c0.8,0.9,0.4,2.3,1.9,2.4h0.4
		c-0.1,0.8-0.1,1.6,0,2.4c0,0.1,0,0.1-0.1,0.1c-0.4,0-0.5-0.1-0.6-0.3c-0.4,0-0.4,0-0.5,0.1c1.1,1.8,2.5,3.4,3,5.5
		c0.3,2.2,1.3,4.1,1.8,6.4h-1c0,0.2,0.1,0.4,0.3,0.4c0,0,0.1,0,0.1,0c1.7,0.1,1.5,1.3,1.7,2.2c1.8,6,3.4,12.2,3.9,12.3
		c-1.7,0-0.6,0.9-3.2-4.6c-0.1-0.5-0.2-0.9-0.4-1.4c-0.5-1.7-1.1-3.3-1.5-5c-0.4-0.8-0.7-1.6-1-2.5c-0.1-0.5-0.6-1,0.1-1.4
		c-0.6-0.5-0.9-1.1-1.9-2v1c0.7,2.7,1.5,5.4,2.4,8c0.5,1.8,1.1,3.6,1.8,5.3c0.4,1,3.4,8.4,3.2,9.4c0.8,2.2,1.7,4.3,2.7,6.3
		c0.1,0.4-0.1,0.9,0.1,1.3c0.7,0.6,1,1.6,0.9,2.5h0.9v-0.5c0.1-0.3,0.4-0.4,0.8-0.8c0.1,0.3,0.3,0.4,0.6,0.5c0,0,0,0.3,0.1,0.3
		c0.4-0.3,0.5-0.5,0.5-0.8c0.5,0.2,1,0.4,1.5,0.4c0.5,0.1,0.9,0.1,1.4,0.1c0.9,0.8,2.5,0.4,3.6-0.1c0.7-0.5,1.5-1,2.3-1.3
		c1.3-0.4,1.8-0.8,1.4-1.7c-0.6-1.1-1.3-2.2-3.3-5.8c-0.8-1.3-1.5-2.7-1.9-4.2c-0.6-1.7-1.3-3.6-2.2-5.6c-0.1-0.8-2.2-7.2-1-7.7
		c-0.3-0.4-0.6-0.7-1-0.9c1.4-0.3,2-0.8,2-1.8c-0.6-0.4-1.9,0-1.7-1.4c0.4,0.3,0.9,0.6,1.3,0.9l0.3-0.3c-0.4-0.6-0.9-1.2-1.4-1.7
		c0.9-0.1,1.7-0.3,2.5-0.8c0.6-0.9,0.5-0.9-0.8-1.1c-0.9-0.3-1.8-0.6-2.9-0.9c1.9-0.1,3.6,0,5.1,0c0.4-1.4-1.8-0.6-1.9-1.8
		c1,0.3,2,0.5,3,0.6c-0.9-1.1,0.1-4.8,1.5-5.5c-0.3-0.2-0.7-0.4-1.1-0.4c0.6-0.3,1.3-0.4,2-0.5c-0.8-1.3-3.3-1.4-2.9-3.2
		c0.7,0.4,1.5,0.7,2.3,1c0-0.6,0.4-1.4,0.1-1.7s-1.4-0.4-2-0.5c0.2-0.6,0.4-1.2,0.6-1.8c0.1,0.1,0.2,0.3,0.3,0.5
		c0.8,1,1.1,1.3,2.4,0.4c0.5-0.3,1-0.8,0.8-0.9c-0.2-0.5-0.7-0.8-1.3-0.8c-0.9,0-2,0.3-3.3,0.4c0.1-0.6,0.3-1.2,0.6-1.7l0.1,0.1
		c0.4,0.1,0.4,0.5,0.4,1c0.6,0,1.3,0,1.9-0.1c-0.3-0.2-0.6-0.5-0.9-0.8c0.3,0.1,0.3-0.1,0.3-0.1c0.7,0.6,1.7,0.8,2.6,0.5
		c0.5,0,0.5-0.5,0.6-0.9c-0.1-0.3,0.1-0.7,0.3-0.9c0.4-1.5,0-1.9-1.9-2.3l-0.5-0.1v-0.1c1,0,1.7,0.1,2.3,0.1c0.6,0,1.2-0.1,1.7-0.4
		l0.1-1c-0.7,0-1.3,0.1-1.9,0.4c0.1-1.4,1-0.5,1.5-0.5c0.4-0.4,0.5-0.8,0.9-1.1c-1.4,0.1-2.2,0.1-3.4,0.1c0.3-0.3,0.5-0.7,0.6-1.1
		c0.3-0.6,0.9-0.9,2-0.6v1.1c0.8-0.3,1.7-0.6,1.9-1l0.1-1.3c-0.8,0.3-1.6,0.6-2.4,0.8c0.4-0.5,0.9-1,0.9-1.4c0-0.1-0.3-0.4-0.3-0.5
		c-0.4,0.1-0.8,0.2-1.1,0.5c0.3-0.4,0.5-0.9,0.6-1.4c0.5,0.3,1,0.5,1.5,0.6h-0.8c0.3,0.4,0.6,0.8,0.9,1.1c0.9,0,0.8-0.5,0.6-0.9
		c0-0.3,0-0.4,0.1-0.4c0.6-0.8,0-1-0.8-1.1h-3.3c0.4-0.7,0.8-1.4,1.3-2h0.1c-0.3,0.4-0.4,0.8-0.3,1.3c0.3,0,0.3,0,0.5,0.3
		c0.1-0.4,0.2-0.8,0.5-1.1c0.3,1.3,2.2,1.8,3.4,0.9c0-0.6-0.1-1.4-1.4-1.4c0.4-0.2,0.8-0.3,1.3-0.4c0.6,0,1.3,0,1.9-0.1l-1.4-0.8
		c0.2-0.1,0.3-0.1,0.5-0.1c0.4-0.3,0.9-0.6,1.3-0.9c-0.4-0.1-0.6-0.4-1-0.5c-0.4-0.1-0.7-0.3-1-0.5c0.8-0.9,1.4,0.1,2,0
		c1.5-0.3,0.8,0.6,0.9,1.3c0.5-0.7,1-1.5,1.4-2.3C346.5,96.6,345.8,97.4,345.9,96.3z M371.7,62.4c0.1,0.3,0.1,0.3,0.5,0.4
		c-1,0.9-2.4,2-3.3,2.9l-0.4-0.1C369.3,64.3,370.7,63.6,371.7,62.4z M349.1,87.6v0.8c-0.8,0.1-1.6,0.2-2.4,0.3
		C346.8,87.1,346.8,87.1,349.1,87.6z M306.9,98.2c0.1,0,0.1-0.1,0.5-0.1c0.6,0.7,0.6,1.8-0.1,2.5C307.1,99.8,307,99,306.9,98.2z
		 M308.4,105.9c-0.2-1.3-0.5-2.6-0.9-3.8c0.4,0,0.4-0.1,0.5-0.1c0.6,1.1,0.5,2.4,0.9,3.8C308.7,105.7,308.7,105.9,308.4,105.9z
		 M310,109.8c0.1,0.4,0.6,0.8,0.5,1.1c0.3,0.5,0.6,1.1,0.6,1.7C310.4,112.1,310,111.8,310,109.8L310,109.8z M311.1,113.7
		c0.4,0.5,0.7,1,0.9,1.5C310.7,115.1,310.7,114.9,311.1,113.7L311.1,113.7z M311.5,116.9c0.5,0,0.5,0,0.6-0.1
		c0.4,0.5,0.5,1.1,0.3,1.7c0.2,0.7,0.5,1.4,0.9,2C312.4,120.5,311.4,118.6,311.5,116.9L311.5,116.9z M315.3,131.3l-0.9-3.6h0.6
		c0.1,1,0.5,2.3,0.6,3.3C315.4,131,315.4,131.3,315.3,131.3L315.3,131.3z M320.1,151.1h0.5c0,0.5,0,1,0.1,1.5
		C319.4,152.1,319.6,151.6,320.1,151.1z M327.9,135.3c0,0.1,0,0.4,0.1,0.5c-0.5,0.2-0.9,0.4-1.4,0.5c0-0.2-0.2-0.5-0.4-0.5
		C326.7,135.7,327.2,135.5,327.9,135.3L327.9,135.3z M330.8,118.1c0.1,0,0.1,0.3,0.5,0.3c-0.5,0.7-1,1.5-1.3,2.4
		c-0.1-0.1-0.1-0.1-0.5-0.1C329.9,119.7,330.7,118.9,330.8,118.1L330.8,118.1z M330.3,128.2c-0.3-0.8-0.8-0.9-1.8-0.8
		c-1.1,0.4-1.3-0.1-1.1-1c0.3-0.3,0.4-0.7,0.5-1.1c0.1-0.3,0.3-0.4,0.6-0.5c0,0,0.3,0,0.1,0.1c-0.3,0.8-0.6,1.6-0.8,2.4
		c1.1-0.1,2.3-1.3,3.2-0.4C331.2,127.2,330.7,127.7,330.3,128.2L330.3,128.2z M332.1,123.9c-0.5,0.1-0.8,0.3-1,0.3
		c0.3,0.5,0.1,0.8,0.5,1l-1.1,0.6c-0.5-0.7-1.1-1.3-1.8-1.8c-0.1-0.5,0-0.9,0.3-1.3c0.3-0.3,0.3-0.6,0.5-1.1h0.5
		c-0.3,0.4-0.4,0.9-0.4,1.4C330.5,123.2,331.3,123.5,332.1,123.9L332.1,123.9z M333.5,111.5c0.1-1.1,0.8-2.2,1.7-2
		C334.6,110.1,334,110.7,333.5,111.5L333.5,111.5z M339.3,99.6l-0.5-0.1c0.4-0.6,0.8-1.2,1.1-1.9c0.1,0,0.1,0.1,0.5,0.1
		C340.1,98.2,339.7,99,339.3,99.6L339.3,99.6z M340.8,98.6c0.3-0.4,0.4-0.8,0.8-1h0.1v1.3c0.4-0.1,0.8-0.2,1.1-0.5
		C342.9,99.4,342.6,99.4,340.8,98.6L340.8,98.6z M342.5,96.2v-0.3h2.3C344,97,343.1,96.2,342.5,96.2L342.5,96.2z M343.6,93.9v-0.7
		c0.2,0.1,0.3,0.1,0.5,0.1c0.4,0,0.6,0.3,1,0.3C345,94.1,343.8,94.2,343.6,93.9L343.6,93.9z M344.4,92.7c0-0.1,0-0.1-0.1-0.1l0,0
		c0.5-1.3,0.5-1.3-0.5-1.4c0.9-0.4,1.5-0.5,2.5-0.9C345.6,91,344.9,91.8,344.4,92.7L344.4,92.7z"/>
	<path class="st0" d="M212.1,141.7l-0.1-0.3c-0.1-0.1-0.1-0.3,0.3-0.3s0.4,0.5,0.8,0.5c0.1-0.8,0.8-1.3,1-2.7
		c-0.3,0.4-0.6,0.6-0.9,0.4c-0.5-0.3,0-0.9,0.1-1.1c-0.1-0.4,0.4-0.6,0.3-1.1c0-0.1,0-0.3-0.1-0.4c-0.1,0-0.5,0-0.5,0.1
		c-0.4,0.5-0.6,1.1-0.6,1.7c0,0-0.1,0.3,0,0.3c0.5,1-0.4,1-0.9,1.1c-0.3,0.4-1.1,1.5-0.6,2c0.4,0.9-0.1,1-0.6,1
		c-0.1,0-0.1,0-0.3,0.3c0,0.4,0.1,0.3,0.3,0.4c0.5,0.1,0.8,0.4,1-0.4c-0.3-0.5-0.1-1.1,0.4-1.4C211.8,141.7,212,141.7,212.1,141.7z
		 M212.8,140c0.3-0.1,0.3,0,0.3,0.4c0,0.1-0.3,0.4-0.4,0.5c-0.2,0-0.3-0.1-0.3-0.3C212.4,140.3,212.6,140.2,212.8,140L212.8,140z"/>
	<path class="st0" d="M252.4,56.6c-1.7,0.1-3.4-0.5-4.8-1.5h-0.3c-0.9-0.3-1.7-0.1-2.5-0.6c-2.2-0.9-3.9-2.5-6.1-2.3
		c-1.1,0.2-2.1,0.5-3.2,0.8c-0.5,0.3-0.9,0-1.3,0.5c-0.6,0.9-1.8,1.1-2.7,1.4c-1.9,0.6-3.5,1.8-4.6,3.4c-1,1.7-2.9,2.3-3.8,3.4
		c-1.3,1.3-2.7,1.9-3.2,3.6c-0.4,0.5-0.6,1.1-1.3,1.5c-0.9,0.1-1,0.6-1.7,1.4c-0.4,0.5-0.9,0.9-1.4,1.3c-0.6,0.6-1.1,1.3-1.5,2
		c-0.1,1.3-0.9,2-1.7,3c-0.7,1.1-1.4,2.2-2.3,3.2l-2.2,3.9c-1.1,1.5-2.3,3.4-3.3,5c-0.4,0.9-1,1.8-1.7,2.5c-0.4,0.5-0.3,1.1-0.5,1.5
		c-0.6,1.1-1.5,2-1.7,3.3c0,0.1,0.1,0.4,0,0.5c-0.8-0.4-0.9,0.3-1.1,0.6l-0.8,2c0.5-1,1.1-1.8,0.9-1.3c-0.7,1-1.2,2.1-1.5,3.3
		c-0.4,0.9-0.8,1.8-1.3,2.7c-0.1,0.5-0.3,1-0.5,1.5c-1.1,1.2-2,2.6-2.7,4.1c-0.5,0.9-0.9,1.9-1.1,2.9c-1,1.3-1.8,2.7-2.4,4.3
		c0,0.1,0,0.5-0.1,0.6c-0.6,0.4-0.9,1-0.8,1.7c0.1,0.4,0,0.8-0.3,1c-0.6,0.6-1,1.2-1.4,1.9c-0.9,1.5-1.4,3.7-2.5,5.3
		c0,0.1-0.1,0.5,0,0.6c0.1,0.5,0,0.5-0.3,1c-0.3,0.1-0.8,0.3-0.6,0.8c0.2,0.7-0.1,1.4-0.8,1.7c-0.5,0.5-0.8,1.1-0.8,1.8
		c0.1,0.3,0,0.4-0.1,0.4c-0.4,0.1-0.6,0.9-0.9,1.3s-0.3,1-0.6,1.5c-0.4,1.1-1,2-1.7,2.9c-0.6,1.5-1.4,3-1.9,4.2
		c-0.2,1.3-0.7,2.6-1.4,3.7c-0.3,0.5-0.6,1-0.9,1.5c-1.1,2.8-1.8,3.9-2.2,5.2c-0.3,0.8-0.6,1.6-1,2.4c-0.4,0.4-0.3,0.6-0.1,0.9
		c0.9,0.1,1.1,1,1.3,1.7c0.3,1.3,1.5,1.7,2,2.5c0.5,0.5,1.5,0.3,2.3,0.4c1,0,1.4-0.8,1.9-1.7c0.1-1,0.5-2.1,1.1-2.9
		c0.5-0.7,0.8-1.4,0.9-2.2c0.4-1.7,1.1-2.9,2.8-6c0.9-1.4,1.8-2.8,2.8-4.1c0.8-1.5,1.8-2.9,3-4.1c0.5-0.4,0.5-1.3,1.1-1.7
		c0.5-0.3,0.9-0.9,1-1.5c0.1-0.5,0.3-1,0.8-1.3c0.9-0.6,1.5-1,1.8-1.7c0.5-1.1,1.5-1.8,1.8-2.8c0.4-0.8,1-1.4,1.8-1.8
		c0.5,0,0.6-0.4,0.8-0.6c0.3-0.6,0.3-1.5,0.9-2.2c1.1-1,2.3-1.9,2.8-3.6c0.1-0.1,0.1-0.3,0.1-0.4c1-0.3,1.4-1.4,2.2-2.2
		c1-1.4,2.3-2.4,3.2-3.8c1-1.5,2.2-2.8,3.7-3.9c0.8-0.8,1.6-1.6,2.5-2.3c0.1,0.1,0.2,0.2,0.4,0.2c0.2-0.2,0.3-0.4,0.5-0.6
		c0.2-0.1,0.3-0.2,0.5-0.3c-0.1,0-0.2-0.1-0.3-0.1c0.3-0.3,0.7-0.5,1-0.8l2.3-1.8c-0.6,0-0.9,0.4-1.5,0.4c-0.7,0.1-1.3,0.4-1.9,0.8
		l-1,0.7c-0.1-0.1-0.3-0.2-0.3-0.3v-0.3c-0.1,0.2-0.3,0.4-0.5,0.5c-0.2,0.1-0.4,0.3-0.6,0.4c0.1,0.1,0.3,0.2,0.4,0.4l-0.4,0.3
		c-1.8,1.4-3.4,3-4.8,4.8c-0.7,0.9-1.5,1.7-2.4,2.3l-4.6,5.7c-1.1,1.3-2.3,2.4-3.2,3.6c-1.5,1.9-3,3.9-4.3,6
		c-1.3,1.8-2.9,3.2-3.9,5.3c-0.3,0.1-0.5,0.5-0.9,0.6c0.4-1.5,0.9-2.8,1.3-4.1c0.3-0.5,0.3-1.3,0.9-1.7c0.2-0.5,0.4-1,0.6-1.5
		c0.4-1.3,1.1-2.2,1.5-3.4c0.5-0.6,0.9-1.3,1-2c0.1-1,1-1.9,1.1-2.9c0.3-0.9,1-1.3,0.6-2.2c0.5-0.1,0.8-0.6,1-1
		c0.5-0.6,0.9-1.3,1.1-2c0.5-0.4,0.5-1.1,0.9-1.7c1.1-1.5,1.9-3.2,2.4-5c0.1-0.8,0.4-1.5,0.8-2.2c0.8-1.3,1.4-2.7,1.8-4.2
		c0-0.2,0.1-0.4,0.3-0.5c0.7-0.5,1.2-1.2,1.7-1.9c0.4-1,0.5-2.2,1.1-2.8c1-1,1.7-2.3,2-3.7c-0.1,0.1-0.1,0.3-0.3,0.3
		c0.4-0.9,0.3-1.9,1.3-2.2l0.2-0.1c0.2-0.3,0.4-0.6,0.7-0.9c0.9-1.1,2.1-2.4,3-3.7c0.2-0.5,0.3-1.1,0.4-1.6
		c-0.9,1.1-1.8,2.3-2.6,3.6l-1.2,2.1c0.5-1.1,1-2.2,1.7-3.2c0.8-1.1,1.6-2.2,2.3-3.3v-0.1c0.7-0.9,1.4-1.8,2.2-2.6
		c0.2,0,0.3-0.1,0.3-0.3c0-0.8,0.5-1,0.9-1.4l0.1-0.5c0-1.3,1.3-1.8,1.9-2.5c1.3-1.2,2.4-2.6,3.3-4.1c0.4-0.5,1-0.6,1.4-1.1
		c1.1-1.9,2.7-3.4,4.6-4.4c0.3-0.5,0.9-0.8,1.4-1.4c0.7-0.8,1.4-1.4,2.3-2c0.6-0.6,1.7-0.9,2.4-1.8c1-0.4,2-1.3,3-1.7
		c2.1-0.9,4.3-1.7,6.5-2.4c0.3-0.1,0.6-0.1,0.9,0c0.9,0.4,1.5,0,2.4-0.3c1.1-0.2,2.1,0.4,2.5,1.4c0.4,0.6,1.2,0.9,1.9,0.8
		c0.9-0.4,1-1.1,1-2C254,58.1,253.5,56.8,252.4,56.6z M184.9,131.1c-0.4-0.4-0.1-0.5,0.1-1C185.2,130.4,185.2,130.8,184.9,131.1z
		 M207.6,93l0.1,0.2c0.1,0.4,0,0.4-0.3,0.5h-0.3l-0.3-0.1h0.4C207.2,93.2,207.4,93.2,207.6,93z M207,94.3c0,0.3-0.1,0.3-0.4,0.3
		h-0.1c0-0.3,0-0.4,0.4-0.4C206.8,94.2,207,94.2,207,94.3L207,94.3z M206.5,91.5c0.1,0,0.3,0,0.3,0.3c-0.1,0.1-0.2,0.1-0.3,0.1
		c-0.3,0-0.3,0-0.3-0.4H206.5z M206.1,90.2c0,0.5-0.1,0.8-0.4,0.9c-0.1,0-0.1,0-0.1-0.1c0,0,0,0,0,0C205.6,90.5,206,90.4,206.1,90.2
		z M205.8,92.8c0.1-0.1,0.3-0.1,0.4,0c0,0,0,0,0,0.1c0.1,0.4-0.3,0.6-0.5,0.9h-0.1c0,0.1,0,0.1,0.1,0.1l0,0h-0.1v-0.1
		C205.5,93.4,205.6,93.1,205.8,92.8L205.8,92.8z M205.7,96.2v0.9c0,0-0.3,0-0.3-0.1C205.3,96.6,205.6,96.5,205.7,96.2z M203.5,97.7
		c0.1,0,0.3,0.3,0.3,0.4c0,0.3-0.1,0.3-0.3,0.3s-0.4-0.1-0.4-0.3C203.3,98,203.3,97.7,203.5,97.7z M203.2,97c0.1,0,0.3,0.1,0.4,0.1
		c0.1,0.2,0,0.5-0.2,0.6c0,0,0,0-0.1,0C203.2,97.5,202.9,97.4,203.2,97z M203.7,95.3h-0.1l0.4-0.6V95
		C203.9,95.1,203.9,95.3,203.7,95.3z M203.8,94.6l-0.4,0.6c-0.1-0.1-0.1-0.2-0.1-0.3c0-0.3,0.1-0.4,0.3-0.4h0.2V94.6z M202.9,92.5
		c0.3,0,0.3,0.1,0.3,0.3s0,0.4-0.1,0.1c-0.1,0-0.1-0.1-0.4-0.3C202.8,92.7,202.8,92.5,202.9,92.5L202.9,92.5z M199.9,97.9
		c0.5-0.5,0.8-1.1,1-1.8c0.1-0.8,1-1.1,1-2c0-0.1,0.3-0.3,0.4-0.1v-0.4c0-0.1,0.1-0.1,0.1-0.3c0.4-0.1,0.4,0.1,0.1,0.6
		c0.3-0.1,0.3,0,0.4,0.3l-0.5,0.9c-1.4,2.2-2.7,4.3,0.8-1.1c1-1.5-1.8,3.6-2.7,5.1c0,0.3-0.3,0.5-0.6,0.5c-0.4-0.1,0-0.5-0.3-0.6
		c0.5-0.8,0.9-1.7,1.3-2.4C200.2,97.5,199.6,98.4,199.9,97.9L199.9,97.9z M201.9,97.5l-0.4,0.8h-0.1
		C201.5,97.9,201.4,97.6,201.9,97.5L201.9,97.5z M201.3,102.1c0,0.5,0,0.9-0.5,1.1C200.6,102.6,200.6,102.2,201.3,102.1z M200,104.3
		c0.1,0,0.4-0.1,0.4,0c0,0.3-0.1,0.5-0.4,0.6c-0.2,0-0.3-0.1-0.5-0.1C199.7,104.5,199.9,104.3,200,104.3z M200.1,101
		c0,0.5,0,0.8-0.4,1.1C199.6,101.8,199.7,101.7,200.1,101L200.1,101z M192,114.2c0-0.1,0.3-0.3,0.4-0.1c0.2,0,0.4,0.1,0.4,0.3
		c0,0,0,0.1,0,0.1c-0.3,0.5-0.3,0.9-0.8,1.1c0,0.1-0.1,0.1-0.1,0s-0.1,0-0.1-0.3C191.9,114.9,192,114.6,192,114.2z M192.4,117.2
		c-0.1,0.4-0.3,0.8-0.6,1C192,117.8,192,117.3,192.4,117.2z M191,116.4c0.1,0.1,0.5-0.1,0.8,0.3s0,0.5-0.1,0.8
		c-0.3,0.4-0.7,0.7-1.1,0.9C190.7,117.5,190.5,116.9,191,116.4z M187.9,129.5c0-0.4,0.2-0.7,0.4-1
		C188.6,129.2,188.3,129.5,187.9,129.5z M187.8,127.3c-0.4-0.5-0.1-0.6,0.1-0.8C188.1,126.8,187.9,126.9,187.8,127.3L187.8,127.3z
		 M187.8,123.6c0.4,0.4,0.4,1,0,1.4C187.3,124.4,187.9,124.2,187.8,123.6L187.8,123.6z M188.6,131.5c-0.6,1.1-0.4,2.7-1,3.8
		c-0.3,0.5-0.5,1-0.8,0.6c-0.3-0.1,0-0.6,0.1-0.9c0.1-0.9,0.8-1.9,0.8-2.9C187.9,131.7,188.2,131.5,188.6,131.5
		c0-0.1-0.6-0.5-0.3-0.6c0-0.3,0.4-0.4,0.4-0.1C188.9,131,188.7,131.4,188.6,131.5z M189.2,124c-0.1-0.4,0-0.6,0.4-1
		C189.6,123.4,189.5,123.7,189.2,124z M189.6,121.4c-0.3,0.3-0.4,1-0.9,0c0.4,0,0.5,0,0.4-0.3s-0.1-0.5,0.1-0.4s0.4-0.1,0.5,0.1
		C190,121,189.7,121.2,189.6,121.4z M189.8,125.4c0-0.6,0-0.6,0.6-1.1C190.3,124.8,190.1,124.9,189.8,125.4L189.8,125.4z
		 M190.6,121.5c-0.1,0-0.1-0.3-0.1-0.3c0-0.3,0.1-0.3,0.4-0.5C190.9,121,190.8,121.2,190.6,121.5z M191,120c-0.1-0.3,0.3-0.5,0.5-1
		c0,0.3,0,0.7-0.1,1C191.3,120.1,191,120.1,191,120L191,120z M191.2,122.1c0-0.4,0.3-0.5,0.5-0.6c0.1,0,0.1,0,0.1,0.1c0,0,0,0,0,0
		c-0.1,0.1-0.3,0.5-0.4,0.5S191.1,122.1,191.2,122.1L191.2,122.1z M192.2,124.3c-0.3,0.3-0.5,0.7-0.6,1.1c-0.3-0.5,0-1,0.1-1.3
		s0-0.4,0.4-0.3C192.2,123.9,192.5,124.2,192.2,124.3L192.2,124.3z M192.6,123.6c-0.2,0-0.5-0.1-0.5-0.4c0,0,0,0,0,0
		c0.1-0.3,0.1-0.8,0.6-0.8c0.1,0,0.5-0.1,0.5,0.1C193.3,123,192.8,123.3,192.6,123.6L192.6,123.6z M194.3,120.2
		c-0.1,0.2-0.5,0.3-0.7,0.2c0,0-0.1,0-0.1-0.1c-0.5-0.1-0.8-0.4-1.1-0.4c-0.1,0-0.3-0.4,0-0.5c0.3-0.2,0.5-0.6,0.5-1
		c0.1-0.3,0.1-0.6,0.4-0.4s0,0.3,0,0.4c0,0.5-0.3,1.1,0.1,1.3s0.5-0.4,0.6-0.8l0.5-0.4C194.7,119.2,194,119.7,194.3,120.2
		L194.3,120.2z M194.8,117.5c0.4-0.4,0.3-1,0.8-1.1c0.1,0.5-0.2,1-0.6,1.1C194.9,117.5,194.9,117.5,194.8,117.5L194.8,117.5z
		 M195.3,109.5c-0.1,0.5-0.9,0.8-1,1.5s-0.5,1.3-0.6,2.2c-0.1,0.1-0.1,0.6-0.5,0.4s-0.3-0.4-0.4-0.8c0.3-0.7,0.8-1.3,1.3-1.9
		c0.1-0.4,0.3-0.7,0.6-1c0.1-0.8,0.3-1.3-0.4-2c0.9,0.5,1.3,0.3,1.3-0.6c0-0.4,0.5-0.5,0.6-0.9c0.6-1,0.9-2,1.5-3
		c0.1-0.4,0.3-0.5,0.5-0.5c0.1,1-0.2,1.9-0.8,2.7C196.6,106.8,195.9,108.1,195.3,109.5L195.3,109.5z M197.8,106.5
		c-0.4-0.5,0-0.8,0.3-0.8l0.1,0.3C198.5,106.5,198.1,106.2,197.8,106.5L197.8,106.5z M196.4,109.4c0-0.7,0.3-1.3,0.8-1.7
		C197.3,108.4,196.8,108.9,196.4,109.4L196.4,109.4z M196.9,113.9v0.4C196.9,114.2,196.9,114,196.9,113.9c0.4-0.5,0.1-1.1,0.6-1.5
		C197.5,112.8,197.8,113.6,196.9,113.9L196.9,113.9z M197.8,109.4c-0.2,0.6-0.5,1.2-0.8,1.8c-0.1,0.3-0.1,0.4-0.3,0.5
		c-0.1,0.3-0.3,0.3-0.3,0c-0.3-0.1-0.3-0.3,0-0.3c0.9-1,0.9-2.7,1.7-3.8c0.3-0.1,0.4-0.4,0.5-0.5
		C198.9,107.9,198.6,108.9,197.8,109.4L197.8,109.4z M199.2,109.8c-0.3,0.1-0.3,0-0.3-0.1c-0.3-0.3-0.3-0.4-0.1-0.5
		c0.4-0.1,0.4,0.1,0.4,0.4C199.4,109.7,199.4,109.8,199.2,109.8L199.2,109.8z M199.1,101.8c-0.4,0.1-0.5,0.1-0.6,0
		c-0.3-0.1-0.3-0.4,0-0.6c0.2-0.5,0.6-0.9,1.1-1.1C199.6,100.7,199.4,101.3,199.1,101.8L199.1,101.8z M200.6,108.9
		c-0.3,0.4-0.5,0.1-0.9-0.1c-0.1,0-0.3-0.1-0.4-0.1c0-0.6,0.1-1.1,1-0.6c0.3,0,0.8-0.3,0.9,0.1S200.8,108.5,200.6,108.9L200.6,108.9
		z M201.9,103.6c-0.4,1.4-0.3,2.8-1.5,3.7h-0.1c0-0.7,0.2-1.3,0.6-1.9c0.5-0.4,0.4-1.1,0.4-1.7c0.1-0.4,0.3-0.4,0.5-0.4
		S202.1,103.5,201.9,103.6L201.9,103.6z M203.2,101c0,0.9-0.4,1.4-0.4,1.9c0,0.1-0.4,0.1-0.5,0.1s0-0.1,0-0.4
		C202.1,102.1,202.8,101.7,203.2,101c0.1-0.1,0.3-0.4,0.4-0.4C203.5,100.9,203.4,100.9,203.2,101L203.2,101z M203.9,100.3
		c0,0-0.1-0.1-0.1-0.5c0.1-0.1,0.2-0.1,0.3-0.1c0.2,0,0.1,0.1,0.1,0.3S204.2,100.3,203.9,100.3L203.9,100.3z M204.7,98.4
		c-0.2,0.4-0.5,0.6-0.9,0.8c-0.1,0.1-0.1,0.1-0.3,0.1c0.1-0.1,0.1-0.1,0.3-0.1c0-0.4,0.4-0.6,0.5-1s0.1-0.5,0.4-0.5
		C204.9,97.9,204.8,98.1,204.7,98.4L204.7,98.4z M204.6,96.3c-0.1-0.3-0.3-0.4,0-0.4c0.1,0.1,0.4,0,0.4,0.4
		C204.7,96.3,204.6,96.5,204.6,96.3L204.6,96.3z M204.6,90.8c-0.1,0.1-0.3,0-0.1-0.3c0-0.4,0.1-0.5,0.6-0.6
		C205.1,90.2,205.1,90.8,204.6,90.8L204.6,90.8z M206.1,99.9c-0.3-0.1-0.4-0.3-0.4-0.4l0.1-0.1l-0.3-0.3v0.4l-0.3-0.4h0.4l0.1,0.3
		C205.8,99.5,206,99.8,206.1,99.9c0-0.5,0.4-0.9-0.1-1.3c-0.1-0.3,0.8-0.8,0.4-1.3h0.3c0.6,0.4,0.9,0,1.3-0.6L206.1,99.9z
		 M209.6,89.2c0.2-0.2,0.3-0.4,0.4-0.6C210.4,89.2,210,89.2,209.6,89.2z M210.4,83.9c-0.1-0.3-0.1-0.3-0.1-0.4s0-0.4,0.3-0.4
		c0,0.1,0.1,0.3,0.1,0.4L210.4,83.9z"/>
	<path class="st0" d="M235.6,135.5c-1.3,1.3-2.5,2.8-3.6,4.3c-0.1,0.4-0.4,0.4-0.6,0.5c-0.8,1-1.7,1.9-2.7,2.8
		c-0.9,0.9-1.1,1.8-2,2.5c-1.7,1.1-2.7,2.9-4.4,4.1c-0.1,1.1-1.1,1.1-1.7,1.7c-0.8,1.1-1.5,2.3-2.7,2.8c-1.3,1.3-2.4,2.3-3.3,3.4
		c-0.5,0.6-1.5,1.1-1.8,1.9c-1,0.9-2.1,1.8-3.2,2.5c-0.3,0.1-0.4,0.5-0.6,0c0-0.4-0.4-0.8,0.1-0.9l0.4-1c0.1-0.9,0.4-1.9,0.9-2.7
		c0-1,0.1-2,0-3.2c0-0.3,0-0.4,0.3-0.4s0.3,0.1,0.3,0.3c0.9-0.8,1-1.4-0.3-2.5c1.7,0.9,1.4-0.1,1.9-0.8c0.2-0.2,0.4-0.6,0.4-0.9
		c0.5-0.8,0.8-1.7,0.8-2.7c-0.5,0.1-0.5,0.1-1.4,1c0.3-0.8,0.6-1.3,1.4-1c0.5-0.8,1.1-1.4,1.1-2.3c0.2-0.9,0.6-1.7,1.1-2.4
		c0.6-1,0.8-2,1.4-3c0.1-0.9,1.1-1.5,0.8-2.4c0.1-0.3,0.4-0.6,0-0.8c-0.4,0-0.6,0.1-0.6,0.5s-0.1,0.5-0.3,0.4v0.1
		c-0.1-0.3-0.1-0.6,0-0.9c0.5-0.8,0.6-1.7,0.9-2.2c0.3-0.3,0.3-0.8,0.6-0.8c0.4,0.2,0.6,0.6,0.4,1c0,0,0,0,0,0c0,0.1,0,0.1,0.3,0.4
		c0.1,0,0.3-0.4,0.4-0.5c0.4-1.5,0.9-2.9,1.5-4.3c0.4-0.6,0.5-1.3,0.9-1.8c0.8-0.6,1-1.9,1.5-3c1.7-2.7,2.2-5.8,3.8-8.6
		c0.4-1.3,1.1-2.4,2-3.3l0,0c0.7,0,1.5-0.1,2.2-0.1c-0.6-0.1-1.2-0.2-1.8-0.4c0.3-0.4,0.5-1,0.5-1.5c0.5-0.8,1-1.8,1.5-2.8
		c0.6-1.4,1.9-2.5,1.7-4.6c0-1-0.9-2-1.4-1.8c-0.9,0-1.8-0.3-2.5-0.9c-0.9-0.5-1.4-0.8-2.2-0.6c-0.3,0-0.7,0-1-0.1
		c-0.6-0.8-1.7-0.6-2.7-0.1c-0.5,0.4-1.1,0.7-1.8,0.9c-0.1,0.1-0.5,0.3-0.4,0.4c0.3,0.9-0.4,1.5,0.8,1.9c0.3,0.3,0,0.5,0,0.9
		c-0.3,1.1-0.8,2-1.1,3.2c-0.3,0.9-0.1,1.9-0.6,2.7c-0.1,0.1-0.1,0.2-0.1,0.3l-0.4-0.2c0,0.1-0.1,0.3-0.1,0.4s-0.1,0.3-0.2,0.5
		c0.1,0,0.3,0,0.4-0.1c-0.3,0.7-0.5,1.4-0.5,2.2c-0.4,1-0.8,2.2-1.1,2.9c-1,1.8-1.3,3.9-2.7,6.1c-0.6,0.9-0.8,2.3-1.5,3.6
		c-1.1,2.4-2.3,5-3.2,7.4l-1,2.3c-0.8,1.8-1.5,3.7-2.2,5.5c-0.8,2-1.9,3.9-2.5,5.7c-0.5,2.2-1.7,3.9-2.2,6c-0.9,1.8-1.6,3.6-2.2,5.5
		c-0.5,0.8,0.3,2.9,0.9,3.3c0.9,0.5,1.7,1.3,2.9,1.9c0.3,0.1,0.5,0.1,0.8,0c0.8,0.3,1.5-0.3,2.2,0.8c0.2,0.4,0.7,0.6,1.1,0.4
		c0.4-0.4,1-0.4,1.7-0.6c0.5,0,1.1-0.1,1.5-0.4c2.1-1.6,4-3.5,5.7-5.6c0.4-0.3,0.8-0.6,1.3-0.9c0.5-1.2,1.3-2.2,2.4-3
		c0.6-0.8,1.7-1.7,2.5-2.8c2-1.8,3.6-3.8,5.6-5.7c1.3-1.2,2.3-2.7,2.9-4.3c0.1-1.4,1.5-2.4,2.3-4.1c0.3-0.4,0.9-0.8,1.1-1.4
		c0-0.3,0.1-0.4,0-0.5C235.7,135.2,235.7,135.3,235.6,135.5z M224.4,121.4c-0.1,0.4-0.4,0.8-0.8,0.6
		C223.7,121.5,224.2,121.5,224.4,121.4z M215,143.2c0,0.2-0.1,0.3-0.3,0.4c-0.3-0.3-0.1-0.4-0.1-0.5l0.5-1.8c0-0.1,0.1-0.1,0.3,0
		C215.6,142.1,215.1,142.7,215,143.2z M216.1,140c0-0.7,0.3-1.5,0.8-2C216.9,138.7,216.6,139.4,216.1,140L216.1,140z M217.1,135.5
		c-0.3,0.5-0.6,0.9-0.9,1.3c-0.1,0.3-0.4,0.3-0.6,0.1c-0.4-0.1-0.3-0.3,0-0.6c0.1-0.6,0.1-1.4,0.9-1.4
		C217,134.8,217.3,134.9,217.1,135.5L217.1,135.5z M217.1,134.4v-1.8c0.1-0.1,0.3-0.2,0.5-0.3c0.2,0,0.3,0.1,0.3,0.3c0,0,0,0,0,0
		C217.8,133.6,217.9,134.2,217.1,134.4L217.1,134.4z M219.2,133.3c-0.4,0-0.4-0.4-0.4-0.5c0-0.3,0.4-0.5,0.6-0.5s0.3,0.3,0.3,0.4
		S219.4,133.3,219.2,133.3L219.2,133.3z M220.1,131.6l-0.1-0.1c0.1-0.4,0.3-0.4,0.5-0.8C220.6,131.3,220.4,131.3,220.1,131.6
		L220.1,131.6z M221.8,126.6c0.1,0,0.1,0,0.1,0.1s0.1,0.4,0,0.4l-0.3-0.3C221.6,126.7,221.8,126.7,221.8,126.6z M221.3,128.5
		c-0.3-0.1-0.3-0.3-0.4-0.5C221.2,128.1,221.6,128.2,221.3,128.5L221.3,128.5z M221.3,124.9c-0.3,0.8-0.5,1.4-1.5,1
		C220.4,125.5,220.8,125.2,221.3,124.9z M219.7,124.8c0.1,0,0.1,0.1,0.1,0.4s-0.1,0.3-0.3,0.4c-0.2,0-0.3-0.1-0.3-0.3
		C219.4,125,219.4,124.8,219.7,124.8z M219.2,121.6c0.1-0.4,0.3-0.1,0.3,0c0,0.6-0.3,1.1-0.8,1.3
		C218.9,122.2,218.7,121.7,219.2,121.6z M219.8,128.5c-0.1,0.5,0.4,0.9-0.1,1.1s-0.9-0.3-1-1C219.2,129,219.5,129.1,219.8,128.5
		L219.8,128.5z M218.8,130.6c0,0.4-0.3,0.8-0.6,1C218.3,131.2,218.5,130.9,218.8,130.6z M218.2,129.2c-0.3,0-0.4,0-0.4,0.1
		c-0.4,0-0.5,0.4-0.6,0c-0.1-0.1-0.1-0.3,0.1-0.5s0.5-0.3,0.6,0S218.2,129.1,218.2,129.2z M215.9,126.2c0-0.2,0.1-0.3,0.3-0.3
		c0,0,0,0,0,0c0,0,0,0.3,0.1,0.1c-0.1,0.1-0.1,0.2-0.1,0.3C215.9,126.3,215.7,126.3,215.9,126.2z M205.5,157c0-0.1,0-0.3-0.1-0.4
		l0.1-0.1c0.3,0,0.3,0.1,0.3,0.1C205.8,156.7,205.7,156.9,205.5,157z M206.5,154.6c-0.5,0.3-0.8,1,0,1c-0.4,0-0.4,0.6-1,0.3
		c-0.1-0.5,0.3-1,0.5-1.7c0.1-0.1,0.3-0.1,0.5-0.1V154.6z M206.8,154.1c-0.2,0-0.3-0.1-0.4-0.3c0-0.5,0.4-0.8,0.6-1.1
		c0-0.1-0.1-0.5,0.3-0.4s0.3,0.1,0.4,0.3S207.1,154.1,206.8,154.1L206.8,154.1z M208,154.4c-0.1-0.3,0-0.3-0.1-0.6
		c0.6-0.8,1-1.7,1.1-2.7c0.4-1.1,1.3-2.2,1.5-3.4c0.1-0.4,0.5-0.8,0.4-1.3c-0.2,0-0.5,0.1-0.5,0.4c0,0,0,0,0,0
		c-0.3,0.9-0.4,1.7-1.3,1.8c-0.3,0-0.4,0.3-0.1,0.5c0.5,0.6-0.1,1.1-0.4,1.4c-0.6,0.3-0.5,1.1-1,1c0-0.6,0.1-1.2,0.4-1.7
		c0.9-1.7,1.1-3.6,2-5.2v-0.4c-0.8,0-0.8,0.8-0.9,1.3c-0.8,1.3-1.1,2.9-2.2,4.1c-0.1,0.3-0.4,0.4-0.4,0.8c0,0.6-0.1,1.1-0.6,1.3
		c-0.2,0.1-0.4,0.3-0.4,0.5c0.9,1.1-0.8,1.8-0.5,2.8c-1,0.4-0.8,1.4-0.9,2c-0.1,0.4-0.4,0.4-0.6,0.5s-0.3,0.3-0.5,0.3
		c-0.1-0.3-0.1-0.5,0-0.8c0.2-0.9,0.5-1.8,0.9-2.7c0.7-1.3,1.2-2.7,1.5-4.2c0.8-1.9,1.5-3.9,2.3-5.6c0.7-0.8,1.1-1.8,1-2.9
		c-0.1-0.3,0.3-0.4,0.5-0.6c0.4-0.3,0.8-0.8,1-1.3c-0.1-0.3,0.1-0.4,0.1-0.4c0.6-0.1,0.6-0.5,0.3-1c0.9,0,1.3-0.1,0.6-1.1
		c-0.3-1.3,0.8-2.2,0.9-3.3c0-0.1,0.1-0.1,0.1-0.3c0.6-1.5,1.9-2.4,2.2-3.9c0.2-0.6,0.7-1.2,1.3-1.5c0.9-1,0.9-2.4,1.7-3.2
		c0.5,0.3,0.4,1,0,1.1c-0.4,0.8-0.4,1.8-1,2.4c-0.4,0.5-0.7,1.2-0.8,1.8l0.3,0.5c-1.3,0.5-0.8,2.2-2.2,2.3c0.4,0.4,0.6,0.5,0.3,0.9
		c-0.1,0.3-0.9,0.5-0.4,1.3c0.1,0.4,0.4,0.5,0.6,0c0.6-0.9,1.1-1.9,1.8-3c0-0.3,0.1-0.6,0.3-0.8c0.3-0.4,0.5-0.5,0.9-0.4
		c0.4,0.4-0.1,0.4-0.4,0.8c-0.2,0.5-0.5,1-0.8,1.5c0,0.4,0.4-0.1,0.4,0.3c0,0.1,0,0.2-0.1,0.3c-0.9,0.1-1.1,0.9-1.5,1.9
		c0,0.5,0,1-0.9,0.8c0.3,0.4,0.6,0.7,0.9,1c0.1,0,0.6-0.6,1,0.3c-0.2,1.2-0.7,2.4-1.4,3.4c-0.1,0.3-0.3,0.4-0.3,0.9
		c0.3,0.1,0,0.5-0.3,0.6c-0.6,0.6-0.6,1.1,0,2.2l-0.8,0.6c-0.5,0.5-0.9,0.5-1.3,0.1c-0.5,0-0.5-0.5-0.3-1.1c0-0.1,0-0.4,0.1-0.5
		c-0.7,0.6-0.8,1.6-0.2,2.3c0,0,0.1,0.1,0.1,0.1c0.8,0.8,0.1,1.5,0,2c-0.3,0.4-0.5,0.8-0.5,1.3c-0.1,0.3-0.1,0.6-0.5,0.8
		c-0.4,0.3-0.8,0.8-0.9,1.3c0.1,0.5,0.1,0.9-0.4,1.1c-0.3,0.3-0.4,0.8-0.3,1.3c0.1,0.3,0.4,0.3,0,0.5
		C208.6,155,208.5,154.5,208,154.4L208,154.4z"/>
	<path class="st0" d="M300.8,57.6c-0.7,0.1-2,0.2-2.3,0.2c-1,0-1.9,0-2.9-0.2c-0.1,0-0.2,0.1-0.3,0.1c0.9,0.2,1.9,0.2,2.8,0.1
		c1-0.1,2,0,2.9,0.4c0.3,0.1,0.5,0.1,0.8,0h0.2C301.6,58.1,301.2,57.9,300.8,57.6z"/>
	<path class="st0" d="M172.6,110.6c0.1-0.8,2.2-3.2,1.7-3.9c-0.3-0.1,0.4-0.3,0.4-0.5c0.4,0.4,0.5-0.1,0.6-0.1c0.8,0,0.6-0.9,1.3-1
		c0.5-0.6,0.8-1.4,1.3-1.9c0.3-0.9,0.8-1.7,1.4-2.3c0.3-0.1,0.8-0.4,0.8-0.8c0-1.3,0.9-1.3,1.3-1.7s0.6-0.6,0.5-1.1
		c0.2-0.7,0.5-1.4,0.9-2c0.1,0,0.1,0,0.3-0.1c0.4-0.4,1.5-1.1,1.1-1.5c-0.6-0.8-0.9-1.7-1.1-2.7c0-0.6-0.6-0.6-1.1-0.8
		c-1.1-0.7-2.4-1.2-3.7-1.3c-0.8-0.1-1.5,0.4-1.8,1.1c-1.1,2.2-0.9,3.4-1.9,5.7c-0.8,2.2,0.5,1-0.4,3c-0.8,1.7-0.5,2.2-0.9,2.2
		c-0.6-0.1-0.1-1.5-1.3-1.9c-1-0.4-1.4-1-2.3-1.4c-1.3-0.4-2.3-1.4-3.8-1.7c-1.6-0.2-3.2-0.1-4.8,0.4c-0.8,0.1-1.3,0.9-1.9,1
		c-0.4,0-0.8,0.3-1.4,0.4c-0.9,0.1-1.3,1.1-2,1.4c-0.6,0.5-1.3,1-2,1.4c-0.5,0.5-0.8,1.1-1.1,1.7l-4.8,5.2c-1.9,2.3-5.3,6.3-5.3,7.6
		c0,2.3-5.5,8.1-6.6,10.2c-1,2.7-2.9,6.7-2.9,8.9c0,2.4-1.5,4.1-2,6.2c-0.2,1-0.3,2.1-0.4,3.1c-0.4,0.4-0.7,0.8-1,1.1
		c-0.8,0.6-1.3,1-2.3,0.6c0.5,0.8-0.4,1.1-0.6,1.7c-0.5,0.6-1.2,0.9-2,0.8c-1.5-0.4-1.9-0.1-2.5,1.4c-0.3,0.5-0.3,0.8,0,1
		c0.8,0.5,0.5,1-0.1,1.3c-1.3,0.1-1.9,1.5-3.2,1.8h-0.1c-0.4,0.6-1.3,0.6-2,1c-0.3,0.1-0.6,0.1-0.5-0.4c1-0.1,0.4-0.5,0-0.9
		c0.4-0.3,0.9,0,0.9-0.1c-0.1-0.8,0.8-1.3,0.4-1.9c-0.3,0.4-0.8,0-1.1,0.3c-0.5,0.3-1.1,0.6-1.7,0.8c-1.1,0.5-2.3,0.5-3.6,1.1
		c-1.2,0.6-2.4,1.1-3.7,1.4c-1.4,0.3-2.8,1-4.2,1c-1.9,0.1-3.8-0.3-5.5-1c-0.4-0.4-1.3-0.9-1.4-1.1c0-0.6-0.2-1.1-0.6-1.5
		c-0.2-0.3-0.4-0.7-0.6-1.1c-0.3-0.5-0.1-1.1-0.5-1.7c-0.3-0.3-0.5-0.4-0.3-0.8c0.1,0,0.1-0.4,0.1-0.5c0-0.5-0.4-1,0.1-1.5
		c0-0.1,0-0.5-0.3-0.6c-0.1-0.1-0.3-0.1-0.3-0.3c0.3-0.6,0.5-1.3,0.5-2c0.1-0.5,0.1-1.4,0.6-1.8c0.1-0.1,0-0.4,0-0.4
		c-0.8-0.4,0-0.6,0.1-0.9c0.3-0.1,0.5-0.5,0.8-0.9c0.1-0.7,0.3-1.4,0.6-2c0.3-0.5,0.6-1.1,0.8-1.7c0.1-0.4-0.6,0-1-0.4v-0.1
		c0.5-0.4,0.9-2.4,1.4-2.3c0.3,0,0.5,0,0.6-0.4c0.3-0.3,0.4-0.4,0.4-0.6c-0.3-0.5-0.6-0.4-0.9-0.6c1.3,0.1,1.3,0.1,1.8-0.8
		c0.4-1,1-1.9,1.7-2.7c1.4-3.2,1.4-3.3,1.5-3.3c0.4-1,1-2,1.8-2.8c0.1-0.4,0.5-0.6,0-1c-0.3-0.1-0.4-0.5,0.1-0.5
		c0.7-0.1,1.5-0.3,2.2-0.5c0.5-0.2,1-0.2,1.5,0.1c0.4,0.3,0.9,0.3,1.3,0c0.5-0.3,1-0.1,1.5-0.3c0.5,0,1,0,1.5,0.1
		c1.7,0,5.6-0.1,7.1,0c0.6,0.1,1.1,0,1.7-0.1c0.9-0.8,2-0.6,3-0.8c1.3-0.1,2.7,0,3.8-0.8c-1.5,0.4-3-0.3-4.6-0.4
		c-1.5,0-3-0.2-4.4-0.6c0.6-0.5,1.1-0.4,1.5-1.1c0-0.4,0.3-0.4,0.6-0.4c1.1,0,2-1,2.7-1.7s1.5-1,2.2-1.9l0.9-0.4
		c0.1-0.3,0.4-0.4,0.4,0c0.1,0.1,0.3,0.3,0.3,0.4c0.3-0.7,0.9-1.3,1.7-1.5c-0.1,0-0.1,0-0.3-0.1c-0.3-0.5-0.1-0.9,0.6-1.1
		c0.4-0.1,0.7-0.3,0.9-0.6c1-1.2,1.7-2.6,2.3-4.1c0.4-1.4-1.7-3-2.7-4.2c-0.3-0.3-0.3-0.4-0.1-0.6c-0.3,0-0.6-0.1-0.9-0.3
		c-0.6-0.3-1.3-0.8-1.4-1.5c0,0.1-0.1,0.1-0.1,0.3c-0.3,0.4-0.5,0.5-0.9,0.3c-0.9-0.6-2.3-0.5-3.4-0.9c-2-0.6-4.1-0.1-6,0.3
		c-0.1-0.1-0.4,0-0.4,0c-1.4,0.8-2.6,1.7-3.8,2.7c-0.9,0.9-1.9,1.4-2.7,2.2c-0.8,1.1-1.8,1.9-2.5,2.9c-1.4,1.7-3,3.2-4.3,4.8
		c-1.7,2-3.7,3.8-4.6,6.2c0,0.1,0,0.3-0.1,0.3c-0.4,0.2-0.7,0.6-0.9,1c-0.4,1.1-1.1,2.1-1.9,2.9c-1.3,1.7-1.9,3.8-4.4,8.4
		c-0.1,0.1-0.1,0.4-0.3,0.6c-0.6,1-0.6,4.4-1.7,5.5v0.1c-0.6,1.6-1,3.3-1.3,5c-0.3,1.8-0.9,3.7,0.3,5.6c0.4,0.5,0.3,1.4,0.5,2
		c0.9,3.1,2.5,5.9,4.8,8.1c1.6,1.6,3.6,2.8,5.8,3.4c0.6,0.3,1.7,1,2.3,0c0.1-0.1,0.3,0,0.4,0c1.5,1,2.9,0.4,4.4,0
		c0.4-0.2,0.9-0.3,1.4-0.4c1.6-0.1,3.1-0.6,4.4-1.5c0.6-0.4,1.1-0.9,1.8-0.6c0.6,0.1,1.3-0.1,1.8-0.5c0.9-0.5,1.8-1.1,2.8-1.7
		s2.2-1.7,3.2-2.2l0.5-0.5c0.9-1.1,2-2,3.2-2.8l1.1-0.6c0.6-0.6,1-1.1,1.8-1.8c0.4-0.3,0.8-0.6,1.2-1v0.8c-0.2,0.9,0,1.9,0.4,2.7
		c0.4,0.6,0.6,1.3,0.6,2c0,1.5,1,2.5,1.5,3.7c0.5,0.9,1.4,1.5,1.9,2.3c1.4,1.7,3,2.5,4.8,3.7c0.1,0.1,0.4,0.3,0.6,0.1
		c0.7-0.5,1.6-0.7,2.5-0.6c1.1-0.4,5.8-2.8,7-3.3c1-0.3,1.9-0.7,2.8-1.3c1.4-0.8,2.8-1.6,4.2-2.3c0.4-0.4,0.4-0.9-0.1-1.1
		c-0.6,0-0.6-0.5-0.8-0.8c-0.6,0.5-1.3,0.9-2,1.3c-0.5,0.3-1.3,0.4-1.5-0.1s-0.3-0.5-0.8-0.9c0.3,0,0.1-0.1,0.3-0.4
		c0.1-0.1,0.5-0.5,0.1-0.8s-0.5,0-0.9,0.1c-0.6,0.6-1.4,1-5.8,3.8c-1.3,0.5-2.5,1.5-4.2,1.8c-0.8,0-1.5,0.3-2.3-0.3
		c-0.6-0.5-1.5-0.6-2.2-1.5c-0.4-0.6-0.6-1.2-0.6-1.9c0.3-0.4,0.3-0.6,0-0.6c-0.4,0.1-0.4-0.3-0.4-0.5c-0.1-0.8-0.6-1.4,0-2.3
		c0,0-0.1,0-0.1-0.3c0.1-0.9-0.8-1.8,0.1-2.7c0,0,0.1-0.1,0-0.1c-0.4-0.4,0-0.5,0.1-0.6c0.3-0.9,1-1.4,0.4-2.3
		c-0.1-0.3-0.1-0.7,0.1-1c0.9-0.4,0.6-0.8,0.1-1.5c0.5,0.1,0.5-0.4,0.9-0.5c0.6-1,0.8-2.5,1.7-3.8v-0.4c0.1-0.3,0.1-0.6,0.2-0.8
		c0.8-0.3,1.1-1,1.8-1.4c-0.4-0.1-0.5-0.5-0.9-0.3c-0.1,0.1-0.3,0.2-0.4,0.3c0.1-0.2,0.2-0.3,0.3-0.5c-0.3,0.1-0.4,0.1-0.5,0.3
		c0.1-0.1,0.1-0.1,0.1-0.3c0-1.3,0.9-2.2,2.4-4.2c0.6-1.3,1.3-2.5,2.2-3.7c0.1-0.5-0.1-1.1,0.4-1.7c4.8-4.8,5.1-6.5,6-7.5
		c0.4-0.6,0.8-1.2,1.3-1.7c0.9-0.8,0.4,0,0.9-0.9c0.5-0.7,1.1-1.4,1.7-2c0.8-0.6,1.4-1.9,2.9-2.3c0.4-0.3,1.1-1,1.7-1.5
		c2-1.3,4-2.4,6.2-3.3l2.2-0.8c1.3-0.2,2.6-0.1,3.9,0.3c0.6,0,1.1,0.6,0.9,1c-0.3,1.5-2,5-2.3,6.2c0.1,0.1-0.1,0.3,0.1,0.4
		c0.3,0.3,0.4,0,0.4-0.1c0.4-0.4,0.5-1.1,0.8-1.5c0.1-0.4,0.4-0.5,0.6-0.4c0.1,0.3,0,0.6-0.1,0.8c-0.3,0.1-0.5,0.4-0.3,0.6
		s0.4,0.1,0.5,0.1S172.3,111.1,172.6,110.6z M176.9,96.1c0.1,0,0.1,0,0.1,0.1c0,0.1-0.1,0.2-0.1,0.3c-0.3,0-0.3-0.1-0.3-0.3
		C176.6,96.2,176.6,96.1,176.9,96.1z M176,98.1c0,0.5-0.2,1-0.6,1.4C175.4,99,175.6,98.4,176,98.1z M172.6,106.4
		c0.3,0.1,0,0.3,0,0.6C172.3,106.6,172.3,106.5,172.6,106.4L172.6,106.4z M110.5,114.2c0.5-0.4,0.9-0.8,0.6-1.4c0-0.1,0-0.4,0.3-0.4
		c0.9,0.3,1.1-0.4,1.5-0.9c0.7-0.7,1.5-1.4,2.4-1.9c0.8-0.7,1.6-1.5,2.3-2.3c1.1-1.7,2.8-2.4,4.4-3.3c0.5-0.4,1-0.8,1.4-1.3
		c0.4-0.3,0.6-0.4,0.9,0c1.5-1,2.8,0.8,2.5,1.3c-0.8,1.7-2.4,2.9-3.6,4.3c-0.7,0.5-1.3,1.1-1.9,1.7l-2.2,2c-1.8,1.3-5.8,2.3-7.7,3.4
		c-0.4,0.3-0.8-0.1-1.3-0.1c0-0.3-0.1-0.3-0.1-0.5C110.2,114.5,110.3,114.5,110.5,114.2z M143.1,116.8c0.1,0,0.3,0.4,0.3,0.5
		s0,0.3-0.1,0.3c-0.3-0.1-0.4-0.3-0.4-0.4S142.8,116.8,143.1,116.8z M139.3,123.9c0.1,0,0.1,0.1,0.4,0.1c-0.1-0.2-0.1-0.4-0.1-0.6
		c0.5,0,0.6,0,0.9,0.4c-0.3,0-0.4,0.1-0.8,0.3h-0.4V123.9z M137.6,127.8L137.6,127.8c0.2,0.3,0.2,0.8-0.2,0.9
		C137.2,128.4,137.3,128,137.6,127.8C137.6,127.8,137.6,127.8,137.6,127.8z M136.7,127.1c0-0.4,0.3-0.7,0.6-0.9
		C137.3,126.6,136.9,126.8,136.7,127.1L136.7,127.1C136.6,127.1,136.7,127.1,136.7,127.1z M133.1,135.4l0.2-0.2
		c0.1,0,0.1-0.1,0.3-0.3h-0.1c0.1,0,0.3,0,0.1-0.3c-0.1-0.1-0.2,0-0.3,0c0,0,0,0,0,0.1c0,0.1,0,0.1-0.1,0.1c0,0,0,0,0,0
		c0.5-2.5,1.6-4.9,3.2-7c-0.9,1.7-1.6,3.4-2.2,5.2l-0.4,0.2h0.3c-0.5,1.9-1.2,3.8-2,5.6C132.6,137.7,133,136.6,133.1,135.4z
		 M132.9,141.4v-0.3l0.3-0.3C133.4,141.2,133.2,141.3,132.9,141.4z M134.8,139.3c0,0.1,0,0.2-0.1,0.2c0,0.3-0.3,0.3-0.4,0.3l0,0
		L134.8,139.3z M135.1,132.9l-0.4-0.4c0.1,0,0.1-0.1,0.3,0l0.3,0.3L135.1,132.9z M136.9,134.4c0,0.1-0.1,0.1-0.4,0
		c-0.8-0.8-0.8-0.3-1,0.4c0,0.3-0.1,0.6-0.5,0.6c-0.4-0.4,0-0.5,0.3-0.8c0.1-0.6-0.8-0.4-0.5-0.9c0.1,0.4,1.4,0.1,1.9,0
		c0.1-0.1,0.4-0.1,0.4,0.1C137.1,134,137,134.2,136.9,134.4z M131.7,141h0.3c-0.1,0.2-0.2,0.4-0.4,0.6
		C131.6,141.4,131.6,141.2,131.7,141z M132.9,143.6c0-0.4,0.1-0.9,0.5-1C133.6,143.1,133.2,143.3,132.9,143.6L132.9,143.6z
		 M135.3,142.1c-0.5,1.1-0.9,2.4-1,3.6c0,0.2-0.1,0.4-0.3,0.4c0,0-0.1,0-0.1,0c-0.4-0.1-0.3-0.3-0.3-0.5c-0.1-1.1,0.8-2.2,0.8-3.2
		c0.2-0.6,0.5-1.2,0.8-1.8c0.4,0.3,0.6,0.9,0.3,1.3C135.4,142,135.4,142,135.3,142.1L135.3,142.1z M135.6,140.2
		c-0.1,0-0.5-0.1-0.5-0.4c0-0.3,0.2-0.5,0.5-0.5c0.1,0,0.5,0,0.5,0.3C136.1,139.9,135.9,140.1,135.6,140.2L135.6,140.2z
		 M136.4,138.9c-0.3,0.4-0.6,0.3-0.8,0c-0.1,0-0.1,0-0.1-0.1l0,0l-0.1-0.1l0.6-0.6c0.1,0,0.1,0,0.2,0.1l0.1,0.3
		c0.3,0,0.1-0.8,0.6-0.4C137,138.5,136.6,138.8,136.4,138.9L136.4,138.9z M137.4,135.3c0.2-0.3,0.3-0.6,0.3-0.9
		c0-0.3,0.1-0.3,0.4-0.3c0,0.1,0.1,0.3,0.1,0.4c-0.3,0.1-0.4,0.2-0.3,0.4C137.8,135.1,137.6,135.2,137.4,135.3L137.4,135.3z
		 M139.7,129.4c-0.3,0.5-0.7,1-1.1,1.4c0,0.7,0.1,1.4,0.3,2c0,0.1,0,0.4-0.3,0.4s-0.5,0.1-0.6,0.3c-0.3-0.1-0.9,0.1-0.9-0.3
		c0,0,0-0.1-0.3-0.1s-0.5,0.3-0.6,0v-0.3c0.1-0.4,0.3-0.3,0.9,0c0.6,0.1,0.6-0.5,0.9-1.1c-0.2,0.1-0.4,0.2-0.5,0.1
		c0.3-0.2,0.5-0.4,0.1-0.9l-0.6,0.6c-0.2-0.3-0.5-0.6-0.9-0.6c0.4-0.3,0.5-0.1,0.9-0.1c0.1,0.1,0.3,0.4,0.3,0c0.3-0.6,0.5-0.3,0.7,0
		c-0.1,0-0.2,0.1-0.3,0.1c0.2,0.1,0.3,0.1,0.4,0c0,0.1,0,0.1,0.1,0.2c0.4-0.3,0.4-0.8,0.5-0.4c0.3-0.6,0.7-1.1,1.1-1.5L139.7,129.4
		L139.7,129.4z M142.6,122.8c0.8,0.1,0.6,0.4,0.5,1c-0.1,0.3-0.9,0.6-0.6,1.1c-0.6,0-0.3-0.5-0.6-0.8c-0.4-0.1-0.5,0.3-0.8,0.5
		c1,0.1,1.4,0.8,0.8,1.4c-0.4,0.9-1,1.7-1.7,2.5c-0.1-0.2-0.2-0.4-0.2-0.6l0.2-0.2H140c0.1-0.4,0.3-0.7,0.6-1
		c-0.4-0.1-0.6-0.4-0.8,0.1l-0.4,1c0,0.1-0.1,0.4-0.4,0.1c-0.1-0.1,0-0.3,0-0.4c0.8-1.5,1.1-3,2.4-4.2c0.3-0.4,3.3-4.6,3.4-5h-0.1
		c0-0.1,0-0.1,0.1-0.1l0,0c0-0.5,0.4-0.4,0.6-0.4C146,117.9,145.8,118.4,142.6,122.8L142.6,122.8z M147.5,111.6c-0.1,0-2,1.3-2,1
		c0.7-0.6,1.5-1.2,2.3-1.7c0.1,0,0.1,0,0.1,0.1c0,0,0,0,0,0C147.9,111.1,147.8,111.2,147.5,111.6L147.5,111.6z M148.6,116.3
		c-0.1-0.1-0.1-0.3-0.1-0.4c0.1-0.3,0-0.5,0.1-0.5c0.4,0,0.5,0.1,0.5,0.3C149.1,116.2,148.8,116.2,148.6,116.3L148.6,116.3z"/>
	<path class="st0" d="M137,137.4h-0.2c0.1-0.1,0.2-0.1,0.2-0.2C137.1,137.3,137.1,137.4,137,137.4z"/>
	<path class="st0" d="M299.3,100.3c-0.5,0.4-2.2-0.1-1.3,1.3v0.3c-1,0.3-0.5,0.6-0.4,1.1c0,0.3,0,0.5-0.1,0.8
		c-1.5-0.3-1.5,0.6-1.9,1.1c0.5,0.3,0.6,0.6,1.1,1c-0.6,0.3-1.8,0.3-2.3,0.8s-1.1,1.5-1.7,2.4c-1,1.8-1.9,3.7-2.8,5.5
		c-1.4,2.3-2.7,4.4-4.2,6.6c-1.1,1.8-1.7,4.1-3.8,5.5l-0.3,0.1c0.1,0.5,0.8,0,1.4-0.5c-0.3,0.3-0.6,0.6-0.8,1
		c-0.3,0.4-0.8,0.5-0.9,0.9c-0.9,1.2-1.7,2.4-2.5,3.7c-0.1,0.3-0.4,0.4-0.8,0.5c-0.7,0.4-1.1,1-1.1,1.8h1.8c-1.3,1.4-2,2.8-3.3,4.2
		l-0.5-0.1c0.1-0.6,0-1.1-0.1-1.7c-1,1.3-0.4,1.3-1.3,2.3l-0.3,0.3c0.1,0,0.1,0,0.1,0.1v0.3c0.1,0,0.4,0,0.5-0.1
		c0.1,0.1,0.3,0.3,0.4,0.3c-0.3,0.3-0.7,0.5-1.1,0.6c-0.5,0-1,0.1-0.5,0.5c0.8,0.6-0.1,0.9-0.6,1.1c-0.1-0.1-0.1-0.3-0.4-0.6
		c-1.8,1.5-2.9,3.2-4.7,4.8c-3.6,4.1-8.6,7.2-13.8,10.5c-0.9,0.5-1.9,0.8-2.9,0.9c-5.5,0.3-8.4-1.1-10.2-2.4c0-0.1,0-0.1-0.1-0.1
		l-0.9-0.9c-0.8-0.4-1.7-0.5-2.5-0.9c-0.2-0.3-0.6-0.4-0.9-0.5c0,0.1-0.3,0.1-0.4,0.4c-0.6,0.2-1.2,0.4-1.8,0.5
		c-0.3,0.8-0.7,1.5-1.1,2.2c0.5,0.8,1.3,1.4,2.2,1.7c0.6,0.1,1.3,0.8,1.8,1c1.7,2.2-0.1,1.3,1,1.8c1.3,0.9,2.8,1.5,4.4,1.5
		c1,0,2,0.1,2.9,0.4c1.3,0.4,2.5,0.6,4.1,1c3.8,0.4,7.6-0.4,11.4-1.1c0.8,0,1.6-0.2,2.3-0.4c0.6-0.1,1.2-0.2,1.7-0.5
		c0.2-0.3,0.5-0.5,0.8-0.6c1.4-0.9,2.7-1.9,3.9-3c1.9-1.1,3.6-2.5,5-4.2c1.3-1.5,3.3-2.8,4.6-4.8l5.8-7c1.4-1.9,1.5-2.8,3.2-5.1
		c0.6-1.4,1.8-2.4,2.7-3.9c0.4-1-2.2,1.9-1.8,1c0-0.3,0-0.3,0.1-0.3c1.4-0.5,1.5-1.4,2-2.3c0.3-1,1.8-1.7,1.3-2.9
		c0-0.1,0-0.3,0.3-0.3c0.5-0.5,1.1-0.9,1.7-1.1c0.1,0.4,0.6,0.8,1.1,1.1c-0.5-0.8-0.8-1.6-1.1-2.5c-0.3-0.5-0.3-1.7,0.4-2
		c1.7-0.8,1.9-2.2,2.4-3.2c-1.1-0.4-1.3-1-0.9-1.9c0.4-0.4,0.8-0.9,0.9-1.5l-1.3,0.1c0,0,0-0.1-0.3-0.1l1.4-1.4
		c-0.4-0.2-0.8-0.5-1.1-0.8c-0.1,1.3-1.9,2.2-0.9,3.3c0.1,0.4,0,0.8-0.3,1.1h-0.3c0-0.3,0-0.6-0.1-0.9c-0.8,0-1.5,0.1-2.2,0.4
		c0.8-1.1,0.5-2.4,2.2-3l0.4-0.1c-0.1-0.9,0.8-1.4,1-2.2c0.5-0.9,0.3-2,0.5-3.3v-0.1c0.4,0.1,0.8,0.3,1.1,0.6
		c-0.1-0.7-0.3-1.4-0.6-2c0.3-0.2,0.7-0.3,1.1-0.4c0.3-0.4,0.5-0.5,0.8-0.9c0.1-0.3,0.8-0.9,0.6-1.1c-0.4-1,0.1-1.5,0.8-2.2
		c-0.2-0.1-0.4-0.2-0.6-0.3C299.2,102.1,300.1,101.4,299.3,100.3z M288.9,125.3l-0.9,1.3l-0.4,0.4C288.1,125.9,289,125,288.9,125.3z
		 M287.7,125.2l-0.5,1.9l-0.1,0.1C286.6,126.4,287,125.7,287.7,125.2z M285.7,125.2h0.9l-0.1,0.1L285.7,125.2L285.7,125.2z
		 M284.1,127.2c-0.3,0.3-0.6,0.6-0.9,0.8C283.2,127.5,283.4,127.2,284.1,127.2z M279.5,136.1c0.1,0.6,0.1,1.2-0.1,1.8
		C278.3,137.2,279.1,137.2,279.5,136.1z M276.3,143.6c0.1-0.2,0-0.4-0.1-0.5c0.6-0.2,1.3-0.4,1.9-0.4c0,0.1,0,0.4,0.1,0.5
		C277.3,143.3,276.8,143.6,276.3,143.6L276.3,143.6z M280,139.8c-0.7,0.5-1.7,0.4-2.2-0.3c1-0.3,1.7-0.5,2.8-0.9l-0.3-0.1
		c0.4-0.1,0.6-0.1,0.6,0C281,138.9,280.6,139.4,280,139.8L280,139.8z M287.5,130c-1.1,1.4-1.9,2.9-3.7,4.2c-0.9,0.6-2,0.4-2.7-0.4
		c0.5,0.2,1,0.3,1.5,0.3c0.5-2.6,2-4.9,4.1-6.5c0.2,0.1,0.3,0.1,0.5,0.1v-0.1c0,0.3,0.3,0.4,0.5,0.6c1.1-1.3,1.8-2-0.4,0.5l0.3,0.3
		C289.8,126.7,288.9,128.5,287.5,130L287.5,130z M292.3,118.4c-0.1,0.4-0.1,0.8-0.5,0.9c-0.1,0.3-0.6,0.4-0.8,0.5
		c-0.3-0.1-0.6-0.3-0.5-0.5s0.5-0.5,0.6-0.6C291.5,118.7,292,118.6,292.3,118.4L292.3,118.4z M292.6,112.8c-0.3,0-0.7,0-1-0.1
		l2.2-3.4h0.5C293.7,110.4,293.1,111.6,292.6,112.8L292.6,112.8z"/>
	<path class="st0" d="M73.5,119.1c0.2-1.1,0.7-2.1,1.4-3c0.4-0.5,0.4-1.3,0.6-1.5c0-0.3,0.2-0.7,0.4-0.9c0.6-0.4,0.9-1.1,1-1.8
		c0.3-1.4,1.3-2.5,1.7-4.1c0.1,0,0.1,0,0.1-0.1c0.4-0.4,0.8-0.9,0.9-1.4c0.4-1.1,1.3-2.2,1.5-3.3c0.5-2,2.3-3.7,2.4-5.8
		c0-0.1,0-0.1,0.1-0.1c0.9-0.4,1.1-1.5,1.8-2.5c0.5-1.4,1.2-2.7,2.2-3.8c0.8-1.9,1.8-3.6,3.2-5.1c0.8-0.6,1-1.8,1.8-2.7
		c0.5-1.2,0.6-2.5,0.3-3.7c-0.3-0.9-0.9-1.6-1.8-2c-1.9-1.1-4-1.8-6.2-1.9H84c-0.9-0.4-1.4,0-1.9,0.9c0,0.4-0.1,0.9-0.3,1.3
		c-1.1,2.5-2.3,5.2-3.6,7.7c-1,2.4-2.1,4.8-3.3,7.1c-1.3,2.9-2.4,6-3.3,9.1l0.9,0.9c-1.1-0.1-1.9,0-2,1c-0.2,0.9-0.5,1.8-1.1,2.5
		c-0.5,1.3-1.1,2.2-1.7,3.6v0.1c-1.2,2.1-2.2,4.2-2.9,6.5c0.1,0.3-0.1,0.7-0.4,0.8c0.8,0.1,1.1,0,1.5-0.8c0-0.3,0.1-0.6,0.4-0.8
		c0-0.1,0.4,0,0.4,0.1s0.3,0.3,0.3,0.4c0,0.2-0.1,0.5-0.3,0.6c-0.6,1-1.1,2.4-1.7,3.6c-0.7,0.9-1.3,1.9-1.8,3c0,0-0.3,0.3-0.4,0
		s-0.4-0.6-0.8-1.1c-0.5,1-1.1,1.8-0.9,3c0.3,0,0.4-0.3,0.5-0.4c0.2,0,0.4-0.1,0.5-0.3c0.5,1.4,0.3,1.8-1,1.5
		c-0.4-0.1-1-0.3-1.3,0.1c0.5,0.4,0.9,0.9,1.3,1.4c0.1,0.4-0.1,1-1,1.4c-0.1-0.5-0.2-1-0.3-1.5c-0.8,0.9-2.2,1.5-1.1,3
		c0.4,0,0.7-0.1,1-0.3c0.2,1.1-0.4,2.3-1.5,2.7c0.1-0.3,0.1-0.5,0.1-0.8c0.1-0.3,0.3-0.9,0.1-0.9c-0.3-0.1-0.7-0.1-1,0
		c-0.3,0-0.4,0.3-0.5,0.4c-0.6,0.9-1.1,1.9-1.4,2.9c-0.1,0.1,0,0.6,0.3,0.9c0.5,0.3,1.1,0.5,1.7,0.5c-0.4,0.5-0.5,1-0.8,1.3
		c-0.4-0.3-0.6-0.8-0.9-0.8c-0.5-0.3-1-0.3-1.1,0c-0.4,0.1-0.5,0.8-0.6,1c-0.3,0.5-0.6,1.1-0.8,1.7c-0.5,1.7-0.4,1.8,1.3,2.3
		c0.1,0.1,0.1,0.1,0.3,0.1c-0.3,0.6-0.1,1.1-0.6,1.4c-0.5-0.3-0.6-0.6-1-1c-0.3,0.5-0.6,1.1-0.6,1.7c-0.4,0.6-0.5,1.7-1.5,1.7
		c-0.6,0.3-0.8,0.6-0.6,1.1c0.6,0.9,0.4,1.4-0.4,1.9c-0.3,0-0.6,0.4-0.8,0.8c-0.6,0.8-1,1.6-1.4,2.5c-0.4,0.9-0.9,1.8-1.3,2.9
		c-0.8,2.4-1.8,4.7-2.9,6.9c-0.3,1.5-0.3,3.3-1.7,4.7c-0.1,0.1-0.1,0.1-0.1,0.4c-0.5,1.4-0.9,2.8-1.5,4.2c-0.4,0.8-0.3,2.3,0.5,2.4
		c0.8,0.8,1.4,1.8,1.8,2.9c0.8,1.7,2.3,3,4.1,3.6c0.8,0.3,1.8,0,2.2-0.8c0.6-1.5,1.1-3,1.5-4.3c0.4-0.9,0.6-1.5,0.9-2.3
		c0.3-0.5,0.5-1,0.6-1.5c0.3-1.3,0.6-2.5,1-3.7c0.7-1.2,1.2-2.4,1.7-3.7c0.1-1,0-2.2,0.9-2.7c0-0.1,0-0.3,0.1-0.4
		c0.5-2.4,1.9-4.4,2.5-6.9c0.6-0.3,0.6-1,0.8-1.9c0.8-1.9,2.2-3.6,2.5-5.6c0.1-0.1,0.1-0.3,0.1-0.4c0.3-0.5,0.5-1.1,0.6-1.7
		c0.3-0.8,0.7-1.5,1.3-2.2c0.1-0.1,0.3-0.3,0.1-0.4c-0.3-0.6,0.1-1.3,0.5-1.8c0.3-0.1,0.4-0.4,0.5-0.5c-0.1-0.4,0-0.9,0.4-1.1
		c0.3-0.1,0.4-0.5,0.5-0.8c0.5-1.1,0.8-2.4,1.4-3c0.7-1.1,1.2-2.3,1.3-3.6c-0.1-0.6,0.2-1.3,0.6-1.7c0.4-0.3,0.7-0.6,1-1
		c0.3-0.9,0.4-1.9,0.6-2.7c0.8-1,0.9-2,1.7-2.8C72.9,121,73.4,120.1,73.5,119.1z M48.7,154.8c-0.1-0.5-0.4-0.9-0.3-1.3
		c0.1-0.3,0.3-0.5,0.6-0.6c0.1,0,0.4,0.3,0.5,0.5C49.8,153.9,49.5,154.3,48.7,154.8z M53.2,145.2c-0.2,0-0.3-0.1-0.4-0.3
		c0.1-0.3,0.3-0.4,0.4-0.4s0.3,0.1,0.3,0.1C53.3,145,53.2,145.1,53.2,145.2z M55.2,140v-0.4c0.1,0,0.1-0.1,0.3-0.1
		c0,0.2,0.1,0.3,0.1,0.5C55.5,139.8,55.3,140,55.2,140z M69.2,110.2h-0.3l-0.1-0.6c0-0.1,0.5-0.3,0.6-0.4c0,0.1,0,0.1,0.1,0.1
		C69.3,109.5,69.3,109.9,69.2,110.2z"/>
	<path class="st0" d="M511.5,103.5c-1.2-0.5-2.4-0.7-3.7-0.6c-0.8,0.1-1.5,0.2-2.3,0.3c-2.1-0.3-4.3-0.5-6.5-0.4
		c-2.8-0.1-5.6,0.3-8.4,0c-1.3-0.1-1.4-0.4-0.9-1.5c0.1-0.5,0.6-0.6,0.9-1c0.6-1.5,0.3-2.3,1.8-3.8c0.9-0.9,1.7-1.9,2.3-3
		c-0.1-1.2,0.4-2.4,1.3-3.2c1.4-1,1.9-2.7,3.2-3.8c1-1.1,1.6-2.4,1.9-3.9c0.4-1.7-0.6-4.8-2.5-5c-1,0-2-0.1-3-0.3
		c-0.8-0.4-1.8-0.4-2.7-0.8c-0.6-0.3,0-0.1-0.4,0.3c-0.6,0.8-1.3,1.3-2.2,1.7c-0.8,0.5-1.4,1-0.9,2.2c0.1,0.5,0,0.6-0.8,1.7
		c-0.6,0.8-1.1,1.6-1.5,2.4c-0.4-0.3-0.9-0.5-1.4-0.6c-1.7-0.9-3.4-1.6-5.3-1.9c-1,0-2-0.1-2.5,0.4c-0.3,0.1-0.5,0.3-0.8,0
		c-1.1,0.1-2.2,0.3-3.2,0.6c-3.1,0.9-6.1,2.2-8.9,3.7c-2.1,0.9-4,2.1-5.7,3.6c-0.6,0.5-1.2,0.9-1.8,1.3c-2,1.4-3.9,3-6,4.6
		c-0.9,0.5-1.5,1.3-2.4,1.9c-1.4,0.8-7.1,5.3-7.7,6.5c-1.1,1.5-2.7,2.3-3.9,3.9c-0.7,0.7-1.5,1.3-2.3,1.9c-0.8,0.8-1.4,1.5-2.2,2.2
		c-1.1,0.9-2.3,2.2-3.4,3.3c-0.9,0.8-1.9,1.7-2.7,2.5c-0.4-3-1.1-6-2-8.9c-0.8-2-1.4-4.6-2.2-6.9c-0.3-1.3-0.7-2.5-1.1-3.7
		c-0.3-0.4-0.1-0.6,0-0.6c0.1-0.9-0.6-1.7-1.1-2.5c0,0-0.1-0.3-0.3-0.3c-1-0.3-1.3-0.6-1-1c0-0.6-0.4-0.6-0.6-0.8
		c-0.4,0-0.5,0-0.6-0.1c-0.7-0.6-1.6-1-2.5-1.1c-0.7,0.2-1.5,0.2-2.2,0.1c-0.3,0-0.4,0-0.5,0.1c-1,0.5-0.4,1.3,0.1,1.8
		c-0.4,0.5-0.1,0.9,0.1,1.3s1,1,0.6,1.5c-0.3,0.6-0.5,1.2-0.6,1.8c0,0.4,0,0.9,0.1,1.3l3.2,9.8l0.4-1.7c-0.1-0.3,0-0.4,0-0.4
		c0.4,0.1,0.7,0.2,1,0.5c-0.1,0.3-0.1,0.5-0.1,0.8c0.3,0.5,0.1,1.1,0.3,1.7c0.4,1.3,1.3,2.3,1.1,3c-0.1,1.4,0.4,2.3,0.5,3.6
		c-0.1,0.4,0,0.5,0.8,1c-0.4-0.6-0.3-1.8,0.1-2c0.4-0.9,0.3-1.1-0.5-1.9c0.5,0,1.1,0.6,1.3,1.4c-0.3,0.3-0.5,0.6,0.1,1
		c0.1,0.3,0.3-0.3,0.4-0.6c0.1,0.1,0.2,0.1,0.3,0.1c0,0.3-0.1,0.4,0,0.5c-0.9,0.3-0.8,0.9-0.4,1.5s0,1.1-0.3,1.4
		c0,0.5-0.4,0.5-0.6,0l-0.1,0.1c-0.3-0.4-0.1,0.1-0.1,0.3c-0.1,0.8,0.5,1.4,0.1,2.7c0.1,0.5,0.2,1,0.4,1.5c-0.1,0-0.1,0.1-0.3,0.1
		l-22.2,22c-0.9,1-1.7,2.1-2.4,3.2c-1.3,1.5-2.7,2.9-4.2,4.2c-0.4,1-1.2,1.9-2.2,2.4c-0.3,0.3-0.5,0.7-0.5,1.1c0.1,1,0.3,2,0.6,2.9
		c0.5,1.3,1.9,2,3.2,1.5c0.1-0.1,0.3-0.1,0.4-0.2c0-0.1,0.1,0,0.1-0.1c0.6-1,1.5-1.4,2.2-2.4c0.4-0.4,0.6-1.1,1-1.5
		c0.7-0.4,1.2-1,1.5-1.7c0.1-0.5,0.3-1,0.9-1.1c0.4-0.4,0.5-1,1-1s0.5-0.4,0.8-0.6c0.5-0.4,1-1.3,16-15.9v0.1l3.9-3.8l1.4-1.4
		l0.4,1.4c-0.2,1.5,0,3,0.5,4.4c-0.1,0.4-0.1,0.4,0,0.5c-0.4,0.4-0.1,1.1,0,1.7c0.3,2.2,0.9,4.4,0.3,6.6c-0.2,1.6-0.1,3.2,0.1,4.8
		c0.1,0.8-0.4,1.4,0,2.4c0.5,1.3,1.1,2.5,1.9,3.6c0.1,0.1,0.5,0.1,0.6,0.1c1.6-0.2,3.1,0.1,4.6,0.6c0.3,0.1,0.7,0,0.9-0.3
		c0.2,0,0.3,0,0.5-0.1c1,0.5,1.5,0.3,1.7-0.8c0-0.3,0-0.1,0.3-0.1l-3.4-20.7c0.1-0.1,0.1-0.1,0-0.1l-0.1-0.8c0,0.1,0,0.1-0.1,0.3
		l-0.3-0.5c0.3-0.3-0.3-0.8-0.5-1.5c-0.3-1.3-0.1-2.3-0.5-3.8c-0.3-1.7-0.3-3-0.5-4.6c0.9-0.9,1.7-1.9,2.4-2.9
		c0.8-0.5,1.3-1.7,2.4-2c0.5-0.6,1-1.1,1.7-1.5c-0.1-0.6,0.4-1,0.9-1.5c0.8-0.9,1.8-1.5,2.8-2.5c1.5-1.5,7.9-7.5,9.5-9.1
		c0.6-0.6,1.2-1.2,1.7-1.8c0.4-0.6,1.5-0.9,2.2-1.5c0.9-0.6,1.5-1.5,2.7-2.3c0.8-0.5,1.3-1.4,2-1.8c1.4-0.4,1.8-1.1,2.9-1.8
		c1.2-0.7,2.3-1.6,3.3-2.5c1.1-0.8,2.8-1.5,4.1-2.4c0.9-0.6,1.8-1.1,2.8-1.5c1.1-0.3,2-1.3,2.9-1.5c1.4-0.4,2.5-1,3.8-1.5
		c0.9-0.5,1.5-0.6,2.3-1c1.6,0.1,3.1,0,4.7-0.1c1.1-0.1,2.1,0,3.1,0.4c-0.3,0.9-0.7,1.8-1.3,2.5c-2,2.9-3,6.2-5.1,9.1
		c-0.5,0.6,0,0-0.3,0.6c-0.6,1.1-1.5,2.2-2.2,3.3c-0.3,0.7-1,1.2-1.8,1.3c-3.2,0.3-0.5,0.6-3.8,0.8c-2.5,0-5,0.2-7.4,0.8
		c-0.8,0.1-1.8,0.6-1.7,1c0.4,0.8,0.3,1.8,1.1,2.4c1.5,1.3,3.4,1,5.1,0.9c3.2-0.4,0.5,0,3.7-0.9c0.4,0,0.9-0.1,0.6,0.5
		c-0.6,1.8-2.8,4.8-3.7,6.5c-0.7,1-1.2,2.1-1.5,3.2c-0.1,1-2.7,5.6-3.3,6.2c-0.4,0.4-0.7,0.9-0.9,1.5c-0.4,2.5-2,4.7-3,7
		c-0.5,1-1,2-1.4,3c-0.4,1.5-0.6,3.2-1.7,4.4c-0.4,0.5-0.6,1.2-0.5,1.8c-0.1,0.5-0.2,1-0.5,1.5c-1.7,3.8-2.2,8-1.3,12.1
		c0.2,1.1,0.8,2.1,1.7,2.7c1.8,1,2.8,2.9,4.7,3.7c1.3,0.5,2.4,1.4,3.7,1.1c1.1-0.3,2.7,1,3.4-0.9c1.5-0.3,2.7-1.4,4.2-1.9
		c1.6-0.4,3.2-1.1,4.6-2c2-1.4,4.1-2.8,6-4.2c1-0.7,2-1.5,2.8-2.4c-0.4,0.1-0.8,0.2-1.1,0.5c-0.5,0.4-0.8,0.9-1.4,0.9
		c-0.2,0-0.4-0.1-0.5-0.3c-0.1-0.2,0-0.5,0.2-0.6c0,0,0.1,0,0.1,0c1.8-0.5,1.9-2.8,3.7-3.4c0.1,0,0.1-0.3,0.1-0.5
		c0-0.8-0.6-0.8-1.1-0.9c4.4-4.8,10-8.4,14.4-13.7c-0.6,0-0.9,0.1-1,0.4c-2.5,2.2-4.6,4.8-7.5,6.6c-0.3,0.1-0.4,0.3-0.4,0.4
		c-0.5,1.3-1.4,1.4-2.5,1.1c0.1-0.8-0.1-1.4-0.9-0.9c-0.8,0.4-1.6,0.9-2.3,1.4c-1.1,1.4-2.7,2.3-3.8,3.8c-0.6,0.9-1.1,1.3-0.4,2.3
		l-0.1,0.1c-0.8-0.6-0.8-0.6-1.9,0c-0.1,0.1-0.3,0.1-0.4,0.1c-1.1,1.1-2.8,1.8-4.1,2.7c-1,0.8-1.8,1.9-2.9,2.4
		c-2.3,0.8-4.4,1.7-6.6,2.4c-1.7,0.6-1.9,0.8-2-1c-0.1-1.4-1.1-2.5-0.3-4.1c0.8-1.3,0.5-3,1.7-4.2c0.3-0.3,0.4-0.6,0.3-1
		c-0.6-1.3,0-2,0.6-2.9c1.3-2,2.4-4,3.4-6.2c0.1-0.3,0.4-0.5,0.1-0.6c-1.1-0.9-0.5-1.7,0.3-2.4c0.3,0.3,0.1,0.8,0.6,1l0.8-2.2
		c-2.3-0.4-3.6,2.2-3,4.1c-1.1,0-1.3-0.6-1-1.5c-0.8,0-1,0.8-1.7,1c-0.2-0.8,0-1.7,0.4-2.4c0.4-0.7,0.5-1.5,0.3-2.3
		c-0.1-0.3-0.8-0.4-0.3-0.8s0.5,0.3,0.8,0.5c0,0.2,0.1,0.3,0.3,0.4c0.3-0.2,0.6-0.5,0.9-0.8c0.4-0.3,0.4-0.6,0.5-1
		c0.1,0,0.3-0.1,0.4-0.1c0.5,0,1.4,1.5,1.1,2c0.4,0,0.7,0,1.1,0.1c0.5,0.3,1,0.5,1.3-0.1c0.3-0.4,0.5-0.9,0.3-1.1
		c-0.4-0.3-0.8-0.9-1.5-0.6c-0.9,0.5-1.4,0.3-1.4-0.9v-0.8c-0.5-1.3-0.5-1.3,1-1.1c0.8,0.1,1.1-0.4,1.5-0.8c-0.1-0.4-0.6,0-0.6-0.6
		c0.7-0.3,1.5-0.3,2.2-0.1c-0.3,0.5-0.5,1,0.1,1.4c0.6,0.4,0.8-0.3,1.1-0.6c0.6-0.6,1.4-1.1,1.4-2.2c0-0.3,0.1-0.4,0.4-0.4
		c1-0.4,2.9-4.7,2.3-5.3c0.5-0.1,0.9-0.5,1.1-0.9c0.3-0.3,0.8-0.5,0.3-0.9c-0.9-0.6-0.4-1.7-1.1-2.4c0.3-0.2,0.7-0.1,0.9,0.2
		c0,0.1,0.1,0.1,0.1,0.2c0.1,0.3,0.1,0.6,0.5,0.6c0.4-0.1,0.6-0.4,0.6-0.8c0.1-0.8,0.7-1.5,1.4-1.9c1.9-1.3,3.4-3.3,4.1-5.5
		c0.1-0.4,0.5-0.5,0.8-0.8c1.3-1.1,1.3-0.5,2.7-0.8c1.8-0.3,3.5-0.4,5.3-0.4c-0.9-0.6-2.3-0.3-2.9-1.3l18.4-0.8v-0.9L511.5,103.5z
		 M419.8,98.2c0.3,0.5,0.3,0.6,0.3,0.8C419.8,98.6,419.6,98.5,419.8,98.2z M419.1,100.1l0.1-0.1c0.4,0.1,0.3,0.3,0.1,0.4
		c0,0,0-0.1-0.1,0C419.1,100.3,418.9,100.3,419.1,100.1z M418.3,109c0-0.6-0.4-1.1-0.1-1.8c-0.1-0.4-0.1-0.7,0-1.1
		c0.5,0.5,0.9,1.1,1,1.8c-0.3,0.4-0.3,1-0.1,1.4c0.3,0.3,0.1,0.3-0.4,0.3C418.4,109.4,418.4,109.4,418.3,109z M418.7,110.7
		c0-0.3,0.1-0.5,0.3-0.5s0.4-0.3,0.6-0.1c0,0.1,0,0.8-0.3,0.6C419.2,110.8,418.8,111.1,418.7,110.7z M419.4,111.7
		c-0.5,0.3-0.4,0.3-0.6,0.1c0-0.3,0-0.6,0.3-0.6c0.1,0,0.5-0.1,0.5,0.3C419.8,111.6,419.4,111.8,419.4,111.7z M420.1,108.2
		c0,0,0-0.1-0.1,0c-0.3-0.5,0-0.8-0.3-1.1c-0.1,0,0-0.1,0.3,0l0.3,0.1C420.2,107.4,420.7,107.6,420.1,108.2L420.1,108.2z M420.3,101
		l0.1-1.1C420.7,100.1,421,100.5,420.3,101L420.3,101z M421.2,103.8c0.1,0,0-0.4,0.5-0.1c0.1,0,0.1,0.1,0.5,0.4
		c-0.3,0.5-0.1,0.8-0.3,1C421.6,104.6,421.9,104.5,421.2,103.8L421.2,103.8z M421.7,122.5c-0.1,0.1-0.3,0.1-0.4,0
		c-0.1,0-0.1,0-0.1-0.1c0,0,0,0,0,0c-0.5-0.9,0.1-1,0.4-1.7c0.1,0,0.1,0,0.3,0.3C422.1,121.6,421.6,122,421.7,122.5L421.7,122.5z
		 M421.7,109.8l0.3,0.1c0.4,0.4,0.4,1,0,1.4C421.7,110.8,422.1,110.6,421.7,109.8L421.7,109.8z M422.9,120.3c0,0.3,0,0.5-0.4,0.5
		c0.2-0.7,0-1.4-0.4-2c-0.1,0,0-0.3,0.3-0.4s0.5,0,1,0.4C422.5,119.1,422.6,119.7,422.9,120.3L422.9,120.3z M423.4,115.1l-0.1,0.6
		c0,0.5-0.6-0.3-0.6-0.5c0-0.6-0.5-1.1,0.4-0.9C422.9,114.5,423.3,115,423.4,115.1L423.4,115.1z M423.9,119.1
		c0.2,0.2,0.3,0.5,0.3,0.8c-0.4-0.4-0.8-0.3-0.6-0.9C423.4,118.8,423.6,118.7,423.9,119.1L423.9,119.1z M422.6,116.5
		c0.3,0.5,0.6,0.9,0.9,1.3C422.6,117.7,422.9,117.2,422.6,116.5L422.6,116.5z M424.5,120.7c-0.1,0.2-0.3,0.3-0.5,0.4
		c-0.1-0.1-0.4-0.3-0.6-0.5c0.3-0.1,0.5-0.5,1.3-0.3C424.7,120.5,424.7,120.6,424.5,120.7L424.5,120.7z M425,130
		c0.1-0.3-0.3-0.5,0.1-0.8c0.1,0,0.4,0.4,0.5,0.6S425.5,130.2,425,130L425,130z M425.7,131c-0.4-0.4-0.4-0.6-0.4-0.8l0.1,0.1
		C425.7,130.4,425.8,130.7,425.7,131L425.7,131z M425.9,119.1c0,0.3-0.1,0.4-0.1,0.6c-0.2,0.3-0.5,0.5-0.8,0.6v-0.6
		c0-0.6-0.5-1.5-0.4-2.2l-0.4-1.4c0.1-0.5,0-0.9-0.1-1.4c-0.2-0.3-0.2-0.7-0.1-1c-0.5-1.2-0.8-2.4-1-3.7c-0.5-1.1-0.7-2.4-0.5-3.6
		c-0.1,0.6,0.9,1.1,0.4,1.9c1.4,1.1,0.8,2.2,1.3,3.4c0.1,1.1,0.8,2.3,0.6,3.2c0,0.4,0.1,0.5,0,0.8c0.5,0.3,0.7,0.9,0.4,1.4
		c-0.1,0.2-0.3,0.4-0.5,0.4C425.4,117.8,426,118.6,425.9,119.1L425.9,119.1z M426.7,138.6h-0.3c0-0.1-0.3-0.3,0-0.4l0.3,0.1
		C426.8,138.5,426.7,138.6,426.7,138.6L426.7,138.6z M428.6,134.8c0.1,0.1-0.1,0.3-0.3,0.6c0.2,1.9,0.5,3.8,1.1,5.7
		c0,0.5-0.1,0.9-0.3,1.3l0.1,0.1c-0.5,0-0.4-0.4-0.4-0.4l-0.8-3.8c-0.4-1.2-0.6-2.4-0.8-3.7c-0.2-1.4-0.4-2.9-0.4-4.3
		c-0.1-0.9-0.3-2-0.5-3c0.3-0.1,0.4-0.4,0.6-0.6c0,0.3,0.1,0.5,0.1,0.8c0.4,1.5,0.1,3.2,0.6,4.6
		C428.3,132.9,428.2,133.7,428.6,134.8L428.6,134.8z M484.2,146.6c0.6-0.5,1.3-0.9,1.5-1.8c0-0.4,0.6-0.6,1-0.4s0.8,0.6,0.6,1.1
		c0,0.5-0.4,0.5-0.9,0.3c-0.1,0.8-1.4,0.5-1.5,1.4c-0.1,0.3-0.1,0.6-0.4,0.5c-0.3,0-0.6-0.2-0.6-0.5
		C483.8,146.9,484,146.8,484.2,146.6L484.2,146.6z M482.6,151.7c0.5-0.4,0.4,0.3,0.6,0.4l0.3-0.3c0,0.3-0.1,0.3-0.3,0.3
		c-0.1,0.3-0.4,0.5-0.6,0.1C482.3,152.1,482.3,151.8,482.6,151.7L482.6,151.7z M479.6,151.2c0.6,0.1,0.4,0.5,0.4,0.9
		c-0.4-0.1-0.9,0.3-0.9-0.5C479.1,151.3,479.4,151.2,479.6,151.2L479.6,151.2z M477.7,152.5c0.3,0,0.5,0,0.5,0.3s-0.1,0.4-0.4,0.4
		s-0.4-0.1-0.4-0.4C477.4,152.6,477.6,152.5,477.7,152.5L477.7,152.5z M467.8,138.8c0.3,0.1,0.4,0.3,0.4,0.4s0,0.4-0.1,0.4
		c-0.3,0-0.5-0.1-0.5-0.4C467.6,139,467.7,138.9,467.8,138.8L467.8,138.8z M460.3,139.1c0.1-0.2,0.3-0.3,0.5-0.3
		c0.1,0.3,0.1,0.5,0,0.6c-0.3,0.4,0,0.9-0.5,1c-0.1,0-0.3,0-0.3-0.1C459.7,139.9,460.2,139.5,460.3,139.1L460.3,139.1z M459.7,141.6
		c0,1.2-0.5,2.3-1.3,3.2C458.9,143.7,458.7,142.3,459.7,141.6L459.7,141.6z M459.5,152.2c-0.2,0-0.3-0.1-0.3-0.3l0.3-0.3
		c0,0.1,0.1,0.2,0.1,0.3C459.6,152,459.6,152.1,459.5,152.2L459.5,152.2z M461.6,147.4c-0.8,0.4-0.5,1.4-1.1,2.3
		c-0.1-1,0.1-1.9,0.4-2.8c0.1-0.4,0.6-0.5,1-0.1C462.4,147,461.9,147.3,461.6,147.4L461.6,147.4z M462.2,145.7
		c-0.5,0.6-0.6-0.1-0.9-0.4c-0.3-0.5-0.6-0.9-1.7-0.5c0.8-0.7,1.8-1,2.8-0.8c0.4,0.4,0.5,1.1,0.1,1.5
		C462.4,145.6,462.3,145.6,462.2,145.7L462.2,145.7z M461.4,140.9c0-0.2,0.1-0.3,0.3-0.3c0.3,0,0.3,0.1,0.4,0.3
		c0,0.2-0.1,0.3-0.3,0.3C461.5,141.3,461.5,141.2,461.4,140.9L461.4,140.9z M462.6,143.1c-0.5,0.1-0.6-0.3-0.5-0.8
		c0.3-0.3,0.7-0.6,1.1-0.6c0-0.3-0.1-0.5,0.1-0.6h0.1c0.1,0.4,0,0.5-0.3,0.6C463.6,142.3,463.4,142.9,462.6,143.1L462.6,143.1z
		 M462.8,137.5c0.1-0.1,0.2-0.1,0.3-0.1c0.3,0,0.3,0.1,0.3,0.4c0,0.1-0.1,0.3-0.4,0.3C462.9,137.9,462.8,137.7,462.8,137.5
		L462.8,137.5z M463.4,147c0.3-0.4-0.4-1.1,0.5-1.4C464,146.2,463.6,146.6,463.4,147L463.4,147z M464.8,139c0,0.5,0,1-0.5,1
		s-0.8-0.5-0.8-1s0.3-0.8,0.8-0.9S464.8,138.6,464.8,139L464.8,139z M464,135.2c0-0.3,0.1-0.4,0.4-0.4s0.4,0.1,0.4,0.4
		s-0.3,0.4-0.4,0.4C464.1,135.6,464,135.5,464,135.2L464,135.2z M464.9,137.4c-0.1,0-0.2-0.1-0.3-0.1c0.1-0.4,0.3-0.5,0.4-0.4
		s0.3,0.3,0.3,0.4S465.2,137.4,464.9,137.4L464.9,137.4z M466.7,137.4c0.3-0.1,0.5,0,0.8,0.4c-0.4,0.3-0.6,0.1-0.9,0
		c-0.1-0.1-0.1-0.2,0-0.3C466.6,137.4,466.7,137.4,466.7,137.4L466.7,137.4z M465.9,140c0.1-0.4,0.1-0.9,0.6-1.1
		c0.1-0.1,0.3,0.1,0.3,0.3c-0.1,0.5-0.1,1.1-1,1.4C465.9,140.4,465.9,140.2,465.9,140L465.9,140z M472.5,125.2
		c-0.3,0-0.4-0.3-0.4-0.5c0-0.2,0.1-0.4,0.3-0.4c0,0,0,0,0.1,0c0.3,0,0.5,0.1,0.5,0.5C473,125,472.8,125.2,472.5,125.2L472.5,125.2z
		 M475.6,125.4c-0.4,0.3-0.4,0-0.5-0.3c0-0.1,0.1-0.3,0.1-0.4C475.5,125,475.7,125.3,475.6,125.4L475.6,125.4z M474.8,123.9
		c0,0.5-0.6,0.4-1,0.5s-0.8-0.4-0.8-0.8s2.3-4.4,2.8-4.6C476.1,119.5,474.8,123.4,474.8,123.9L474.8,123.9z M461.4,138.1
		c0-1.4,0-2.7,1-3.7c0.4-0.4,0.6-0.9,0.6-1.4c0.1-1.1,0.4-2.1,1.1-2.9c1.7-2.3,2.7-5.1,6.1-11.4c0.5-1.4,1.2-2.7,2.2-3.8
		c0.9-1.3,2.5-4.2,3.4-5.5c0.4-0.8,1-1.4,1.8-1.7C473.3,116.3,465.7,129.7,461.4,138.1L461.4,138.1z M479.8,118.6
		c-0.9-0.6-1.4-0.1-2,0.1c-0.4,0.1-0.6,0.5-1.1-0.3s-0.6-1.7,0.3-2.3c0.6-0.5,1.1,0,1.4,0.4C478.5,117.2,479.4,117.4,479.8,118.6
		L479.8,118.6z M482.4,99.6c-0.3,1-0.8,1.9-1.4,2.7c-0.1,0.3-0.4,0.6-0.8,0.3c-0.3-0.1,0-0.4,0.1-0.6
		C481,101.1,481.7,100.3,482.4,99.6c0-0.1,0-0.4,0.3-0.4c0.1,0,0.1,0,0.1,0.1c0,0,0,0,0,0C482.8,99.6,482.6,99.6,482.4,99.6
		L482.4,99.6z"/>
	<path class="st0" d="M164.7,142.9c0.4,0.1,0.9,0.1,1.1,0.5c0,0.3,0.3,0.3,0.3,0c0.1-0.9,1.1-1.3,1.7-2
		C166.1,140.7,165.6,142.3,164.7,142.9z"/>
	<path class="st0" d="M163.4,144.2c-0.3,0-0.5,0.2-0.5,0.4c0,0,0,0,0,0.1c-0.1,0.3-0.1,0.6-0.6,0.4c-0.4,0-0.6,0.4-0.8,0.6
		c-0.5,0.9-0.6,1.7-1.5,2.2c-0.6,0.2-1.2,0.4-1.8,0.8c-0.3,0.3-0.4,0.4-0.1,0.8c0.1,0.3,0.5,0.1,0.5,0c0.3-0.5,0.8-0.4,0.9-0.5
		c0.4-0.3,1.4,0.1,1.1-0.8c0,0,0.3-0.3,0.3-0.1c0.8,0.4,0.9,0,1-0.5c0.3-0.5,0.1-1.1,0.9-1.4c0.4-0.4,0.7-0.9,0.8-1.5
		C163.5,144.5,163.5,144.2,163.4,144.2z"/>
	<path class="st0" d="M95.3,64.7L95.3,64.7c-0.1-0.3,0-0.4,0.2-0.4l0.1,0.1C95.6,64.6,95.5,64.6,95.3,64.7z"/>
	<path class="st0" d="M133.7,149c0-0.1-0.3-0.1-0.3-0.1s-0.3,0-0.3,0.1c0,0.1,0,0.1,0.1,0.1c0,0,0,0,0,0
		C133.7,149.2,133.7,149.2,133.7,149z"/>
	<path class="st0" d="M143.9,118.3c0.1-0.1,0.3-0.1,0.3-0.3v0.1c0.3,0,0.3-0.1,0.3-0.1h-0.3c0-0.1-0.1-0.1-0.3-0.1l-0.1,0.1
		C143.6,118.2,143.7,118.3,143.9,118.3z"/>
	<path class="st0" d="M207.9,154.8c0,0-0.1-0.1-0.1,0s-0.1,0.1-0.1,0.4c0,0,0,0.1,0.1,0S207.9,155,207.9,154.8z"/>
</g>
</svg>
