<svg id="レイヤー_1" data-name="レイヤー 1" xmlns="http://www.w3.org/2000/svg" viewBox="0 0 233.12 232.48"><defs><style>.cls-1{fill:#231815;}</style></defs><path class="cls-1" d="M76.55,21.66,73.66,23l-2-4.34-1.38.61,2,4.33-2.89,1.3-5.85-13,2.9-1.3,1.3,2.89,1.44-.65-.65-1.44L70,10.73l-.66-1.46,1.46-.65Z" transform="translate(0.02)"/><path class="cls-1" d="M79.55,7.13l-3,1-1-3,3-1Zm-.39,13.52-.51-1.5,1.51-.51-2-6-1.61.53L76,11.66l4.52-1.54,2.57,7.49,1.51-.51.51,1.49Z" transform="translate(0.02)"/><path class="cls-1" d="M89.39,17.43l-3.09.74L84.07,8.94l3.08-.7.4,1.5,1.53-.37.37,1.54-1.55.33Zm2.76-8.8-3.09.74-.37-1.55,3.08-.74Z" transform="translate(0.02)"/><path class="cls-1" d="M95.6,8l-.24-1.58,4.7-.69.24,1.55L101.87,7,103,14.83l-6.28.92-.19-1.51L95,14.47l-.46-3.14,1.56-.23-.23-1.56L99,9.08l-.22-1.56Zm4,5.8-.46-3.14-1.56.23L98,14Z" transform="translate(0.02)"/><path class="cls-1" d="M110.55,14.33l-4.74.26L105.72,13l-1.57.09-.35-6.32,1.58-.08-.09-1.6L110,4.85l.09,1.59,1.59-.09.09,1.58-3.17.17-.08-1.58L107,6.61l.34,6.32,1.58-.09-.1-1.6,3.17-.17.09,1.57-1.6.09Z" transform="translate(0.02)"/><path class="cls-1" d="M115.12,1.6V0h4.75l-.08,12.68h1.6v1.57h-4.75l.08-12.65Z" transform="translate(0.02)"/><path class="cls-1" d="M129,14.72l-4.74-.38.13-1.57-1.57-.13.5-6.3,1.57.12L125,4.87l4.74.37-.13,1.59,1.59.13L131,10.1l-4.74-.38L126,12.89l1.57.12.13-1.57,3.16.25-.13,1.55-1.59-.12Zm-1.07-6.43.13-1.58-1.58-.12-.12,1.57Z" transform="translate(0.02)"/><path class="cls-1" d="M146.88,18.12l-4.58-1.24.41-1.53-1.52-.41,1.65-6.1,1.52.41.42-1.54,4.58,1.23L149,10.49l1.54.41L148.84,17l-1.54-.42Zm-1.11-1.94,1.65-6.11-1.52-.41-1.65,6.11Z" transform="translate(0.02)"/><path class="cls-1" d="M151.82,12.91l.55-1.48,1.47.55,1.71-4.45,1.5.55.5-1.49L162,8.24l-.56,1.49-3-1.11-1.66,4.46,3,1.1-.55,1.48-3-1.11L154,20.48l-3-1.1,2.2-5.93Z" transform="translate(0.02)"/><path class="cls-1" d="M171.84,29.24,166.42,26l7.34-12.21,2.72,1.63L174,19.47l2.7,1.63-.82,1.36,1.37.83L174,28.71l-1.37-.82Zm-.54-2.17,3.25-5.44-1.35-.81L170,26.24Z" transform="translate(0.02)"/><path class="cls-1" d="M180.64,35.33l-5.09-3.75.93-1.27-1.27-.93L179.9,23l2.56,1.87-4.72,6.38,1.27.94,4.69-6.39,2.56,1.87Z" transform="translate(0.02)"/><path class="cls-1" d="M187.55,41.29,181.62,36l6.29-7.11,4.74,4.19-1.06,1.2,1.2,1Z" transform="translate(0.02)"/><path class="cls-1" d="M192.83,46.69l-4.34-4.61,10.37-9.76L201,34.63l-3.49,3.25,2.16,2.3-1.16,1.06,1.1,1.17L195,46.74l-1.1-1.16Zm.06-2.23,4.66-4.33L196.47,39l-4.61,4.33Z" transform="translate(0.02)"/><path class="cls-1" d="M205.7,42.17l1.26-1,2.93,3.74-10,7.81,1,1.26-1.24,1-2.93-3.74,10-7.8Z" transform="translate(0.02)"/><path class="cls-1" d="M203.84,61.24l-2.58-4,1.33-.85-.85-1.33,5.32-3.42.85,1.32,1.34-.86,2.57,4-1.34.87.87,1.34L208.69,60l-2.57-4-2.67,1.72.86,1.33,1.32-.86,1.72,2.67-1.32.85-.87-1.34Zm4.46-4.75,1.33-.86-.86-1.32-1.32.85Z" transform="translate(0.02)"/><path class="cls-1" d="M208.3,69.24l-2.93-5.61L218,57.05l1.47,2.81-4.22,2.2,1.46,2.79-1.41.74L216,67l-5.61,2.92-.73-1.42Zm.67-2.13,5.58-3-.73-1.4-5.61,2.93Z" transform="translate(0.02)"/><path class="cls-1" d="M212,77.54l-1.79-4.4,1.46-.59-.6-1.46,5.86-2.39.59,1.46,1.48-.61,1.8,4.4-1.48.6.6,1.48L217,77.24l-1.79-4.39-2.94,1.2.6,1.46,1.46-.6,1.2,2.94-1.46.59L213.46,77Zm5.26-3.85,1.46-.6-.59-1.46-1.46.6Z" transform="translate(0.02)"/><path class="cls-1" d="M214.92,86.24l-1.37-4.6,1.51-.46-.51-1.51,6-1.84.46,1.51,1.53-.46L224,83.42l-1.53.47.47,1.52-3,.92-1.36-4.54-3,.92.46,1.51,1.51-.46.92,3-1.51.45-.46-1.52Zm5.63-3.4,1.5-.46-.5-1.51-1.51.46Z" transform="translate(0.02)"/><path class="cls-1" d="M216.71,93.52l-.64-3.11,3.09-.63.64,3.11Z" transform="translate(0.02)"/><path class="cls-1" d="M231.27,106.62h1.59l.23,9.49h-1.6l-.07-3.17-12.65.3-.08-3.16,12.65-.29Z" transform="translate(0.02)"/><path class="cls-1" d="M218.64,124.14l.08-3.17,7.9.21,0-1.57-7.9-.22.08-3.17,14.25.39-.09,3.17-4.75-.13-.08,3.15h-1.6v1.59Z" transform="translate(0.02)"/><path class="cls-1" d="M217.92,131.66l.54-4.72,1.57.18.18-1.56,6.28.72-.18,1.56,1.59.19-.54,4.71-1.59-.18-.18,1.59-3.13-.36.54-4.72-3.16-.36-.18,1.56,1.57.18-.36,3.16-1.57-.18.19-1.59Zm6.46-.84L226,131l.18-1.57-1.58-.19Z" transform="translate(0.02)"/><path class="cls-1" d="M211.79,145.5l.94-3,12.11,3.74-1.86,6-1.53-.47L221,153.3l-4.54-1.4.47-1.52-1.51-.47.93-3Zm5.58,3.37,4.54,1.4.47-1.51-4.54-1.4Z" transform="translate(0.02)"/><path class="cls-1" d="M210.67,158l1.82-4.39,1.45.6.61-1.46,5.84,2.42-.6,1.45,1.48.61-1.81,4.39L218,161l-.61,1.48-5.82-2.41.61-1.48Zm2.06-.86,5.82,2.42.6-1.46-5.84-2.41Z" transform="translate(0.02)"/><path class="cls-1" d="M205.94,167.59l1.47-2.81,1.4.74.73-1.4-1.39-.73,1.47-2.81L218,165l-3.68,7Z" transform="translate(0.02)"/><path class="cls-1" d="M202,174l2.59-4,1.32.86.86-1.32L212,173l-.86,1.32,1.34.87-2.59,4-1.37-.9-.86,1.34L205,177.86l2.58-4L205,172.13l-.86,1.32,1.33.86L203.7,177l-1.32-.86.87-1.33Zm6.17,2.12,1.32.86.86-1.33-1.32-.86Z" transform="translate(0.02)"/><path class="cls-1" d="M198.46,178.84l2-2.49,7.46,5.88-2,2.49-1.26-1-1,1.23-1.24-1,1-1.24Zm3.27,8.63,2-2.5,1.25,1-2,2.49Z" transform="translate(0.02)"/><path class="cls-1" d="M193.73,196.12l1,1.2-1.18,1,3.13,3.57L194.3,204l-3.14-3.57-2.38,2.09-1.05-1.2,2.38-2.09-4.18-4.76-2.38,2.1-1-1.19,3.57-3.13,1,1.18,1.2-1,4.17,4.75Z" transform="translate(0.02)"/><path class="cls-1" d="M176.55,200l3.84-2.8.93,1.28,1.27-.93,3.73,5.11-1.28.93.94,1.29-3.84,2.8-.94-1.29-1.29.94-3.72-5.12,1.29-.94Zm2.2.35,3.73,5.11,1.27-.93L180,199.38Z" transform="translate(0.02)"/><path class="cls-1" d="M160.73,209.05l5.71-2.73,6.11,12.86-2.86,1.36-2-4.28-2.85,1.36-.68-1.44-1.44.69L160,211.16l1.44-.69Zm2.1.74,2.73,5.71,1.42-.68-2.72-5.71Z" transform="translate(0.02)"/><path class="cls-1" d="M152.28,212.46l4.46-1.65.54,1.48,1.48-.54,2.19,5.93-1.48.55.55,1.5-4.47,1.64-.55-1.5-1.5.55-1.09-3,4.45-1.64-1.1-3-1.47.55.54,1.48-3,1.1-.54-1.48,1.5-.55Zm3.67,5.39.54,1.48,1.48-.55-.54-1.48Z" transform="translate(0.02)"/><path class="cls-1" d="M151.4,226.07l.41,1.55-4.59,1.22L144,216.6l-1.54.41-.41-1.52,4.55-1.25,3.26,12.23Z" transform="translate(0.02)"/><path class="cls-1" d="M139.27,216.08l.27,1.55-1.57.27,1.06,6.24,1.57-.27.27,1.57-4.69.8-1.32-7.81-1.58.27-.26-1.56Zm-2.56,13.27,3.11-.53.53,3.13-3.11.53Z" transform="translate(0.02)"/><path class="cls-1" d="M125.55,217.84l4.74-.36.12,1.57,1.57-.12.48,6.31-1.57.12L131,227l-4.73.37-.13-1.59-1.59.12-.24-3.15,4.74-.36-.24-3.16-1.58.12.12,1.57-3.16.24-.12-1.57,1.59-.12Zm2.06,6.19.12,1.58,1.57-.13-.12-1.57Z" transform="translate(0.02)"/><path class="cls-1" d="M117.9,218h3.18v1.58h1.58v7.92h-3.18v-6.35H117.9v6.35h-3.18v-6.34h1.59v-1.57h1.58Z" transform="translate(0.02)"/><path class="cls-1" d="M107.05,217.76l4.75.27-.09,1.58,1.57.09-.36,6.32-1.57-.09-.09,1.59-4.71-.28.09-1.59-1.59-.09.18-3.15,4.74.27.18-3.17-1.57-.09-.09,1.57-3.17-.18.09-1.57,1.6.09Zm1.22,6.41-.09,1.58,1.57.09.09-1.58Z" transform="translate(0.02)"/><path class="cls-1" d="M87.55,214.4l7.65,1.84-2.27,9.23L86.79,224l.38-1.55L85.62,222Z" transform="translate(0.02)"/><path class="cls-1" d="M82.27,221.08l-.52,1.51L77.26,221l.52-1.51L76.27,219l2.59-7.47,6,2.07-.52,1.49,1.49.52-1,3-1.49-.52-.51,1.49-3-1-.52,1.49Zm-.93-7-1,3,1.49.51,1-3Z" transform="translate(0.02)"/><path class="cls-1" d="M69.05,207.24l2.89,1.31L71.29,210l1.44.65-.65,1.44,1.43.65,1.31-2.87,2.89,1.31-5.89,13-2.89-1.31L71.55,217l-1.44-.65-.65,1.46-2.91-1.31.66-1.46,1.45.66.65-1.43,1.44.65.65-1.44L70,212.87l.66-1.45-1.45-.66.65-1.44-1.44-.65Z" transform="translate(0.02)"/><path class="cls-1" d="M63.87,204.24,68,206.59,67.22,208l1.37.78-3.14,5.5-1.37-.78-.79,1.38-4.12-2.35L60,211.1l-1.41-.77,1.56-2.74L64.24,210l1.59-2.71-1.37-.78-.78,1.37-2.76-1.59.78-1.37,1.39.79Zm-1.76,6.27-.78,1.38,1.37.78.78-1.37Z" transform="translate(0.02)"/><path class="cls-1" d="M61.42,202.88l-.87,1.29-3.89-2.72-.9,1.29,2.6,1.82-.92,1.31,1.3.9-1.81,2.59-1.29-.91-.92,1.31-5.2-3.63.92-1.31,3.89,2.72.9-1.29-2.58-1.81.9-1.29-1.35-.91L54,199.63l1.31.92.9-1.29Z" transform="translate(0.02)"/><path class="cls-1" d="M42.49,187.24l3.34,3.39-1.13,1.1,1.11,1.13L41.3,197.3l-1.1-1.06-1.14,1.12L35.73,194l1.13-1.12-1.12-1.13L38,189.5l3.33,3.39,2.23-2.26-1.1-1.13-1.13,1.11-2.23-2.26,1.16-1.11,1.12,1.14Zm-3.4,5.57L38,193.92,39.08,195l1.12-1.11Z" transform="translate(0.02)"/><path class="cls-1" d="M37.48,181.6l2,2.45-1.22,1,1,1.22-6.12,5-2-2.45,4.91-4-1-1.22-4.9,4-2-2.45,4.91-4,1,1.24,1.22-1,1,1.22Z" transform="translate(0.02)"/><path class="cls-1" d="M31.15,173l2.67,3.94-1.31.88.89,1.31-5.24,3.54-.89-1.3-1.32.88-2.66-3.93,1.32-.9-.9-1.32,2.62-1.77L29,178.24l2.63-1.78-.89-1.31-1.3.89-1.78-2.6,1.3-.88.9,1.32Zm-4.35,4.86-1.31.88.89,1.31,1.3-.89Z" transform="translate(0.02)"/><path class="cls-1" d="M18.81,167.54l1.53,2.78-1.39.77-1.53-2.78Zm9.22.35,1.52,2.78-8.31,4.57-1.53-2.78,1.39-.77-.76-1.38,1.39-.76.76,1.38Z" transform="translate(0.02)"/><path class="cls-1" d="M26.61,162.05l-1.47.64-1.26-2.91,1.46-.64-.63-1.44L21.8,159l1.27,2.91-1.45.63.63,1.45-5.81,2.53-1.27-2.9L21,161l-.63-1.45-5.8,2.54-1.28-2.89,10.17-4.43.64,1.46,1.44-.63,1.9,4.35-1.44.63Z" transform="translate(0.02)"/><path class="cls-1" d="M14,156.78l-1.52.5-.49-1.5-4.52,1.46-1-3L11,152.75l-1-3,1.51-.5,1,3,6-2-1-3,1.5-.5,1.49,4.51-1.5.5.5,1.51-6,2Z" transform="translate(0.02)"/><path class="cls-1" d="M16.82,137.92l.71,3.09-7.7,1.77.35,1.54,7.7-1.77.72,3.09-13.89,3.2L4,145.74l4.63-1.06-.71-3.07,1.55-.37-.35-1.56Z" transform="translate(0.02)"/><path class="cls-1" d="M3.15,132.17l.4,3.12-3.15.43L0,132.59Zm13.17,3-1.56.21-.21-1.57-6.27.85.21,1.58-1.58.21-.64-4.7,7.85-1.06-.21-1.58,1.56-.21Z" transform="translate(0.02)"/><path class="cls-1" d="M15,119.75l.14,3.17-7.89.32.07,1.58,7.89-.35.14,3.17-9.49.42-.26-6.29,1.6-.07-.07-1.6Z" transform="translate(0.02)"/><path class="cls-1" d="M16.55,118.42H15v-3.17h1.6v-1.58H13.38v3.17H11.81v1.58H7.06v-1.58H5.46l.09-6.45,11.09.12v1.59h1.57l-.05,4.75H16.59Zm-4.7-4.8H7.1v1.57l4.75.06Z" transform="translate(0.02)"/><path class="cls-1" d="M19.55,97.57,19,100.69,6.46,98.39l1.15-6.23,1.57.29.29-1.56,4.67.86-.29,1.57,1.55.29-.57,3.1Zm-6-2.7L8.88,94l-.29,1.55,4.67.86Z" transform="translate(0.02)"/><path class="cls-1" d="M19.17,85l-1.29,4.58-1.52-.43-.43,1.51L9.84,89l.43-1.52L8.74,87,10,82.45l1.53.43L12,81.35l6.09,1.72-.44,1.54Zm-2,1.09L11.14,84.4l-.43,1.52,6.09,1.72Z" transform="translate(0.02)"/><path class="cls-1" d="M19.91,82.35l-1.47-.57,1.71-4.43-1.47-.57-1.13,3-1.49-.57-.57,1.47L12.55,79.5,13.11,78l-1.48-.57,2.28-5.92,1.49.57-1.72,4.43,1.47.57,1.13-2.94,1.48.57.57-1.5,3,1.14-.57,1.49,1.47.56Z" transform="translate(0.02)"/><path class="cls-1" d="M23.19,73.8l-1.41-.7,2.11-4.25-1.42-.7L21.06,71l-1.43-.75-.7,1.41-2.82-1.4.7-1.41-1.43-.71,2.82-5.68,1.43.7-2.08,4.3,1.41.7,1.4-2.83,1.41.71.71-1.43L25.33,66l-.78,1.43,1.41.7Z" transform="translate(0.02)"/><path class="cls-1" d="M19.78,53.59l-1.66,2.65-2.7-1.67,1.66-2.68Zm8.28,10.65-1.35-.83.84-1.32-5.38-3.32-.84,1.36L20,59.29l2.49-4,6.75,4.16L30,58.09l1.35.82Z" transform="translate(0.02)"/><path class="cls-1" d="M35.8,52.78,32,57.84l-11.39-8.6,1.94-2.49,3.8,2.85,1.9-2.52,1.27,1,1-1.27,5,3.8-1,1.27Zm-2.2.31L28.55,49.3l-1,1.26,5.06,3.8Z" transform="translate(0.02)"/><path class="cls-1" d="M29.16,40.86,28,39.79l3.19-3.55,9.4,8.5,1.07-1.19,1.17,1.06-3.19,3.53-9.38-8.49Z" transform="translate(0.02)"/><path class="cls-1" d="M48.25,39.45l-3.49,3.21L43.69,41.5l-1.14,1.07-4.29-4.65,1.16-1.07-1.08-1.17,3.5-3.22,1.08,1.17,1.17-1.08,2.14,2.32-3.49,3.22,2.14,2.33L46,39.36,45,38.24l2.33-2.15,1.07,1.15-1.18,1.08Zm-5.44-3.59L41.74,34.7l-1.19,1.07,1.07,1.16Z" transform="translate(0.02)"/><path class="cls-1" d="M54.09,34.64l-2.54,1.93-1.92-2.5,2.52-1.93Z" transform="translate(0.02)"/></svg>