<svg id="レイヤー_1" data-name="レイヤー 1" xmlns="http://www.w3.org/2000/svg" viewBox="0 0 344.11 232.47"><defs><style>.cls-1{fill:#fff;}</style></defs><path class="cls-1" d="M77,22.42l-2.89,1.31-2-4.34L70.73,20l2,4.33-2.89,1.3-5.85-13,2.9-1.3,1.3,2.89,1.44-.65-.65-1.44,1.44-.64-.66-1.46,1.46-.65Z" transform="translate(-0.45 -0.76)"/><path class="cls-1" d="M80,7.89l-3,1-1-3,3-1Zm-.39,13.52-.51-1.5,1.51-.51-2-6L77,13.93l-.52-1.51L81,10.88l2.57,7.49,1.51-.51.51,1.49Z" transform="translate(-0.45 -0.76)"/><path class="cls-1" d="M89.84,18.19l-3.09.74L84.52,9.7,87.6,9,88,10.5l1.53-.37.37,1.54L88.35,12Zm2.76-8.8-3.09.74-.37-1.55,3.08-.74Z" transform="translate(-0.45 -0.76)"/><path class="cls-1" d="M96.05,8.72l-.24-1.58,4.7-.69L100.75,8l1.57-.23,1.15,7.82-6.28.92L97,15l-1.56.23-.46-3.14,1.56-.23-.23-1.56,3.14-.46-.22-1.56Zm4,5.8-.46-3.14-1.56.23.46,3.14Z" transform="translate(-0.45 -0.76)"/><path class="cls-1" d="M111,15.09l-4.74.26-.09-1.58-1.57.09-.35-6.32,1.58-.08-.09-1.6,4.74-.25.09,1.59,1.59-.09.09,1.58-3.17.17L109,7.28l-1.58.09.34,6.32,1.58-.09L109.24,12l3.17-.17.09,1.57-1.6.09Z" transform="translate(-0.45 -0.76)"/><path class="cls-1" d="M115.57,2.36V.76l4.75,0-.08,12.68h1.6v1.57l-4.75,0,.08-12.65Z" transform="translate(-0.45 -0.76)"/><path class="cls-1" d="M129.44,15.48l-4.74-.38.13-1.57-1.57-.13.5-6.3,1.57.12.13-1.59L130.2,6l-.13,1.59,1.59.13-.25,3.14-4.74-.38-.25,3.17,1.57.12.13-1.57,3.16.25L131.15,14l-1.59-.12Zm-1.07-6.43.13-1.58-1.58-.12-.12,1.57Z" transform="translate(-0.45 -0.76)"/><path class="cls-1" d="M147.33,18.88l-4.58-1.24.41-1.53-1.52-.41,1.65-6.1,1.52.41.42-1.54,4.58,1.23-.41,1.55,1.54.41-1.65,6.11-1.54-.42Zm-1.11-1.94,1.65-6.11-1.52-.41-1.65,6.11Z" transform="translate(-0.45 -0.76)"/><path class="cls-1" d="M152.27,13.67l.55-1.48,1.47.55L156,8.29l1.5.55L158,7.35,162.46,9l-.56,1.49-3-1.11-1.66,4.46,3,1.1-.55,1.48-3-1.11-2.21,5.93-3-1.1,2.2-5.93Z" transform="translate(-0.45 -0.76)"/><path class="cls-1" d="M172.29,30l-5.42-3.26,7.34-12.21,2.72,1.63-2.45,4.07,2.7,1.63-.82,1.36,1.37.83-3.26,5.42-1.37-.82Zm-.54-2.17L175,22.39l-1.35-.81L170.4,27Z" transform="translate(-0.45 -0.76)"/><path class="cls-1" d="M181.09,36.09,176,32.34l.93-1.27-1.27-.93,4.69-6.39,2.56,1.87L178.19,32l1.27.94,4.69-6.39,2.56,1.87Z" transform="translate(-0.45 -0.76)"/><path class="cls-1" d="M188,42.05l-5.93-5.25,6.29-7.11,4.74,4.19-1.06,1.2,1.2,1.05Z" transform="translate(-0.45 -0.76)"/><path class="cls-1" d="M193.28,47.45l-4.34-4.61,10.37-9.76,2.18,2.31L198,38.64l2.16,2.3L199,42l1.1,1.17-4.61,4.33-1.1-1.16Zm.06-2.23L198,40.89l-1.08-1.15-4.61,4.33Z" transform="translate(-0.45 -0.76)"/><path class="cls-1" d="M206.15,42.93l1.26-1,2.93,3.74-10,7.81,1,1.26-1.24,1L197.17,52l10-7.8Z" transform="translate(-0.45 -0.76)"/><path class="cls-1" d="M204.29,62l-2.58-4,1.33-.85-.85-1.33,5.32-3.42.85,1.32,1.34-.86,2.57,4-1.34.87.87,1.34-2.66,1.71-2.57-4-2.67,1.72.86,1.33,1.32-.86,1.72,2.67-1.32.85-.87-1.34Zm4.46-4.75,1.33-.86-.86-1.32-1.32.85Z" transform="translate(-0.45 -0.76)"/><path class="cls-1" d="M208.75,70l-2.93-5.61,12.64-6.58,1.47,2.81-4.22,2.2,1.46,2.79-1.41.74.73,1.42-5.61,2.92-.73-1.42Zm.67-2.13L215,64.91l-.73-1.4-5.61,2.93Z" transform="translate(-0.45 -0.76)"/><path class="cls-1" d="M212.45,78.3l-1.79-4.4,1.46-.59-.6-1.46,5.86-2.39.59,1.46,1.48-.61,1.8,4.4-1.48.6.6,1.48L217.45,78l-1.79-4.39-2.94,1.2.6,1.46,1.46-.6,1.2,2.94-1.46.59-.61-1.47Zm5.26-3.85,1.46-.6-.59-1.46-1.46.6Z" transform="translate(-0.45 -0.76)"/><path class="cls-1" d="M215.37,87,214,82.4l1.51-.46L215,80.43l6.05-1.84.46,1.51,1.53-.46,1.38,4.54-1.53.47.47,1.52-3,.92L219,82.55l-3,.92.46,1.51,1.51-.46.92,3-1.51.45-.46-1.52ZM221,83.6l1.5-.46L222,81.63l-1.51.46Z" transform="translate(-0.45 -0.76)"/><path class="cls-1" d="M217.16,94.28l-.64-3.11,3.09-.63.64,3.11Z" transform="translate(-0.45 -0.76)"/><path class="cls-1" d="M231.72,107.38l1.59,0,.23,9.49-1.6,0-.07-3.17-12.65.3-.08-3.16,12.65-.29Z" transform="translate(-0.45 -0.76)"/><path class="cls-1" d="M219.09,124.9l.08-3.17,7.9.21.05-1.57-7.9-.22.08-3.17,14.25.39-.09,3.17-4.75-.13-.08,3.15-1.6,0,0,1.59Z" transform="translate(-0.45 -0.76)"/><path class="cls-1" d="M218.37,132.42l.54-4.72,1.57.18.18-1.56,6.28.72-.18,1.56,1.59.19-.54,4.71-1.59-.18-.18,1.59-3.13-.36.54-4.72-3.16-.36-.18,1.56,1.57.18-.36,3.16-1.57-.18.19-1.59Zm6.46-.84,1.57.18.18-1.57L225,130Z" transform="translate(-0.45 -0.76)"/><path class="cls-1" d="M212.24,146.26l.94-3L225.29,147l-1.86,6-1.53-.47-.47,1.53-4.54-1.4.47-1.52-1.51-.47.93-3Zm5.58,3.37,4.54,1.4.47-1.51-4.54-1.4Z" transform="translate(-0.45 -0.76)"/><path class="cls-1" d="M211.12,158.74l1.82-4.39,1.45.6.61-1.46,5.84,2.42-.6,1.45,1.48.61-1.81,4.39-1.48-.61-.61,1.48L212,160.82l.61-1.48Zm2.06-.86L219,160.3l.6-1.46-5.84-2.41Z" transform="translate(-0.45 -0.76)"/><path class="cls-1" d="M206.39,168.35l1.47-2.81,1.4.74.73-1.4-1.39-.73,1.47-2.81,8.41,4.42-3.68,7Z" transform="translate(-0.45 -0.76)"/><path class="cls-1" d="M202.4,174.73l2.59-4,1.32.86.86-1.32,5.31,3.44-.86,1.32,1.34.87-2.59,4L209,179l-.86,1.34-2.65-1.72,2.58-4-2.66-1.73-.86,1.32,1.33.86-1.73,2.66-1.32-.86.87-1.33Zm6.17,2.12,1.32.86.86-1.33-1.32-.86Z" transform="translate(-0.45 -0.76)"/><path class="cls-1" d="M198.91,179.6l2-2.49,7.46,5.88-2,2.49-1.26-1-1,1.23-1.24-1,1-1.24Zm3.27,8.63,2-2.5,1.25,1-2,2.49Z" transform="translate(-0.45 -0.76)"/><path class="cls-1" d="M194.18,196.88l1,1.2-1.18,1,3.13,3.57-2.38,2.1-3.14-3.57-2.38,2.09-1.05-1.2,2.38-2.09-4.18-4.76-2.38,2.1-1-1.19,3.57-3.13,1,1.18,1.2-1.05,4.17,4.75Z" transform="translate(-0.45 -0.76)"/><path class="cls-1" d="M177,200.72l3.84-2.8.93,1.28,1.27-.93,3.73,5.11-1.28.93.94,1.29-3.84,2.8-.94-1.29-1.29.94-3.72-5.12,1.29-.94Zm2.2.35,3.73,5.11,1.27-.93-3.72-5.11Z" transform="translate(-0.45 -0.76)"/><path class="cls-1" d="M161.18,209.81l5.71-2.73L173,219.94l-2.86,1.36-2-4.28-2.85,1.36-.68-1.44-1.44.69-2.73-5.71,1.44-.69Zm2.1.74,2.73,5.71,1.42-.68-2.72-5.71Z" transform="translate(-0.45 -0.76)"/><path class="cls-1" d="M152.73,213.22l4.46-1.65.54,1.48,1.48-.54,2.19,5.93-1.48.55.55,1.5L156,222.13l-.55-1.5-1.5.55-1.09-3,4.45-1.64-1.1-3-1.47.55.54,1.48-3,1.1-.54-1.48,1.5-.55Zm3.67,5.39.54,1.48,1.48-.55-.54-1.48Z" transform="translate(-0.45 -0.76)"/><path class="cls-1" d="M151.85,226.83l.41,1.55-4.59,1.22-3.27-12.24-1.54.41-.41-1.52L147,215l3.26,12.23Z" transform="translate(-0.45 -0.76)"/><path class="cls-1" d="M139.72,216.84l.27,1.55-1.57.27,1.06,6.24,1.57-.27.27,1.57-4.69.8-1.32-7.81-1.58.27-.26-1.56Zm-2.56,13.27,3.11-.53.53,3.13-3.11.53Z" transform="translate(-0.45 -0.76)"/><path class="cls-1" d="M126,218.6l4.74-.36.12,1.57,1.57-.12.48,6.31-1.57.12.12,1.59-4.73.37-.13-1.59-1.59.12-.24-3.15,4.74-.36-.24-3.16-1.58.12.12,1.57-3.16.24-.12-1.57,1.59-.12Zm2.06,6.19.12,1.58,1.57-.13-.12-1.57Z" transform="translate(-0.45 -0.76)"/><path class="cls-1" d="M118.35,218.78h3.18v1.58h1.58v7.92h-3.18v-6.35h-1.58v6.35h-3.18v-6.34h1.59v-1.57h1.58Z" transform="translate(-0.45 -0.76)"/><path class="cls-1" d="M107.5,218.52l4.75.27-.09,1.58,1.57.09-.36,6.32-1.57-.09-.09,1.59L107,228l.09-1.59-1.59-.09.18-3.15,4.74.27.18-3.17-1.57-.09-.09,1.57-3.17-.18.09-1.57,1.6.09Zm1.22,6.41-.09,1.58,1.57.09.09-1.58Z" transform="translate(-0.45 -0.76)"/><path class="cls-1" d="M88,215.16,95.65,217l-2.27,9.23-6.14-1.51.38-1.55-1.55-.38Z" transform="translate(-0.45 -0.76)"/><path class="cls-1" d="M82.72,221.84l-.52,1.51-4.49-1.55.52-1.51-1.51-.52,2.59-7.47,6,2.07-.52,1.49,1.49.52-1,3-1.49-.52-.51,1.49-3-1-.52,1.49Zm-.93-7-1,3,1.49.51,1-3Z" transform="translate(-0.45 -0.76)"/><path class="cls-1" d="M69.5,208l2.89,1.31-.65,1.44,1.44.65-.65,1.44,1.43.65,1.31-2.87,2.89,1.31-5.89,13-2.89-1.31L72,217.8l-1.44-.65-.65,1.46L67,217.3l.66-1.46,1.45.66.65-1.43,1.44.65.65-1.44-1.44-.65.66-1.45-1.45-.66.65-1.44-1.44-.65Z" transform="translate(-0.45 -0.76)"/><path class="cls-1" d="M64.32,205l4.13,2.35-.78,1.37,1.37.78L65.9,215l-1.37-.78-.79,1.38-4.12-2.35.79-1.39L59,211.09l1.56-2.74,4.13,2.36L66.28,208l-1.37-.78-.78,1.37L61.37,207l.78-1.37,1.39.79Zm-1.76,6.27-.78,1.38,1.37.78.78-1.37Z" transform="translate(-0.45 -0.76)"/><path class="cls-1" d="M61.87,203.64,61,204.93l-3.89-2.72-.9,1.29,2.6,1.82-.92,1.31,1.3.9-1.81,2.59-1.29-.91-.92,1.31-5.2-3.63.92-1.31,3.89,2.72.9-1.29-2.58-1.81.9-1.29L52.65,203l1.82-2.61,1.31.92.9-1.29Z" transform="translate(-0.45 -0.76)"/><path class="cls-1" d="M42.94,188l3.34,3.39-1.13,1.1,1.11,1.13-4.51,4.44L40.65,197l-1.14,1.12-3.33-3.39,1.13-1.12-1.12-1.13,2.25-2.22,3.33,3.39L44,191.39l-1.1-1.13-1.13,1.11-2.23-2.26L40.7,188l1.12,1.14Zm-3.4,5.57-1.12,1.11,1.11,1.12,1.12-1.11Z" transform="translate(-0.45 -0.76)"/><path class="cls-1" d="M37.93,182.36l2,2.45-1.22,1,1,1.22-6.12,5-2-2.45,4.91-4-1-1.22-4.9,4-2-2.45,4.91-4,1,1.24,1.22-1,1,1.22Z" transform="translate(-0.45 -0.76)"/><path class="cls-1" d="M31.6,173.75l2.67,3.94-1.31.88.89,1.31-5.24,3.54-.89-1.3L26.4,183l-2.66-3.93,1.32-.9-.9-1.32,2.62-1.77L29.44,179l2.63-1.78-.89-1.31-1.3.89L28.1,174.2l1.3-.88.9,1.32Zm-4.35,4.86-1.31.88.89,1.31,1.3-.89Z" transform="translate(-0.45 -0.76)"/><path class="cls-1" d="M19.26,168.3l1.53,2.78-1.39.77-1.53-2.78Zm9.22.35L30,171.43,21.69,176l-1.53-2.78,1.39-.77-.76-1.38,1.39-.76.76,1.38Z" transform="translate(-0.45 -0.76)"/><path class="cls-1" d="M27.06,162.81l-1.47.64-1.26-2.91,1.46-.64-.63-1.44-2.91,1.26,1.27,2.91-1.45.63.63,1.45-5.81,2.53-1.27-2.9,5.81-2.54-.63-1.45L15,162.89,13.72,160l10.17-4.43.64,1.46,1.44-.63,1.9,4.35-1.44.63Z" transform="translate(-0.45 -0.76)"/><path class="cls-1" d="M14.42,157.54l-1.52.5-.49-1.5L7.89,158l-1-3,4.51-1.49-1-3,1.51-.5,1,3,6-2-1-3,1.5-.5,1.49,4.51-1.5.5.5,1.51-6,2Z" transform="translate(-0.45 -0.76)"/><path class="cls-1" d="M17.27,138.68l.71,3.09-7.7,1.77.35,1.54,7.7-1.77.72,3.09L5.16,149.6l-.71-3.1,4.63-1.06-.71-3.07L9.92,142l-.35-1.56Z" transform="translate(-0.45 -0.76)"/><path class="cls-1" d="M3.6,132.93,4,136.05l-3.15.43-.42-3.13Zm13.17,3-1.56.21L15,134.57l-6.27.85L8.94,137l-1.58.21-.64-4.7,7.85-1.06-.21-1.58,1.56-.21Z" transform="translate(-0.45 -0.76)"/><path class="cls-1" d="M15.4,120.51l.14,3.17L7.65,124l.07,1.58,7.89-.35.14,3.17-9.49.42L6,122.53l1.6-.07-.07-1.6Z" transform="translate(-0.45 -0.76)"/><path class="cls-1" d="M17,119.18l-1.6,0,0-3.17L17,116l0-1.58-3.17,0,0,3.17-1.57,0,0,1.58-4.75,0,0-1.58-1.6,0L6,111.14l11.09.12v1.59l1.57,0-.05,4.75-1.57,0Zm-4.7-4.8-4.75,0,0,1.57,4.75.06Z" transform="translate(-0.45 -0.76)"/><path class="cls-1" d="M20,98.33l-.58,3.12L6.91,99.15l1.15-6.23,1.57.29.29-1.56,4.67.86-.29,1.57,1.55.29-.57,3.1ZM14,95.63l-4.67-.86-.29,1.55,4.67.86Z" transform="translate(-0.45 -0.76)"/><path class="cls-1" d="M19.62,85.79l-1.29,4.58-1.52-.43-.43,1.51-6.09-1.72.43-1.52-1.53-.43,1.29-4.57,1.53.43.44-1.53,6.09,1.72-.44,1.54Zm-1.95,1.09-6.08-1.72-.43,1.52,6.09,1.72Z" transform="translate(-0.45 -0.76)"/><path class="cls-1" d="M20.36,83.11l-1.47-.57,1.71-4.43-1.47-.57L18,80.5l-1.49-.57-.57,1.47L13,80.26l.56-1.47-1.48-.57,2.28-5.92,1.49.57L14.13,77.3l1.47.57,1.13-2.94,1.48.57L18.78,74l3,1.14-.57,1.49,1.47.56Z" transform="translate(-0.45 -0.76)"/><path class="cls-1" d="M23.64,74.56l-1.41-.7,2.11-4.25-1.42-.7-1.41,2.84L20.08,71l-.7,1.41-2.82-1.4.7-1.41-1.43-.71,2.82-5.68,1.43.7L18,68.21l1.41.7,1.4-2.83,1.41.71.71-1.43,2.85,1.41L25,68.2l1.41.7Z" transform="translate(-0.45 -0.76)"/><path class="cls-1" d="M20.23,54.35,18.57,57l-2.7-1.67,1.66-2.68ZM28.51,65l-1.35-.83L28,62.85l-5.38-3.32-.84,1.36-1.36-.84,2.49-4,6.75,4.16.83-1.36,1.35.82Z" transform="translate(-0.45 -0.76)"/><path class="cls-1" d="M36.25,53.54l-3.8,5.06L21.06,50,23,47.51l3.8,2.85,1.9-2.52,1.27.95,1-1.27L36,51.32l-1,1.27Zm-2.2.31L29,50.06,28,51.32l5.06,3.8Z" transform="translate(-0.45 -0.76)"/><path class="cls-1" d="M29.61,41.62l-1.19-1.07L31.61,37l9.4,8.5,1.07-1.19,1.17,1.06-3.19,3.53-9.38-8.49Z" transform="translate(-0.45 -0.76)"/><path class="cls-1" d="M48.7,40.21l-3.49,3.21-1.07-1.16L43,43.33l-4.29-4.65,1.16-1.07-1.08-1.17,3.5-3.22,1.08,1.17,1.17-1.08,2.14,2.32-3.49,3.22,2.14,2.33,1.16-1.06L45.41,39l2.33-2.15L48.81,38l-1.18,1.08Zm-5.44-3.59-1.07-1.16L41,36.53l1.07,1.16Z" transform="translate(-0.45 -0.76)"/><path class="cls-1" d="M54.54,35.4,52,37.33l-1.92-2.5,2.52-1.93Z" transform="translate(-0.45 -0.76)"/><text x="-0.45" y="-0.76"/></svg>