<svg xmlns="http://www.w3.org/2000/svg" viewBox="0 0 224.09 12.6"><defs><style>.cls-1{fill:#fff;stroke:#000;stroke-miterlimit:10;}</style></defs><g id="レイヤー_2" data-name="レイヤー 2"><g id="レイヤー_1-2" data-name="レイヤー 1"><path d="M137.68,8.56c-.87.11-.93.2-.93,1v1.18a7.65,7.65,0,0,0,.09,1.33,14.11,14.11,0,0,1-3.18.51c-3.18,0-5.12-2-5.12-4.79,0-3,2.41-4.73,5.21-4.73a13.55,13.55,0,0,1,2.92.36c0,.51.1,1.37.21,2.25l-.42.08c-.34-1.19-.74-1.69-1.63-2a4.38,4.38,0,0,0-1.3-.19c-2.14,0-3.53,1.47-3.53,4,0,2.22,1.15,4.44,3.87,4.44a2.82,2.82,0,0,0,1.19-.24c.29-.17.47-.32.47-.9V9.79c0-1-.11-1.13-1.45-1.23v-.4h3.6Z"/><path d="M146.37,3.08a4.51,4.51,0,0,1,4.54,4.63,4.64,4.64,0,1,1-9.28.21A4.68,4.68,0,0,1,146.37,3.08Zm-.28.52c-1.57,0-3,1.32-3,3.94s1.43,4.52,3.42,4.52c1.69,0,3-1.26,3-4C149.48,5.16,147.92,3.6,146.09,3.6Z"/><path d="M168.43,5.48A5.14,5.14,0,0,0,168,4.32c-.23-.38-.37-.48-1.14-.48h-1.4v6.82c0,1.1.11,1.25,1.44,1.33v.4h-4.07V12c1.3-.08,1.41-.22,1.41-1.33V3.84H163c-.77,0-1,.09-1.24.51a6.77,6.77,0,0,0-.46,1.13h-.42c.09-.85.17-1.74.21-2.52h.32c.22.33.37.32.76.32h5.55a.71.71,0,0,0,.71-.32h.34c0,.66.05,1.67.12,2.48Z"/><path d="M177.46,3.08A4.51,4.51,0,0,1,182,7.71a4.64,4.64,0,1,1-9.27.21A4.67,4.67,0,0,1,177.46,3.08Zm-.28.52c-1.57,0-3,1.32-3,3.94s1.42,4.52,3.41,4.52c1.7,0,3-1.26,3-4C180.57,5.16,179,3.6,177.18,3.6Z"/><path d="M199.53,5.48a5.62,5.62,0,0,0-.45-1.16c-.22-.38-.36-.48-1.13-.48h-1.41v6.82c0,1.1.12,1.25,1.45,1.33v.4h-4.08V12c1.3-.08,1.42-.22,1.42-1.33V3.84h-1.28c-.77,0-1,.09-1.23.51a6,6,0,0,0-.46,1.13h-.42c.08-.85.16-1.74.21-2.52h.32c.21.33.36.32.75.32h5.55a.72.72,0,0,0,.72-.32h.33c0,.66.06,1.67.13,2.48Z"/><path d="M208.56,3.08a4.5,4.5,0,0,1,4.53,4.63,4.64,4.64,0,1,1-9.27.21A4.68,4.68,0,0,1,208.56,3.08Zm-.28.52c-1.57,0-3,1.32-3,3.94s1.43,4.52,3.42,4.52c1.69,0,3-1.26,3-4C211.67,5.16,210.11,3.6,208.28,3.6Z"/><path d="M220.79,3.28a4,4,0,0,1,2.37.6,2.37,2.37,0,0,1,.93,2A2.9,2.9,0,0,1,221,8.74l-.37,0-1-.26v2.19c0,1.18.1,1.2,1.38,1.34v.4h-3.86V12c1.2-.12,1.26-.21,1.26-1.37V5.06c0-1.25-.15-1.27-1.26-1.39V3.28ZM219.66,8a2.43,2.43,0,0,0,1,.19,2,2,0,0,0,2.1-2.25,2,2,0,0,0-2.18-2.15,1.26,1.26,0,0,0-.79.17c-.11.09-.15.26-.15.64Z"/><polyline class="cls-1" points="103.21 8.35 1.21 8.35 9.21 0.35"/></g></g></svg>